<svg width="78" height="20" viewBox="0 0 78 20" fill="none" xmlns="http://www.w3.org/2000/svg">
<path d="M8.64376 0L0.111328 4.98623V14.9587L8.64376 19.9449L17.1761 14.9587V4.98623L8.64376 0ZM13.5615 12.8453L8.64536 15.7182L3.72923 12.8453V7.09959L8.64536 4.22673L13.5615 7.09959V12.8453Z" fill="#0847F7"/>
<path d="M26.5388 14.9693C25.6915 14.9693 24.9325 14.7731 24.2639 14.3781C23.5948 13.9841 23.0667 13.4152 22.6797 12.6701C22.2927 11.9248 22.0996 11.0282 22.0996 9.97909C22.0996 8.92997 22.2951 8.01886 22.6836 7.27133C23.0731 6.52459 23.6027 5.95496 24.2743 5.56324C24.9451 5.17153 25.7002 4.97607 26.5396 4.97607C27.0851 4.97607 27.5943 5.05505 28.0624 5.21142C28.5314 5.36779 28.9484 5.59516 29.3141 5.89353C29.6798 6.19191 29.9771 6.55651 30.2079 6.98731C30.4382 7.41812 30.5872 7.90796 30.6565 8.45765H28.7529C28.7095 8.17922 28.6261 7.93031 28.5015 7.70932C28.3762 7.48993 28.2185 7.30244 28.0277 7.14767C27.8363 6.9929 27.6187 6.87562 27.3767 6.79504C27.1332 6.71446 26.8683 6.67457 26.5798 6.67457C26.0723 6.67457 25.6253 6.80302 25.2375 7.05991C24.8505 7.3168 24.5478 7.69097 24.3311 8.18321C24.1135 8.67465 24.0047 9.27457 24.0047 9.97909C24.0047 10.6835 24.1143 11.2954 24.3334 11.7853C24.5533 12.2751 24.8544 12.6445 25.2398 12.8951C25.6253 13.1455 26.0698 13.2707 26.5719 13.2707C26.8517 13.2707 27.1118 13.2325 27.3523 13.1558C27.5926 13.0801 27.8094 12.9684 28.0009 12.8224C28.1917 12.6772 28.3525 12.4985 28.4817 12.2871C28.6111 12.0757 28.7017 11.8332 28.7529 11.5595H30.6565C30.6005 12.0158 30.4665 12.4498 30.2536 12.8591C30.0408 13.2676 29.7572 13.6306 29.4016 13.9457C29.0469 14.2616 28.6292 14.5097 28.1499 14.6941C27.6699 14.8767 27.1332 14.9685 26.5404 14.9685V14.9708L26.5388 14.9693Z" fill="#0847F7"/>
<path d="M33.52 10.5895V14.8346H31.6748V5.10303H33.4688V8.80564H33.5595C33.7266 8.38357 33.9898 8.05008 34.3469 7.80597C34.7031 7.56264 35.1579 7.43977 35.7081 7.43977C36.207 7.43977 36.6446 7.54827 37.0174 7.76608C37.3917 7.98387 37.6826 8.2974 37.8884 8.70666C38.0948 9.11517 38.1974 9.61058 38.1974 10.1898V14.8329H36.345V10.5033C36.345 10.0326 36.2267 9.6664 35.9902 9.40233C35.7538 9.13909 35.4196 9.00743 34.99 9.00743C34.7016 9.00743 34.4478 9.07049 34.2287 9.19731C34.0088 9.32419 33.8361 9.50368 33.7091 9.73586C33.5822 9.96956 33.52 10.2528 33.52 10.5895Z" fill="#0847F7"/>
<path d="M41.4777 14.9794C41.0173 14.9794 40.6058 14.8964 40.2426 14.7312C39.8792 14.5652 39.5931 14.3204 39.3842 13.9964C39.1753 13.6725 39.0713 13.2704 39.0713 12.7917C39.0713 12.3833 39.1454 12.0426 39.2944 11.7722C39.4433 11.5017 39.6451 11.2839 39.9013 11.1164C40.1574 10.9489 40.4467 10.822 40.7722 10.7374C41.097 10.6529 41.4383 10.593 41.7945 10.5579C42.2162 10.5141 42.556 10.4741 42.8144 10.4375C43.073 10.4008 43.2606 10.3417 43.3788 10.2611C43.4971 10.1805 43.5562 10.0617 43.5562 9.90528V9.87261C43.5562 9.54546 43.4568 9.29184 43.2598 9.11151C43.062 8.93116 42.7798 8.84026 42.4141 8.84026C42.0271 8.84026 41.7197 8.92563 41.4911 9.09874C41.2633 9.27023 41.1112 9.47848 41.0332 9.7218L39.3164 9.53193C39.4236 9.08835 39.6191 8.71023 39.9004 8.39907C40.1818 8.08793 40.5357 7.85018 40.9614 7.68663C41.3871 7.52308 41.8711 7.44092 42.4133 7.44092C42.7877 7.44092 43.1526 7.48558 43.5073 7.57494C43.8621 7.66351 44.1821 7.80551 44.469 8.00016C44.7543 8.19403 44.9836 8.45013 45.1523 8.76767C45.3217 9.08597 45.4077 9.47286 45.4077 9.93082V14.8349H43.6405V13.8225H43.5893C43.4766 14.0395 43.3276 14.2365 43.1376 14.4113C42.9485 14.5859 42.716 14.7232 42.4408 14.8262C42.1658 14.9291 41.845 14.9801 41.4793 14.9801L41.4777 14.9794ZM41.9797 13.6469C42.2982 13.6469 42.5756 13.5832 42.8121 13.4547C43.0486 13.3263 43.2337 13.1547 43.3671 12.9394C43.5003 12.7239 43.5673 12.4854 43.5673 12.2245V11.4076C43.5073 11.4514 43.4183 11.4906 43.3032 11.5256C43.1865 11.5608 43.0557 11.5926 42.9091 11.6206C42.7633 11.6485 42.6182 11.6732 42.4764 11.6956C42.3345 11.7172 42.2075 11.7346 42.0956 11.7474C41.8505 11.7826 41.6345 11.8392 41.447 11.9165C41.2593 11.9955 41.112 12.1016 41.0047 12.2364C40.8976 12.3714 40.8432 12.5412 40.8432 12.7463C40.8432 13.0423 40.9495 13.2664 41.1624 13.4196C41.3752 13.5721 41.6471 13.6477 41.9783 13.6477L41.9797 13.6469Z" fill="#0847F7"/>
<path d="M46.6191 14.8356V7.53418H48.4644V14.8356H46.6191Z" fill="#0847F7"/>
<path d="M51.5239 10.5898V14.8349H49.6787V7.53266H51.4915V8.80597H51.5696C51.7327 8.38791 51.992 8.05602 52.3467 7.8095C52.7015 7.56297 53.1476 7.44092 53.6859 7.44092C54.1849 7.44092 54.6208 7.54942 54.992 7.76722C55.3642 7.98422 55.6525 8.29934 55.8575 8.71023C56.0617 9.12188 56.164 9.61491 56.164 10.1893V14.8325H54.3188V10.5028C54.3188 10.037 54.1998 9.67074 53.961 9.40588C53.723 9.14103 53.3944 9.007 52.9765 9.007C52.6928 9.007 52.4414 9.07005 52.2246 9.19686C52.007 9.32367 51.8368 9.50325 51.7115 9.73542C51.5862 9.96912 51.5246 10.2516 51.5246 10.5882L51.5239 10.5898Z" fill="#0847F7"/>
<path d="M59.2207 4.62451V14.8355H57.3755V4.62451H59.2207Z" fill="#0847F7"/>
<path d="M60.4336 14.8356V7.53418H62.2788V14.8356H60.4336Z" fill="#0847F7"/>
<path d="M65.3374 10.5898V14.8349H63.4922V7.53266H65.3052V8.80597H65.3832C65.5463 8.38791 65.8056 8.05602 66.1604 7.8095C66.5151 7.56297 66.9612 7.44092 67.4995 7.44092C67.9985 7.44092 68.4344 7.54942 68.8064 7.76722C69.1784 7.98422 69.467 8.29934 69.6711 8.71023C69.8752 9.12188 69.9777 9.61491 69.9777 10.1893V14.8325H68.1325V10.5028C68.1325 10.037 68.0134 9.67074 67.7746 9.40588C67.5366 9.14103 67.208 9.007 66.7902 9.007C66.5064 9.007 66.255 9.07005 66.0382 9.19686C65.8206 9.32367 65.6504 9.50325 65.5251 9.73542C65.3997 9.96912 65.3374 10.2516 65.3374 10.5882V10.5898Z" fill="#0847F7"/>
<path d="M75.7015 14.8354H77.8896L75.0087 10.6956L77.7406 7.53312H75.5991L73.1524 10.3876H73.0374V5.10303H71.1914V14.8354H73.0374V12.4515L73.6158 11.8022L75.7015 14.8354Z" fill="#0847F7"/>
<path d="M48.48 4.62451H46.6348V6.49216H48.48V4.62451Z" fill="#0847F7"/>
<path d="M62.2948 4.62451H60.4497V6.49216H62.2948V4.62451Z" fill="#0847F7"/>
</svg>
