<svg width="71" height="18" viewBox="0 0 71 18" fill="none" xmlns="http://www.w3.org/2000/svg">
<g clip-path="url(#clip0_6905_1261)">
<mask id="mask0_6905_1261" style="mask-type:luminance" maskUnits="userSpaceOnUse" x="0" y="0" width="71" height="18">
<path d="M70.4787 0H0.478271V17.9504H70.4787V0Z" fill="white"/>
</mask>
<g mask="url(#mask0_6905_1261)">
<path d="M8.15746 0L0.478271 4.48761V13.4628L8.15746 17.9504L15.8366 13.4628V4.48761L8.15746 0ZM12.5834 11.5608L8.1589 14.1464L3.73438 11.5608V6.38963L8.1589 3.80406L12.5834 6.38963V11.5608Z" fill="#0847F7"/>
<path d="M24.2629 13.4724C23.5003 13.4724 22.8172 13.2958 22.2155 12.9403C21.6133 12.5857 21.138 12.0737 20.7897 11.4031C20.4414 10.7324 20.2676 9.92542 20.2676 8.98123C20.2676 8.03703 20.4435 7.21703 20.7932 6.54425C21.1437 5.87218 21.6204 5.35952 22.2248 5.00697C22.8285 4.65443 23.5081 4.47852 24.2636 4.47852C24.7545 4.47852 25.2128 4.5496 25.6341 4.69033C26.0562 4.83106 26.4315 5.0357 26.7606 5.30423C27.0898 5.57277 27.3573 5.90091 27.5651 6.28863C27.7723 6.67636 27.9064 7.11722 27.9688 7.61194H26.2556C26.2165 7.36135 26.1414 7.13733 26.0293 6.93844C25.9165 6.74099 25.7746 6.57225 25.6029 6.43296C25.4306 6.29366 25.2348 6.18811 25.017 6.11559C24.7978 6.04307 24.5594 6.00717 24.2998 6.00717C23.843 6.00717 23.4407 6.12277 23.0917 6.35397C22.7434 6.58517 22.471 6.92193 22.2759 7.36494C22.0801 7.80724 21.9822 8.34717 21.9822 8.98123C21.9822 9.61521 22.0808 10.1659 22.278 10.6068C22.4759 11.0476 22.7469 11.3801 23.0938 11.6056C23.4407 11.831 23.8408 11.9437 24.2927 11.9437C24.5445 11.9437 24.7786 11.9093 24.995 11.8403C25.2113 11.7721 25.4064 11.6716 25.5788 11.5402C25.7505 11.4095 25.8952 11.2487 26.0115 11.0584C26.1279 10.8682 26.2095 10.6499 26.2556 10.4036H27.9688C27.9184 10.8143 27.7978 11.2049 27.6062 11.5732C27.4147 11.9409 27.1594 12.2676 26.8394 12.5512C26.5202 12.8355 26.1442 13.0588 25.7129 13.2247C25.2809 13.3891 24.7978 13.4717 24.2643 13.4717V13.4738L24.2629 13.4724Z" fill="#0847F7"/>
<path d="M30.5464 9.53057V13.3512H28.8857V4.59277H30.5003V7.92512H30.5819C30.7323 7.54526 30.9692 7.24512 31.2906 7.02542C31.6112 6.80642 32.0205 6.69584 32.5157 6.69584C32.9647 6.69584 33.3585 6.79349 33.694 6.98952C34.0309 7.18553 34.2927 7.46771 34.4779 7.83604C34.6637 8.2037 34.756 8.64957 34.756 9.17088V13.3497H33.0889V9.45306C33.0889 9.02941 32.9824 8.69981 32.7696 8.46214C32.5568 8.22523 32.256 8.10673 31.8694 8.10673C31.6098 8.10673 31.3814 8.16349 31.1842 8.27762C30.9863 8.39182 30.8309 8.55336 30.7166 8.76232C30.6024 8.97265 30.5457 9.22687 30.5457 9.52988V9.53126L30.5464 9.53057Z" fill="#0847F7"/>
<path d="M37.7078 13.4814C37.2934 13.4814 36.9231 13.4067 36.5962 13.258C36.2691 13.1086 36.0116 12.8883 35.8236 12.5967C35.6356 12.3052 35.542 11.9433 35.542 11.5125C35.542 11.1449 35.6087 10.8383 35.7428 10.5949C35.8768 10.3515 36.0584 10.1555 36.289 10.0047C36.5195 9.85393 36.7799 9.73973 37.0728 9.66359C37.3651 9.58753 37.6723 9.53368 37.9929 9.50205C38.3724 9.4626 38.6782 9.42668 38.9108 9.39367C39.1435 9.36065 39.3124 9.3075 39.4188 9.23496C39.5252 9.16242 39.5784 9.0555 39.5784 8.91471V8.8853C39.5784 8.59087 39.489 8.36261 39.3117 8.20031C39.1336 8.038 38.8797 7.95619 38.5505 7.95619C38.2022 7.95619 37.9256 8.03302 37.7198 8.18882C37.5148 8.34316 37.3779 8.53059 37.3077 8.74957L35.7626 8.57869C35.8591 8.17947 36.035 7.83916 36.2882 7.55912C36.5415 7.27909 36.86 7.06512 37.2431 6.91792C37.6262 6.77073 38.0618 6.69678 38.5498 6.69678C38.8868 6.69678 39.2152 6.73698 39.5344 6.8174C39.8537 6.89711 40.1417 7.02491 40.3999 7.2001C40.6567 7.37458 40.8631 7.60507 41.0149 7.89086C41.1674 8.17733 41.2448 8.52553 41.2448 8.93769V13.3514H39.6543V12.4402H39.6082C39.5068 12.6355 39.3727 12.8128 39.2017 12.9701C39.0315 13.1273 38.8222 13.2508 38.5746 13.3435C38.3271 13.4361 38.0383 13.482 37.7092 13.482H37.7071L37.7078 13.4814ZM38.1596 12.2822C38.4462 12.2822 38.6959 12.2248 38.9087 12.1092C39.1216 11.9936 39.2882 11.8392 39.4082 11.6454C39.5281 11.4515 39.5884 11.2368 39.5884 11.002V10.2668C39.5344 10.3062 39.4543 10.3415 39.3507 10.373C39.2457 10.4047 39.128 10.4333 38.996 10.4585C38.8648 10.4836 38.7342 10.5058 38.6066 10.526C38.4789 10.5454 38.3646 10.5611 38.2639 10.5726C38.0433 10.6043 37.8489 10.6552 37.6801 10.7248C37.5112 10.7959 37.3786 10.8914 37.2821 11.0127C37.1857 11.1342 37.1367 11.287 37.1367 11.4716C37.1367 11.738 37.2324 11.9397 37.424 12.0776C37.6155 12.2148 37.8602 12.2829 38.1583 12.2829H38.1589L38.1596 12.2822Z" fill="#0847F7"/>
<path d="M42.3359 13.352V6.78076H43.9966V13.352H42.3359Z" fill="#0847F7"/>
<path d="M46.7496 9.53077V13.3514H45.0889V6.77935H46.7204V7.92533H46.7907C46.9375 7.54907 47.1709 7.25037 47.4901 7.0285C47.8094 6.80663 48.2109 6.69678 48.6954 6.69678C49.1445 6.69678 49.5368 6.79443 49.8709 6.99045C50.2058 7.18575 50.4653 7.46936 50.6498 7.83916C50.8336 8.20965 50.9257 8.65337 50.9257 9.17032V13.3492H49.265V9.45249C49.265 9.03321 49.1579 8.70362 48.943 8.46525C48.7288 8.22688 48.433 8.10625 48.0569 8.10625C47.8016 8.10625 47.5753 8.163 47.3802 8.27713C47.1844 8.39126 47.0312 8.55288 46.9184 8.76183C46.8056 8.97216 46.7502 9.22638 46.7502 9.52932V9.53077H46.7496Z" fill="#0847F7"/>
<path d="M53.6771 4.16211V13.352H52.0164V4.16211H53.6771Z" fill="#0847F7"/>
<path d="M54.7683 13.352V6.78076H56.429V13.352H54.7683Z" fill="#0847F7"/>
<path d="M59.1819 9.53077V13.3514H57.5212V6.77935H59.1529V7.92533H59.2231C59.3699 7.54907 59.6033 7.25037 59.9226 7.0285C60.2418 6.80663 60.6433 6.69678 61.1278 6.69678C61.5769 6.69678 61.9692 6.79443 62.304 6.99045C62.6388 7.18575 62.8985 7.46936 63.0822 7.83916C63.2659 8.20965 63.3582 8.65337 63.3582 9.17032V13.3492H61.6975V9.45249C61.6975 9.03321 61.5903 8.70362 61.3754 8.46525C61.1612 8.22688 60.8654 8.10625 60.4894 8.10625C60.234 8.10625 60.0077 8.163 59.8126 8.27713C59.6168 8.39126 59.4636 8.55288 59.3508 8.76183C59.238 8.97216 59.1819 9.22638 59.1819 9.52932V9.53077Z" fill="#0847F7"/>
<path d="M68.5093 13.3519H70.4786L67.8858 9.62609L70.3445 6.77985H68.4171L66.2151 9.34889H66.1116V4.59277H64.4502V13.3519H66.1116V11.2064L66.6322 10.622L68.5093 13.3512V13.3519Z" fill="#0847F7"/>
<path d="M44.0101 4.16211H42.3494V5.84299H44.0101V4.16211Z" fill="#0847F7"/>
<path d="M56.4438 4.16211H54.7832V5.84299H56.4438V4.16211Z" fill="#0847F7"/>
</g>
</g>
<defs>
<clipPath id="clip0_6905_1261">
<rect width="70" height="18" fill="white" transform="translate(0.478271)"/>
</clipPath>
</defs>
</svg>
