<svg width="647" height="100" viewBox="0 0 647 100" fill="none" xmlns="http://www.w3.org/2000/svg">
<g clip-path="url(#clip0_24_2)">
<path d="M174.508 92.3566C168.29 92.3566 162.641 91.295 157.56 89.1718C152.556 87.0486 148.233 84.1293 144.594 80.4137C141.03 76.6223 138.262 72.1485 136.291 66.9922C134.319 61.7601 133.333 56.1109 133.333 50.0447C133.333 43.9785 134.319 38.3673 136.291 33.211C138.338 27.9789 141.144 23.4671 144.707 19.6757C148.347 15.8844 152.669 12.9271 157.674 10.8039C162.754 8.68073 168.366 7.61914 174.508 7.61914C178.982 7.61914 183.152 8.18785 187.019 9.32526C190.886 10.3869 194.299 11.9413 197.256 13.9887C201.502 16.8701 204.801 20.5099 207.151 24.9079C209.578 29.23 211.057 34.0072 211.587 39.2393H187.815C187.664 37.6469 187.209 36.1304 186.451 34.6896C185.768 33.2489 184.82 31.9598 183.607 30.8224C182.47 29.685 181.067 28.813 179.399 28.2064C177.806 27.5239 176.062 27.1827 174.166 27.1827C171.361 27.1827 168.896 27.7514 166.773 28.8888C164.726 30.0262 162.982 31.6186 161.541 33.666C160.176 35.6375 159.153 38.026 158.47 40.8317C157.788 43.6373 157.446 46.7083 157.446 50.0447C157.446 53.3811 157.826 56.4522 158.584 59.2578C159.342 62.0634 160.442 64.4899 161.882 66.5373C163.399 68.5088 165.181 70.0632 167.228 71.2007C169.351 72.3381 171.74 72.9068 174.394 72.9068C178.564 72.9068 181.863 71.6935 184.289 69.267C186.716 66.8406 188.119 63.8075 188.498 60.1677H212.497C212.118 64.7174 210.981 68.9258 209.085 72.793C207.189 76.5844 204.801 79.8829 201.919 82.6885C198.431 86.1008 194.45 88.5652 189.977 90.0817C185.579 91.5983 180.422 92.3566 174.508 92.3566Z" fill="#2FD05B"/>
<path d="M238.743 39.0117H239.084C241.283 36.5094 243.748 34.5 246.478 32.9834C249.207 31.391 252.62 30.5948 256.714 30.5948C263.463 30.5948 268.543 32.6422 271.956 36.7369C275.368 40.8316 277.074 46.2153 277.074 52.8882V90.4229H255.577V58.1203C255.577 55.0872 254.932 52.6607 253.643 50.8408C252.354 49.021 250.307 48.111 247.501 48.111C244.771 48.111 242.61 49.1726 241.018 51.2958C239.501 53.3431 238.743 55.9592 238.743 59.144V90.4229H217.246V9.09766H238.743V39.0117Z" fill="#2FD05B"/>
<path d="M304.809 41.1729H305.15C307.501 37.5332 310.079 34.955 312.885 33.4385C315.766 31.9219 319.065 31.1636 322.78 31.1636C324.373 31.1636 325.548 31.3532 326.306 31.7323V50.0447H325.851C319.482 48.9831 314.553 49.8552 311.065 52.6608C307.577 55.3906 305.833 60.054 305.833 66.651V90.423H284.336V32.4148H304.809V41.1729Z" fill="#2FD05B"/>
<path d="M360.335 92.2426C355.483 92.2426 351.085 91.4844 347.141 89.9678C343.274 88.3754 339.938 86.2143 337.132 83.4845C334.402 80.7547 332.279 77.5321 330.763 73.8165C329.246 70.0251 328.488 65.9304 328.488 61.5324C328.488 57.1344 329.246 53.0776 330.763 49.3621C332.279 45.5707 334.402 42.3101 337.132 39.5803C339.938 36.7747 343.274 34.6136 347.141 33.097C351.085 31.5047 355.483 30.7085 360.335 30.7085C365.188 30.7085 369.549 31.5047 373.416 33.097C377.359 34.6136 380.695 36.7747 383.425 39.5803C386.155 42.3101 388.24 45.5707 389.681 49.3621C391.197 53.0776 391.956 57.1344 391.956 61.5324C391.956 65.9304 391.197 70.0251 389.681 73.8165C388.24 77.5321 386.155 80.7547 383.425 83.4845C380.695 86.2143 377.359 88.3754 373.416 89.9678C369.549 91.4844 365.188 92.2426 360.335 92.2426ZM360.108 77.9112C363.444 77.9112 365.947 76.4326 367.615 73.4753C369.283 70.4422 370.117 66.4612 370.117 61.5324C370.117 56.6036 369.283 52.6606 367.615 49.7033C365.947 46.6702 363.444 45.1536 360.108 45.1536C356.772 45.1536 354.307 46.6702 352.715 49.7033C351.122 52.6606 350.326 56.6036 350.326 61.5324C350.326 66.4612 351.122 70.4422 352.715 73.4753C354.307 76.4326 356.772 77.9112 360.108 77.9112Z" fill="#2FD05B"/>
<path d="M417.773 40.3765H418.114C420.465 37.1917 423.119 34.7653 426.076 33.097C429.109 31.4288 432.673 30.5947 436.768 30.5947C443.517 30.5947 448.597 32.6421 452.009 36.7368C455.422 40.8315 457.128 46.2152 457.128 52.8881V90.4228H435.631V58.1202C435.631 55.0871 434.986 52.6606 433.697 50.8407C432.408 49.0209 430.361 48.1109 427.555 48.1109C424.825 48.1109 422.664 49.1725 421.072 51.2957C419.555 53.343 418.797 55.9591 418.797 59.1439V90.4228H397.3V32.4146H417.773V40.3765Z" fill="#2FD05B"/>
<path d="M464.389 32.4147H485.887V90.4229H464.389V32.4147ZM464.389 9.09766H485.887V25.3627H464.389V9.09766Z" fill="#2FD05B"/>
<path d="M523.061 92.2426C518.284 92.2426 513.924 91.4844 509.981 89.9678C506.114 88.3754 502.777 86.2143 499.972 83.4845C497.166 80.7547 495.005 77.5321 493.489 73.8165C491.972 70.0251 491.214 65.9304 491.214 61.5324C491.214 57.1344 491.972 53.0776 493.489 49.3621C495.005 45.5707 497.166 42.3101 499.972 39.5803C502.777 36.7747 506.114 34.6136 509.981 33.097C513.924 31.5047 518.284 30.7085 523.061 30.7085C527.156 30.7085 530.872 31.2772 534.208 32.4146C537.62 33.552 540.54 35.1444 542.966 37.1917C545.468 39.2391 547.478 41.7035 548.994 44.5849C550.511 47.3906 551.459 50.4995 551.838 53.9117H531.137C530.53 51.2578 529.583 49.2483 528.293 47.8834C527.004 46.4427 525.185 45.7224 522.834 45.7224C519.497 45.7224 517.033 47.1252 515.441 49.9308C513.848 52.7364 513.052 56.6036 513.052 61.5324C513.052 66.3854 513.886 70.2147 515.554 73.0203C517.223 75.7501 519.725 77.115 523.061 77.115C525.715 77.115 527.687 76.2809 528.976 74.6127C530.341 72.8687 531.175 70.3284 531.478 66.992H552.179C552.179 70.5559 551.459 73.8923 550.018 77.0013C548.653 80.0344 546.682 82.6883 544.104 84.9632C541.601 87.238 538.53 89.02 534.89 90.309C531.327 91.5981 527.384 92.2426 523.061 92.2426Z" fill="#2FD05B"/>
<path d="M557.138 9.09766H579.203V90.4229H557.138V9.09766Z" fill="#2FD05B"/>
<path d="M616.251 92.0151C611.474 92.0151 607.152 91.2569 603.285 89.7403C599.417 88.2238 596.081 86.1006 593.275 83.3708C590.47 80.641 588.309 77.4183 586.792 73.7028C585.276 69.9114 584.517 65.7788 584.517 61.3049C584.517 56.9069 585.276 52.8502 586.792 49.1346C588.309 45.3432 590.432 42.0826 593.162 39.3528C595.891 36.5472 599.152 34.3861 602.943 32.8696C606.735 31.2772 610.905 30.481 615.455 30.481C620.005 30.481 624.023 31.2014 627.512 32.6421C631.075 34.007 634.184 35.9027 636.838 38.3292C640.402 41.5897 643.018 45.6844 644.687 50.6132C646.355 55.542 647.113 60.8879 646.961 66.6508H605.56C606.166 70.063 607.379 72.717 609.199 74.6127C611.095 76.5084 613.673 77.4562 616.934 77.4562C620.725 77.4562 623.417 76.0155 625.009 73.1341H645.824C645.217 75.788 643.928 78.3283 641.957 80.7547C640.061 83.1812 637.672 85.3044 634.791 87.1243C632.137 88.8683 629.294 90.1195 626.26 90.8777C623.303 91.636 619.967 92.0151 616.251 92.0151ZM615.91 44.9262C612.953 44.9262 610.64 45.874 608.972 47.7697C607.304 49.5896 606.166 52.0919 605.56 55.2766H625.578C625.123 52.0161 624.023 49.4758 622.279 47.656C620.611 45.8361 618.488 44.9262 615.91 44.9262Z" fill="#2FD05B"/>
<path d="M28.5714 0L0 28.5714V71.4286H28.5714V100H71.4286L100 71.4286V35.7143H71.4286V71.4286H28.5714V28.5714H64.2857V0H28.5714Z" fill="#2FD05B"/>
</g>
<defs>
<clipPath id="clip0_24_2">
<rect width="647" height="100" fill="white"/>
</clipPath>
</defs>
</svg>
