<svg width="89" height="20" viewBox="0 0 89 20" fill="none" xmlns="http://www.w3.org/2000/svg">
<path d="M24.5738 15.4759C23.7338 15.4759 22.9708 15.3325 22.2844 15.0457C21.6084 14.7589 21.0244 14.3646 20.5329 13.8627C20.0515 13.3504 19.6776 12.7461 19.4113 12.0496C19.145 11.3428 19.0117 10.5797 19.0117 9.76029C19.0117 8.94084 19.145 8.18286 19.4113 7.48633C19.6879 6.77956 20.0669 6.1701 20.5482 5.65794C21.0398 5.1458 21.6237 4.74631 22.2998 4.4595C22.986 4.1727 23.7441 4.0293 24.5738 4.0293C25.1782 4.0293 25.7414 4.10612 26.2638 4.25977C26.7862 4.40317 27.2473 4.61315 27.6467 4.88972C28.2203 5.27895 28.6659 5.77063 28.9833 6.36472C29.3112 6.94857 29.511 7.59389 29.5826 8.30066H26.3714C26.351 8.08555 26.2895 7.88069 26.1871 7.68606C26.0948 7.49145 25.9667 7.31731 25.8029 7.16367C25.6494 7.01002 25.4599 6.89224 25.2345 6.81029C25.0193 6.71809 24.7837 6.67201 24.5276 6.67201C24.1487 6.67201 23.8157 6.74883 23.5289 6.90247C23.2524 7.05611 23.0168 7.27122 22.8222 7.5478C22.6378 7.81412 22.4996 8.13676 22.4073 8.51577C22.3153 8.89475 22.269 9.30959 22.269 9.76029C22.269 10.211 22.3204 10.6258 22.4227 11.0048C22.5252 11.3838 22.6737 11.7116 22.8682 11.9882C23.0732 12.2545 23.3139 12.4644 23.5904 12.6181C23.8772 12.7718 24.1999 12.8486 24.5584 12.8486C25.1217 12.8486 25.5673 12.6847 25.8951 12.3569C26.2229 12.0291 26.4124 11.6194 26.4637 11.1277H29.7055C29.6543 11.7423 29.5007 12.3108 29.2446 12.8332C28.9885 13.3454 28.6659 13.7909 28.2766 14.1699C27.8054 14.6309 27.2677 14.9637 26.6634 15.1687C26.0693 15.3735 25.3727 15.4759 24.5738 15.4759Z" fill="#2FD05B"/>
<path d="M33.2501 8.26989H33.2962C33.5932 7.93187 33.9262 7.66044 34.295 7.45557C34.6636 7.24046 35.1247 7.13291 35.6776 7.13291C36.5894 7.13291 37.2756 7.40947 37.7367 7.9626C38.1976 8.51573 38.428 9.24298 38.428 10.1444V15.2147H35.5241V10.8511C35.5241 10.4414 35.4369 10.1136 35.2628 9.86781C35.0888 9.62198 34.8122 9.49905 34.4331 9.49905C34.0644 9.49905 33.7725 9.64246 33.5575 9.92927C33.3525 10.2058 33.2501 10.5592 33.2501 10.9894V15.2147H30.3462V4.229H33.2501V8.26989Z" fill="#2FD05B"/>
<path d="M42.1743 8.56156H42.2203C42.5379 8.0699 42.8861 7.72163 43.2652 7.51678C43.6544 7.3119 44.1 7.20947 44.6019 7.20947C44.817 7.20947 44.9757 7.23508 45.0782 7.28629V9.75999H45.0167C44.1564 9.61659 43.4905 9.73439 43.0194 10.1134C42.5482 10.4821 42.3126 11.1121 42.3126 12.0032V15.2144H39.4087V7.37849H42.1743V8.56156Z" fill="#2FD05B"/>
<path d="M49.6756 15.4605C49.0201 15.4605 48.426 15.358 47.8933 15.1532C47.3709 14.9381 46.9202 14.6461 46.5412 14.2773C46.1724 13.9086 45.8856 13.4733 45.6808 12.9714C45.4759 12.4592 45.3735 11.9061 45.3735 11.312C45.3735 10.7179 45.4759 10.1699 45.6808 9.66798C45.8856 9.15582 46.1724 8.71537 46.5412 8.34662C46.9202 7.96763 47.3709 7.6757 47.8933 7.47084C48.426 7.25574 49.0201 7.14819 49.6756 7.14819C50.3311 7.14819 50.9202 7.25574 51.4426 7.47084C51.9752 7.6757 52.4258 7.96763 52.7946 8.34662C53.1633 8.71537 53.445 9.15582 53.6397 9.66798C53.8445 10.1699 53.9471 10.7179 53.9471 11.312C53.9471 11.9061 53.8445 12.4592 53.6397 12.9714C53.445 13.4733 53.1633 13.9086 52.7946 14.2773C52.4258 14.6461 51.9752 14.9381 51.4426 15.1532C50.9202 15.358 50.3311 15.4605 49.6756 15.4605ZM49.6449 13.5245C50.0955 13.5245 50.4336 13.3248 50.6589 12.9253C50.8842 12.5156 50.9969 11.9778 50.9969 11.312C50.9969 10.6462 50.8842 10.1136 50.6589 9.71407C50.4336 9.30435 50.0955 9.09948 49.6449 9.09948C49.1943 9.09948 48.8613 9.30435 48.6462 9.71407C48.4311 10.1136 48.3235 10.6462 48.3235 11.312C48.3235 11.9778 48.4311 12.5156 48.6462 12.9253C48.8613 13.3248 49.1943 13.5245 49.6449 13.5245Z" fill="#2FD05B"/>
<path d="M57.4345 8.45392H57.4806C57.7981 8.02371 58.1566 7.69594 58.556 7.47058C58.9658 7.24523 59.4472 7.13257 60.0004 7.13257C60.912 7.13257 61.5983 7.40913 62.0592 7.96226C62.5202 8.51539 62.7506 9.24263 62.7506 10.144V15.2144H59.8468V10.8508C59.8468 10.4411 59.7597 10.1133 59.5856 9.86746C59.4114 9.62163 59.1349 9.49871 58.7559 9.49871C58.3871 9.49871 58.0951 9.64211 57.8801 9.92892C57.6752 10.2055 57.5728 10.5589 57.5728 10.9891V15.2144H54.6689V7.3784H57.4345V8.45392Z" fill="#2FD05B"/>
<path d="M63.731 7.37874H66.635V15.2147H63.731V7.37874ZM63.731 4.229H66.635V6.42614H63.731V4.229Z" fill="#2FD05B"/>
<path d="M71.657 15.4605C71.0118 15.4605 70.4228 15.358 69.8901 15.1532C69.3678 14.9381 68.917 14.6461 68.5381 14.2773C68.1591 13.9086 67.8671 13.4733 67.6624 12.9714C67.4574 12.4592 67.355 11.9061 67.355 11.312C67.355 10.7179 67.4574 10.1699 67.6624 9.66798C67.8671 9.15582 68.1591 8.71537 68.5381 8.34662C68.917 7.96763 69.3678 7.6757 69.8901 7.47084C70.4228 7.25574 71.0118 7.14819 71.657 7.14819C72.2102 7.14819 72.7121 7.22501 73.1627 7.37865C73.6237 7.5323 74.0181 7.7474 74.3459 8.02396C74.6839 8.30053 74.9554 8.63343 75.1602 9.02266C75.3651 9.40166 75.4932 9.82163 75.5443 10.2826H72.7479C72.6659 9.92406 72.538 9.65261 72.3638 9.46823C72.1896 9.27362 71.9439 9.17631 71.6263 9.17631C71.1756 9.17631 70.8427 9.36581 70.6277 9.74481C70.4125 10.1238 70.3049 10.6462 70.3049 11.312C70.3049 11.9675 70.4176 12.4848 70.6429 12.8638C70.8684 13.2325 71.2064 13.4169 71.657 13.4169C72.0155 13.4169 72.2819 13.3043 72.456 13.0789C72.6405 12.8433 72.7531 12.5002 72.794 12.0495H75.5904C75.5904 12.5309 75.4932 12.9816 75.2984 13.4016C75.1141 13.8113 74.8478 14.1698 74.4995 14.4771C74.1615 14.7844 73.7466 15.0251 73.2549 15.1993C72.7736 15.3734 72.241 15.4605 71.657 15.4605Z" fill="#2FD05B"/>
<path d="M76.2603 4.229H79.2409V15.2147H76.2603V4.229Z" fill="#2FD05B"/>
<path d="M84.2456 15.4296C83.6004 15.4296 83.0165 15.3273 82.4942 15.1223C81.9717 14.9175 81.5211 14.6307 81.142 14.262C80.7631 13.8932 80.4712 13.4579 80.2663 12.956C80.0614 12.4438 79.959 11.8856 79.959 11.2812C79.959 10.6871 80.0614 10.1391 80.2663 9.63721C80.4712 9.12506 80.758 8.68461 81.1267 8.31586C81.4954 7.93687 81.9359 7.64494 82.448 7.44009C82.9602 7.22498 83.5235 7.11743 84.1382 7.11743C84.7527 7.11743 85.2955 7.21474 85.7669 7.40936C86.2482 7.59373 86.6681 7.84981 87.0267 8.17758C87.5081 8.61802 87.8614 9.17115 88.0869 9.83695C88.3122 10.5028 88.4146 11.2249 88.394 12.0034H82.8015C82.8834 12.4643 83.0472 12.8228 83.2931 13.0789C83.5492 13.3349 83.8975 13.463 84.3379 13.463C84.85 13.463 85.2137 13.2683 85.4287 12.8791H88.2405C88.1585 13.2377 87.9844 13.5808 87.7181 13.9086C87.462 14.2364 87.1393 14.5232 86.7501 14.769C86.3916 15.0046 86.0076 15.1736 85.5977 15.276C85.1983 15.3784 84.7476 15.4296 84.2456 15.4296ZM84.1997 9.06873C83.8002 9.06873 83.4877 9.19676 83.2624 9.45285C83.0371 9.69868 82.8834 10.0367 82.8015 10.4669H85.5056C85.4442 10.0265 85.2955 9.68331 85.0599 9.43748C84.8346 9.19165 84.5478 9.06873 84.1997 9.06873Z" fill="#2FD05B"/>
<path d="M4.85952 3L1 6.85952V12.6488H4.85952V16.5083H10.6488L14.5083 12.6488V7.82441H10.6488V12.6488H4.85952V6.85952H9.68393V3H4.85952Z" fill="#2FD05B"/>
</svg>
