<svg width="69" height="18" viewBox="0 0 69 18" fill="none" xmlns="http://www.w3.org/2000/svg">
<g clip-path="url(#clip0_6905_1278)">
<mask id="mask0_6905_1278" style="mask-type:luminance" maskUnits="userSpaceOnUse" x="0" y="0" width="69" height="18">
<path d="M68.4783 0H0V18H68.4783V0Z" fill="white"/>
</mask>
<g mask="url(#mask0_6905_1278)">
<path fill-rule="evenodd" clip-rule="evenodd" d="M6.34199 0L10.8243 6.97406L6.34199 9.56888L1.85962 6.97406L6.34199 0ZM3.23079 6.6427L6.34199 1.80439L9.45317 6.6427L6.34199 8.4431L3.23079 6.6427Z" fill="#0085FF"/>
<path d="M6.33804 11.1022L1.13802 8.09229L0.997696 8.31185C-0.602003 10.8029 -0.245177 14.0643 1.85568 16.1562C4.32939 18.6152 8.34265 18.6152 10.8204 16.1562C12.9253 14.0643 13.2821 10.8029 11.6784 8.31185L11.538 8.09229L6.33804 11.1022Z" fill="#0085FF"/>
<path d="M28.8101 13.7521H22.8965V4.24707H24.7007V12.0754H28.8101V13.7521Z" fill="#0085FF"/>
<path d="M37.8791 13.7521H36.075V4.24707H37.8791V13.7521Z" fill="#0085FF"/>
<path d="M45.1921 13.7521V4.24707H48.2831C48.7522 4.24707 49.133 4.26304 49.4217 4.299C50.1676 4.38681 50.8128 4.65027 51.3501 5.0854C51.8956 5.52053 52.3084 6.07943 52.589 6.76206C52.8738 7.4407 53.0139 8.18719 53.0139 9.00157C53.0139 9.81596 52.8738 10.5624 52.589 11.2451C52.3045 11.9237 51.8917 12.4786 51.3501 12.9138C50.8089 13.3489 50.1676 13.6124 49.4217 13.7002C49.1291 13.7361 48.7483 13.7521 48.2831 13.7521H45.1921ZM48.2831 12.0635C48.7522 12.0635 49.097 12.0395 49.3177 11.9956C49.7144 11.9157 50.0471 11.7281 50.312 11.4327C50.5804 11.1333 50.7808 10.774 50.9091 10.3509C51.0414 9.92372 51.1098 9.47263 51.1098 8.99758C51.1098 8.52254 51.0414 8.05149 50.9052 7.62434C50.7729 7.19719 50.5726 6.8379 50.2998 6.54649C50.0353 6.25509 49.7066 6.07145 49.3177 5.99957C49.097 5.95566 48.7522 5.93171 48.2831 5.93171H47.0242V12.0595H48.2831V12.0635Z" fill="#0085FF"/>
<path d="M63.8514 13.952C62.9095 13.952 62.0913 13.7484 61.3897 13.3373C60.6924 12.9221 60.1551 12.3433 59.7779 11.5928C59.4054 10.8463 59.2207 9.97999 59.2207 8.99797C59.2207 8.01591 59.4054 7.14964 59.7779 6.40315C60.1551 5.65666 60.6924 5.0778 61.3897 4.66662C62.0874 4.25145 62.9095 4.04785 63.8514 4.04785C64.7937 4.04785 65.6115 4.25544 66.3131 4.66662C67.0108 5.0778 67.5481 5.65666 67.9171 6.40315C68.2939 7.14964 68.4821 8.01591 68.4821 8.99797C68.4821 9.97999 68.2939 10.8463 67.9171 11.5928C67.5441 12.3393 67.0108 12.9221 66.3131 13.3373C65.6154 13.7484 64.7937 13.952 63.8514 13.952ZM63.9034 12.2634C64.4888 12.2634 64.978 12.1277 65.3751 11.8602C65.7719 11.5928 66.0728 11.2135 66.2693 10.7265C66.4696 10.2395 66.5659 9.66463 66.5659 9.00196C66.5659 7.97999 66.3334 7.18161 65.8643 6.60675C65.3951 6.03188 64.7056 5.74048 63.7954 5.74048C63.2101 5.74048 62.7209 5.87622 62.3241 6.14368C61.927 6.41113 61.6264 6.79039 61.43 7.2774C61.2293 7.76442 61.1334 8.33929 61.1334 9.00196C61.1334 10.0239 61.3658 10.8223 61.835 11.3972C62.3038 11.972 62.9937 12.2634 63.9034 12.2634Z" fill="#0085FF"/>
</g>
</g>
<defs>
<clipPath id="clip0_6905_1278">
<rect width="68.4783" height="18" fill="white"/>
</clipPath>
</defs>
</svg>
