<svg width="76" height="20" viewBox="0 0 76 20" fill="none" xmlns="http://www.w3.org/2000/svg">
<path d="M25.6541 13.3581L25.115 11.7101C24.9218 11.2465 24.7634 10.984 24.4492 10.8655V10.7734C25.5847 10.3539 26.2345 9.41241 26.2345 8.18593C26.2345 6.42992 24.933 5.29468 22.919 5.29468H19.0259V15.146H20.6293V11.4722H22.9321C23.2697 11.4722 23.3428 11.5287 23.4919 11.9021L24.3068 14.1556C24.6574 15.0068 24.8806 15.146 25.8989 15.146H26.4446V13.6298H26.0564C25.807 13.6298 25.7535 13.5941 25.6541 13.3571V13.3581ZM20.6302 6.79862H22.7099C23.8379 6.79862 24.5665 7.43161 24.5665 8.41072C24.5665 9.33528 23.8885 9.95699 22.8805 9.95699H20.6302V6.79862Z" fill="#AE0822"/>
<path d="M30.1128 8.07397C28.1222 8.07397 26.7842 9.53183 26.7842 11.7026C26.7842 13.8734 28.1484 15.3313 30.1785 15.3313C31.7585 15.3313 33.0374 14.4114 33.3618 13.0438L33.3759 12.9855H31.9459L31.9338 13.0147C31.6731 13.6561 31.0364 14.0389 30.231 14.0389C29.1227 14.0389 28.3801 13.3373 28.2357 12.1578H33.4678V11.7026C33.4678 9.53183 32.1195 8.07397 30.1128 8.07397ZM30.1128 9.37945C31.1593 9.37945 31.8456 10.0397 32.0022 11.1947H28.2366C28.3932 10.0407 29.0749 9.37945 30.1128 9.37945Z" fill="#AE0822"/>
<path d="M39.1368 9.20646H39.0533C38.6276 8.486 37.869 8.07404 36.9652 8.07404C36.2075 8.07404 35.5343 8.34962 35.0167 8.87163C34.3651 9.53001 34.0097 10.5355 34.0172 11.7027C34.0172 13.8396 35.2296 15.3313 36.9652 15.3313C37.9009 15.3313 38.6502 14.9156 39.0796 14.1594H39.1368V15.147H40.6483V5.29565H39.1368V9.20646ZM37.3327 13.9205C36.2694 13.9205 35.5549 13.0289 35.5549 11.7027C35.5549 10.3765 36.2694 9.49803 37.3327 9.49803C38.3961 9.49803 39.1237 10.384 39.1237 11.7027C39.1237 13.0213 38.4035 13.9205 37.3327 13.9205Z" fill="#AE0822"/>
<path d="M46.4721 9.46958L44.8565 9.24572C43.9432 9.13286 43.4407 8.67669 43.4407 7.96282C43.4407 7.0928 44.2076 6.50872 45.3497 6.50872C46.4917 6.50872 47.3104 7.13419 47.4829 8.18102L47.4894 8.22052H49.1725L49.1641 8.16691C48.8809 6.27453 47.4097 5.0979 45.3244 5.0979C43.2391 5.0979 41.7988 6.2971 41.7988 8.08133C41.7988 9.56269 42.7993 10.5437 44.5434 10.7751L46.1711 10.9989C47.1603 11.1277 47.7051 11.6159 47.7051 12.374C47.7051 13.2919 46.8659 13.9334 45.6647 13.9334C44.3483 13.9334 43.4059 13.1612 43.2034 11.9187L43.1969 11.8793H41.54L41.5485 11.9338C41.8672 13.9974 43.4932 15.3311 45.6901 15.3311C47.887 15.3311 49.3601 14.0661 49.3601 12.2555C49.3601 10.7149 48.3343 9.72541 46.4711 9.46958H46.4721Z" fill="#AE0822"/>
<path d="M52.3185 6.55957H50.8201V8.27138H49.5205V9.6032H50.8069V13.7172C50.8069 14.6925 51.2598 15.1468 52.2322 15.1468H53.8544V13.8018H52.5866C52.4038 13.8018 52.3185 13.7162 52.3185 13.5328V9.6032H53.8544V8.27138H52.3185V6.55957Z" fill="#AE0822"/>
<path d="M57.528 8.07397C55.4895 8.07397 54.1206 9.53183 54.1206 11.7026C54.1206 13.8734 55.4895 15.3313 57.528 15.3313C59.5665 15.3313 60.9223 13.8734 60.9223 11.7026C60.9223 9.53183 59.558 8.07397 57.528 8.07397ZM57.528 13.9204C56.4094 13.9204 55.6583 13.0288 55.6583 11.7026C55.6583 10.3764 56.4094 9.49797 57.528 9.49797C58.6467 9.49797 59.3846 10.384 59.3846 11.7026C59.3846 13.0212 58.6382 13.9204 57.528 13.9204Z" fill="#AE0822"/>
<path d="M65.2728 8.07397C64.3915 8.07397 63.6123 8.54143 63.1838 9.3249H63.1144V8.27149H61.6816V15.1469H63.1931V11.6368C63.1931 10.3971 63.8233 9.5638 64.7609 9.5638C65.6179 9.5638 66.1712 10.2071 66.1712 11.2022V15.1469H67.6826V10.6097C67.6826 9.09259 66.714 8.07397 65.2728 8.07397Z" fill="#AE0822"/>
<path d="M74.9999 11.7026C74.9999 9.53183 73.6515 8.07397 71.6449 8.07397C69.6384 8.07397 68.3164 9.53183 68.3164 11.7026C68.3164 13.8734 69.681 15.3313 71.7109 15.3313C73.2908 15.3313 74.5699 14.4114 74.8942 13.0438L74.9079 12.9855H73.4784L73.466 13.0147C73.2057 13.6561 72.5689 14.0389 71.7631 14.0389C70.655 14.0389 69.9125 13.3373 69.7682 12.1578H74.9999V11.7026ZM71.6463 9.37945C72.6925 9.37945 73.3788 10.0397 73.5354 11.1947H69.7696C69.9262 10.0407 70.6083 9.37945 71.6463 9.37945Z" fill="#AE0822"/>
<path d="M12.4933 3.39367L12.4792 3.37109H4.51106L0.506348 10.0001L4.49699 16.6065L4.51106 16.6291H12.4792L16.4839 10.0001L12.4933 3.39367ZM5.70469 6.29903L3.7825 9.48091H1.95783L4.78767 4.79697L5.70375 6.29903H5.70469ZM6.54858 14.131H10.4361L11.3456 15.6528H5.63906L6.54858 14.131ZM10.4464 5.80712H6.54482L5.65406 4.34738H11.3363L10.4454 5.80712H10.4464ZM6.54952 13.1547L4.62545 9.96906L6.54952 6.78341H10.4399L12.3639 9.96906L10.4399 13.1547H6.54952ZM13.2078 9.48091L11.2865 6.29996L12.2026 4.79791L15.0315 9.48091H13.2078ZM5.70657 13.6428L4.78111 15.1919L1.92127 10.4581H3.7825L5.70657 13.6428ZM15.0699 10.4572L12.2073 15.1957L11.2819 13.6466L13.2087 10.4572H15.0699Z" fill="#AE0822"/>
</svg>
