<svg width="25" height="24" viewBox="0 0 25 24" fill="none" xmlns="http://www.w3.org/2000/svg">
<path d="M12.2634 1.5C6.41343 1.5 1.76343 6.15 1.76343 12C1.76343 17.85 6.41343 22.5 12.2634 22.5C18.1134 22.5 22.7634 17.85 22.7634 12C22.7634 6.15 18.1134 1.5 12.2634 1.5ZM16.3134 17.25L12.2634 13.2L8.21343 17.25L7.01343 16.05L11.0634 12L7.01343 7.95L8.21343 6.75L12.2634 10.8L16.3134 6.75L17.5134 7.95L13.4634 12L17.5134 16.05L16.3134 17.25Z" fill="#dc2626"/>
<path d="M11.0634 12L7.01343 7.95L8.21343 6.75L12.2634 10.8L16.3134 6.75L17.5134 7.95L13.4634 12L17.5134 16.05L16.3134 17.25L12.2634 13.2L8.21343 17.25L7.01343 16.05L11.0634 12Z" fill="#FFFFFF"/>
</svg>
