<svg width="16" height="16" viewBox="0 0 16 16" fill="currentColor" xmlns="http://www.w3.org/2000/svg">
<path d="M13 10L13.7136 10.9514L11.5 13.4815L9.2864 10.9515L10 10H13ZM13.5 9H9.5L8 11L11.5 15L15 11L13.5 9Z" fill="#6A7692"/>
<path d="M8 14.0002H4V2.00017H8V5.00017C8.00077 5.26515 8.10637 5.51906 8.29374 5.70643C8.48111 5.8938 8.73502 5.99941 9 6.00017H12V7.50017H13V5.00017C13.0018 4.93446 12.9893 4.86913 12.9634 4.80871C12.9375 4.74828 12.8988 4.6942 12.85 4.65017L9.35 1.15017C9.30599 1.10134 9.2519 1.06263 9.19147 1.03674C9.13104 1.01084 9.06572 0.998364 9 1.00017H4C3.73502 1.00094 3.48111 1.10654 3.29374 1.29391C3.10637 1.48128 3.00077 1.73519 3 2.00017V14.0002C3.00077 14.2652 3.10637 14.5191 3.29374 14.7064C3.48111 14.8938 3.73502 14.9994 4 15.0002H8V14.0002ZM9 2.20017L11.8 5.00017H9V2.20017Z" fill="currentColor"/>
</svg>
