<svg width="16" height="16" viewBox="0 0 16 16" fill="currentColor" xmlns="http://www.w3.org/2000/svg">
<path d="M5.50011 3.99998L10.5001 3.99998C10.7653 3.99998 11.0197 3.89462 11.2072 3.70709C11.3947 3.51955 11.5001 3.2652 11.5001 2.99998V1.99998C11.5001 1.73477 11.3947 1.48041 11.2072 1.29287C11.0197 1.10534 10.7653 0.999981 10.5001 0.999981L5.50011 0.999981C5.23489 0.999981 4.98054 1.10534 4.793 1.29287C4.60546 1.48041 4.50011 1.73477 4.50011 1.99998V2.99998C4.50011 3.2652 4.60546 3.51955 4.793 3.70709C4.98054 3.89462 5.23489 3.99998 5.50011 3.99998ZM5.50011 1.99998L10.5001 1.99998V2.99998L5.50011 2.99998V1.99998ZM1.64661 8.85348L7.64661 14.8535C7.69301 14.8999 7.74812 14.9368 7.80878 14.9619C7.86943 14.9871 7.93445 15 8.00011 15C8.06577 15 8.13078 14.9871 8.19144 14.9619C8.25209 14.9368 8.3072 14.8999 8.35361 14.8535L14.3536 8.85348C14.4235 8.78356 14.4711 8.69447 14.4904 8.5975C14.5097 8.50052 14.4998 8.4 14.4619 8.30865C14.4241 8.2173 14.36 8.13922 14.2778 8.08428C14.1956 8.02934 14.099 8 14.0001 7.99998H11.5001V5.99998C11.4998 5.73486 11.3943 5.48068 11.2069 5.29321C11.0194 5.10574 10.7652 5.00029 10.5001 4.99998L5.50011 4.99998C5.235 5.00034 4.98085 5.10581 4.79339 5.29327C4.60594 5.48073 4.50046 5.73487 4.50011 5.99998L4.50011 7.99998L2.00011 7.99998C1.90123 8 1.80458 8.02934 1.72238 8.08428C1.64017 8.13922 1.5761 8.2173 1.53827 8.30865C1.50043 8.4 1.49053 8.50052 1.50982 8.5975C1.5291 8.69447 1.5767 8.78356 1.64661 8.85348ZM5.50011 8.99998L5.50011 5.99998L10.5001 5.99998V8.99998H12.7931L8.00011 13.7929L3.20716 8.99998L5.50011 8.99998Z" fill="currentColor"/>
</svg>
