<svg width="14" height="14" viewBox="0 0 14 14" fill="currentColor" xmlns="http://www.w3.org/2000/svg">
<path d="M5.07893 13.0902C4.9894 13.0524 4.915 12.9858 4.86747 12.9011C4.81994 12.8163 4.80198 12.7181 4.81643 12.622L5.61268 7.43766H3.49956C3.43257 7.43946 3.36606 7.42585 3.30516 7.39787C3.24426 7.36989 3.1906 7.3283 3.14833 7.2763C3.10605 7.2243 3.07629 7.16329 3.06133 7.09796C3.04637 7.03263 3.04662 6.96475 3.06206 6.89953L4.37456 1.21203C4.39765 1.11415 4.45377 1.02721 4.53345 0.965856C4.61314 0.904499 4.71153 0.872469 4.81206 0.875156H9.18706C9.25242 0.874934 9.317 0.889359 9.37605 0.917372C9.43511 0.945384 9.48713 0.986272 9.52831 1.03703C9.57007 1.08836 9.59964 1.1485 9.61479 1.21291C9.62995 1.27733 9.6303 1.34434 9.61581 1.40891L8.85893 4.81266H10.9371C11.0191 4.81249 11.0994 4.83537 11.1691 4.87869C11.2387 4.92201 11.2947 4.98402 11.3308 5.05766C11.3622 5.12833 11.3742 5.20605 11.3658 5.2829C11.3573 5.35975 11.3286 5.43299 11.2827 5.49516L5.59518 12.9327C5.55675 12.9896 5.50542 13.0368 5.44537 13.0702C5.38532 13.1036 5.31824 13.1225 5.24956 13.1252C5.19102 13.1241 5.13318 13.1122 5.07893 13.0902Z"/>
</svg>
