<svg width="20" height="20" viewBox="0 0 20 20" fill="none" xmlns="http://www.w3.org/2000/svg">
<path d="M16.25 6.25H14.5239C14.9307 5.64873 15.0885 4.91314 14.9641 4.19793C14.8397 3.48272 14.4427 2.84364 13.8567 2.4151C13.2708 1.98657 12.5414 1.80198 11.8221 1.90017C11.1029 1.99835 10.4497 2.37165 10 2.94156C9.54932 2.37447 8.89671 2.00375 8.17884 1.90703C7.46096 1.81032 6.73351 1.9951 6.14882 2.4227C5.56413 2.85029 5.16756 3.48752 5.04215 4.20095C4.91675 4.91437 5.07224 5.64864 5.47606 6.25H3.75C3.41861 6.25041 3.1009 6.38224 2.86657 6.61657C2.63224 6.8509 2.50041 7.1686 2.5 7.5V10C2.50041 10.3314 2.63224 10.6491 2.86657 10.8834C3.1009 11.1178 3.41861 11.2496 3.75 11.25V17.5C3.75041 17.8314 3.88224 18.1491 4.11657 18.3834C4.3509 18.6178 4.66861 18.7496 5 18.75H15C15.3314 18.7496 15.6491 18.6178 15.8834 18.3834C16.1178 18.1491 16.2496 17.8314 16.25 17.5V11.25C16.5814 11.2496 16.8991 11.1178 17.1334 10.8834C17.3678 10.6491 17.4996 10.3314 17.5 10V7.5C17.4996 7.1686 17.3678 6.8509 17.1334 6.61657C16.8991 6.38224 16.5814 6.25041 16.25 6.25ZM10.625 4.6875C10.625 4.37846 10.7166 4.07637 10.8883 3.81942C11.06 3.56246 11.304 3.3622 11.5896 3.24393C11.8751 3.12567 12.1892 3.09473 12.4923 3.15502C12.7954 3.21531 13.0738 3.36412 13.2924 3.58264C13.5109 3.80116 13.6597 4.07957 13.72 4.38267C13.7803 4.68576 13.7493 4.99993 13.6311 5.28544C13.5128 5.57095 13.3125 5.81498 13.0556 5.98667C12.7986 6.15836 12.4965 6.25 12.1875 6.25H10.625V4.6875ZM7.8125 3.125C8.22675 3.12549 8.62389 3.29027 8.91681 3.58319C9.20973 3.87611 9.3745 4.27325 9.375 4.6875V6.25H7.8125C7.3981 6.25 7.00067 6.08538 6.70765 5.79235C6.41462 5.49932 6.25 5.1019 6.25 4.6875C6.25 4.27309 6.41462 3.87567 6.70765 3.58264C7.00067 3.28962 7.3981 3.125 7.8125 3.125ZM3.75 7.5H9.375V10H3.75V7.5ZM5 11.25H9.375V17.5H5V11.25ZM15.0008 17.5H10.625V11.25H15L15.0008 17.5ZM10.625 10V7.5H16.25L16.2508 10H10.625Z" fill="#6A7692"/>
</svg>
