<svg width="24" height="24" viewBox="0 0 24 24" fill="none" xmlns="http://www.w3.org/2000/svg">
<path opacity="0.1" d="M12 24C18.6274 24 24 18.6274 24 12C24 5.37258 18.6274 0 12 0C5.37258 0 0 5.37258 0 12C0 18.6274 5.37258 24 12 24Z" fill="url(#paint0_linear_6886_2680)"/>
<path d="M12 9.33338V18M12 9.33338C11.7589 8.33965 11.3436 7.49009 10.8085 6.89549C10.2734 6.30089 9.64312 5.98884 9 6.00005C8.55797 6.00005 8.13405 6.17564 7.82149 6.4882C7.50893 6.80076 7.33333 7.22469 7.33333 7.66671C7.33333 8.10874 7.50893 8.53266 7.82149 8.84523C8.13405 9.15779 8.55797 9.33338 9 9.33338M12 9.33338C12.2411 8.33965 12.6564 7.49009 13.1915 6.89549C13.7267 6.30089 14.3569 5.98884 15 6.00005C15.442 6.00005 15.866 6.17564 16.1785 6.4882C16.4911 6.80076 16.6667 7.22469 16.6667 7.66671C16.6667 8.10874 16.4911 8.53266 16.1785 8.84523C15.866 9.15779 15.442 9.33338 15 9.33338M16.6667 12V16.6667C16.6667 17.0203 16.5262 17.3595 16.2761 17.6095C16.0261 17.8596 15.687 18 15.3333 18H8.66667C8.31304 18 7.97391 17.8596 7.72386 17.6095C7.47381 17.3595 7.33333 17.0203 7.33333 16.6667V12M6.66667 9.33338H17.3333C17.7015 9.33338 18 9.63186 18 10V11.3334C18 11.7016 17.7015 12 17.3333 12H6.66667C6.29848 12 6 11.7016 6 11.3334V10C6 9.63186 6.29848 9.33338 6.66667 9.33338Z" stroke="url(#paint1_linear_6886_2680)" stroke-width="1.33" stroke-linecap="round" stroke-linejoin="round"/>
<defs>
<linearGradient id="paint0_linear_6886_2680" x1="25.6232" y1="10.5778" x2="-0.808386" y2="10.1242" gradientUnits="userSpaceOnUse">
<stop stop-color="#FFCD4D"/>
<stop offset="1" stop-color="#FA43BD"/>
</linearGradient>
<linearGradient id="paint1_linear_6886_2680" x1="3.51724" y1="2.83301" x2="19.0375" y2="6.98844" gradientUnits="userSpaceOnUse">
<stop stop-color="#FFC555"/>
<stop offset="1" stop-color="#FB4AB9"/>
</linearGradient>
</defs>
</svg>
