<svg width="31" height="30" viewBox="0 0 31 30" fill="none" xmlns="http://www.w3.org/2000/svg">
<path d="M2.55772 9.04193C1.44137 8.46633 0.00492237 8.93149 0 10.1875V10.1875L0 19.9475C0.0173713 20.8853 0.294374 21.8004 0.800796 22.593C1.30722 23.3856 2.02361 24.0252 2.87184 24.442L12.2114 29.319V29.319C13.4455 29.9616 14.6669 28.8247 14.6669 27.4334V20.5723C14.6669 17.3256 12.8538 14.3508 9.96809 12.8628L2.55772 9.04193Z" fill="url(#paint0_linear_767_1453)"/>
<path d="M26.5135 8.09986C27.6515 7.49925 27.9854 5.9779 26.8468 5.37834V5.37834L18.0412 0.669724C17.2047 0.229703 16.2761 0 15.3336 0C14.3911 0 13.4624 0.229703 12.6259 0.669724L3.82028 5.37834V5.37834C2.68442 5.98014 3.01639 7.49967 4.15321 8.09964L11.285 11.8635C13.8184 13.2006 16.8487 13.2006 19.3821 11.8635L26.5135 8.09986Z" fill="url(#paint1_linear_767_1453)"/>
<path d="M20.6997 12.8628C17.8141 14.3508 16.001 17.3256 16.001 20.5723V27.4384C16.001 28.8265 17.2202 29.9601 18.4515 29.319V29.319L27.7949 24.442C28.6434 24.0252 29.3601 23.3856 29.8668 22.593C30.3734 21.8004 30.6505 20.8853 30.6679 19.9475V10.1875V10.1875C30.663 8.93139 29.2263 8.46632 28.1099 9.04198L20.6997 12.8628Z" fill="url(#paint2_linear_767_1453)"/>
<defs>
<linearGradient id="paint0_linear_767_1453" x1="7.33346" y1="8" x2="4.79105" y2="31.6613" gradientUnits="userSpaceOnUse">
<stop stop-color="#6630D6"/>
<stop offset="1" stop-color="#FF8C39"/>
</linearGradient>
<linearGradient id="paint1_linear_767_1453" x1="15.3336" y1="-4.23628e-07" x2="14.7616" y2="15.2095" gradientUnits="userSpaceOnUse">
<stop stop-color="#6630D6"/>
<stop offset="1" stop-color="#FF8C39"/>
</linearGradient>
<linearGradient id="paint2_linear_767_1453" x1="23.3344" y1="8" x2="20.792" y2="31.6613" gradientUnits="userSpaceOnUse">
<stop stop-color="#6630D6"/>
<stop offset="1" stop-color="#FF8C39"/>
</linearGradient>
</defs>
</svg>
