<svg width="10" height="12" viewBox="0 0 10 12" fill="none" xmlns="http://www.w3.org/2000/svg">
<g clip-path="url(#clip0_3861_49529)">
<path d="M4.58174 7.52454L1.4296 8.25426C1.31462 8.28306 1.22839 8.39828 1.22839 8.5135V10.6835C1.22839 10.8659 1.37211 10.9811 1.55415 10.9427L5.95181 9.92492C6.13385 9.88658 6.2105 9.71369 6.13385 9.55053L5.33863 7.9086C5.21408 7.64935 5.33863 7.38051 5.61648 7.3229L8.49076 6.63157C8.69196 6.58357 8.86439 6.37233 8.86439 6.16109V4.15435C8.86439 3.97191 8.72071 3.84709 8.53867 3.8951L4.39011 4.88407C4.13143 4.94168 4.01645 5.19133 4.13143 5.43136L4.85958 6.93883C4.98413 7.19807 4.85958 7.45732 4.58174 7.52454Z" fill="black"/>
<path d="M2.50284 2.0972L3.3268 3.78709C3.4322 4.00792 3.3268 4.23837 3.08728 4.28638L1.56391 4.64163C1.37228 4.68964 1.21899 4.88168 1.21899 5.07371V6.88843C1.21899 7.19569 1.4681 7.38772 1.76511 7.32051L3.18309 6.99405C3.3747 6.95564 3.528 6.75401 3.528 6.56198L3.53758 4.69925C3.53758 4.44 3.74836 4.18076 3.99747 4.12314L8.64424 3.00935C8.75921 2.98055 8.8454 2.86533 8.8454 2.75011V0.580127C8.8454 0.397695 8.70172 0.272873 8.51969 0.320881L2.68488 1.72272C2.50284 1.76113 2.4262 1.93397 2.50284 2.0972Z" fill="black"/>
</g>
<defs>
<clipPath id="clip0_3861_49529">
<rect width="10" height="11.0526" fill="white" transform="translate(0 0.310547)"/>
</clipPath>
</defs>
</svg>
