<svg width="24" height="24" viewBox="0 0 24 24" fill="none" xmlns="http://www.w3.org/2000/svg">
<g id="global / icons / link">
<path id="Vector" d="M21.9378 5.06989C21.5197 4.65037 21.023 4.3175 20.476 4.09038C19.929 3.86325 19.3426 3.74634 18.7503 3.74634C18.158 3.74634 17.5716 3.86325 17.0246 4.09038C16.4776 4.3175 15.9809 4.65037 15.5628 5.06989L16.6278 6.13489C16.907 5.85566 17.2385 5.63417 17.6033 5.48306C17.9682 5.33194 18.3592 5.25416 18.7541 5.25416C19.1489 5.25416 19.54 5.33194 19.9048 5.48306C20.2696 5.63417 20.6011 5.85566 20.8803 6.13489C21.1595 6.41411 21.381 6.7456 21.5321 7.11042C21.6833 7.47524 21.761 7.86626 21.761 8.26114C21.761 8.65602 21.6833 9.04703 21.5321 9.41185C21.381 9.77668 21.1595 10.1082 20.8803 10.3874L14.8803 16.3874C14.3174 16.9513 13.5535 17.2685 12.7567 17.2692C11.9599 17.2699 11.1955 16.9541 10.6316 16.3911C10.0676 15.8282 9.75044 15.0643 9.74974 14.2675C9.74903 13.4707 10.0649 12.7063 10.6278 12.1424L11.6853 11.0774L10.6278 10.0124L9.56281 11.0774C9.14329 11.4955 8.81042 11.9922 8.5833 12.5392C8.35617 13.0862 8.23926 13.6726 8.23926 14.2649C8.23926 14.8572 8.35617 15.4436 8.5833 15.9906C8.81042 16.5376 9.14329 17.0343 9.56281 17.4524C10.4114 18.2901 11.5579 18.7568 12.7503 18.7499C13.3448 18.7523 13.934 18.6369 14.4837 18.4104C15.0333 18.1838 15.5327 17.8506 15.9528 17.4299L21.9528 11.4299C22.7935 10.5841 23.2642 9.43929 23.2614 8.24678C23.2585 7.05428 22.7825 5.91165 21.9378 5.06989Z" fill="rgba(255,255,255,.5)"/>
<path id="Vector_2" d="M3.1425 18.6151C2.86244 18.3364 2.64022 18.005 2.48858 17.6401C2.33694 17.2752 2.25888 16.884 2.25888 16.4889C2.25888 16.0937 2.33694 15.7025 2.48858 15.3376C2.64022 14.9727 2.86244 14.6414 3.1425 14.3626L9.1425 8.36261C9.42126 8.08256 9.75259 7.86033 10.1175 7.70869C10.4824 7.55705 10.8736 7.47899 11.2687 7.47899C11.6639 7.47899 12.0551 7.55705 12.42 7.70869C12.7849 7.86033 13.1162 8.08256 13.395 8.36261C13.6733 8.64356 13.8924 8.97751 14.0392 9.34467C14.1861 9.71184 14.2578 10.1047 14.25 10.5001C14.2523 10.8967 14.1759 11.2898 14.0253 11.6567C13.8747 12.0236 13.6528 12.357 13.3725 12.6376L11.7825 14.2501L12.8475 15.3151L14.4375 13.7251C15.2839 12.8787 15.7594 11.7308 15.7594 10.5339C15.7594 9.33691 15.2839 8.18898 14.4375 7.34261C13.5911 6.49624 12.4432 6.02075 11.2463 6.02075C10.0493 6.02075 8.90137 6.49624 8.055 7.34261L2.055 13.3426C1.63435 13.7608 1.30053 14.258 1.07274 14.8057C0.844952 15.3534 0.727684 15.9407 0.727684 16.5339C0.727684 17.127 0.844952 17.7143 1.07274 18.262C1.30053 18.8097 1.63435 19.3069 2.055 19.7251C2.90912 20.5565 4.05817 21.015 5.25 21.0001C6.45233 21.0013 7.60629 20.5267 8.46 19.6801L7.395 18.6151C7.11624 18.8952 6.78491 19.1174 6.42002 19.269C6.05514 19.4207 5.66389 19.4987 5.26875 19.4987C4.87361 19.4987 4.48236 19.4207 4.11748 19.269C3.75259 19.1174 3.42126 18.8952 3.1425 18.6151Z" fill="rgba(255,255,255,.5)"/>
</g>
</svg>
