<svg width="20" height="20" viewBox="0 0 20 20" fill="none" xmlns="http://www.w3.org/2000/svg">
<circle cx="10" cy="10" r="10" fill="#EBEFFD"/>
<path d="M15.8689 13.5008L8.25023 5.88214C8.08358 5.72301 7.86201 5.63422 7.63158 5.63422C7.40116 5.63422 7.17959 5.72301 7.01294 5.88214L5.88156 7.01351C5.71774 7.17772 5.62573 7.40021 5.62573 7.63216C5.62573 7.86411 5.71774 8.0866 5.88156 8.25081L13.4998 15.8695C13.664 16.0333 13.8865 16.1253 14.1184 16.1253C14.3504 16.1253 14.5729 16.0333 14.7371 15.8695L15.8689 14.7379C15.9502 14.6567 16.0146 14.5602 16.0586 14.4541C16.1026 14.3479 16.1252 14.2341 16.1252 14.1192C16.1252 14.0043 16.1026 13.8906 16.0586 13.7844C16.0146 13.6783 15.9502 13.5818 15.8689 13.5006V13.5008ZM6.50023 7.63214L7.63156 6.50081L9.81906 8.68831L8.68743 9.82008L6.49993 7.63258L6.50023 7.63214ZM14.1185 15.2508L9.30596 10.4387L10.4377 9.30698L15.2502 14.1195L14.1185 15.2508Z" fill="#3F66EF"/>
<path d="M3.87524 10.0001L4.75011 9.12525L5.62498 10.0001L4.75011 10.875L3.87524 10.0001Z" fill="#3F66EF"/>
<path d="M9.12524 4.75012L10.0001 3.87525L10.875 4.75012L10.0001 5.62499L9.12524 4.75012Z" fill="#3F66EF"/>
<path d="M3.87524 4.75012L4.75011 3.87525L5.62498 4.75012L4.75011 5.62499L3.87524 4.75012Z" fill="#3F66EF"/>
</svg>
