<svg width="14" height="14" viewBox="0 0 14 14" fill="currentColor" xmlns="http://www.w3.org/2000/svg">
<path d="M12.8687 10.5009L5.25008 2.8822C5.08342 2.72307 4.86186 2.63428 4.63143 2.63428C4.40101 2.63428 4.17944 2.72307 4.01279 2.8822L2.88141 4.01357C2.71758 4.17778 2.62558 4.40027 2.62558 4.63222C2.62558 4.86418 2.71758 5.08666 2.88141 5.25087L10.4996 12.8695C10.6639 13.0333 10.8863 13.1253 11.1183 13.1253C11.3502 13.1253 11.5727 13.0333 11.7369 12.8695L12.8687 11.7379C12.95 11.6567 13.0145 11.5603 13.0585 11.4541C13.1024 11.348 13.1251 11.2342 13.1251 11.1193C13.1251 11.0044 13.1024 10.8906 13.0585 10.7845C13.0145 10.6783 12.95 10.5819 12.8687 10.5006V10.5009ZM3.50008 4.6322L4.63141 3.50087L6.81891 5.68837L5.68727 6.82014L3.49977 4.63264L3.50008 4.6322ZM11.1183 12.2509L6.30581 7.43881L7.43758 6.30704L12.2501 11.1195L11.1183 12.2509Z"/>
<path d="M0.875 7L1.74987 6.12513L2.62474 7L1.74987 7.87487L0.875 7Z"/>
<path d="M6.125 1.75L6.99987 0.875132L7.87474 1.75L6.99987 2.62487L6.125 1.75Z"/>
<path d="M0.875 1.75L1.74987 0.875132L2.62474 1.75L1.74987 2.62487L0.875 1.75Z"/>
</svg>
