<svg width="16" height="16" viewBox="0 0 16 16" fill="none" xmlns="http://www.w3.org/2000/svg">
<g clip-path="url(#clip0_4891_160573)">
<path d="M8 16C12.4183 16 16 12.4183 16 8C16 3.58172 12.4183 0 8 0C3.58172 0 0 3.58172 0 8C0 12.4183 3.58172 16 8 16Z" fill="url(#paint0_linear_4891_160573)"/>
<path d="M4.06232 10.4009V6.63552L6.91779 8.78459V10.4009H7.64658V8.63285C7.64645 8.56716 7.63109 8.50239 7.60171 8.44362C7.57233 8.38486 7.52973 8.33371 7.47725 8.29419L4.01432 5.68699C3.95098 5.63994 3.87584 5.61138 3.79724 5.60448C3.71864 5.59758 3.63967 5.6126 3.5691 5.64789C3.49853 5.68317 3.43913 5.73733 3.39749 5.80435C3.35586 5.87137 3.33362 5.94862 3.33325 6.02752V10.4009H4.06232ZM11.9594 10.4009V6.63552L9.10392 8.78459V10.4009H8.37512V8.63285C8.37525 8.56716 8.39061 8.50239 8.41999 8.44362C8.44937 8.38486 8.49197 8.33371 8.54445 8.29419L12.0074 5.68805C12.0707 5.64106 12.1457 5.61251 12.2242 5.60557C12.3027 5.59862 12.3816 5.61356 12.4521 5.64871C12.5227 5.68387 12.5821 5.73787 12.6238 5.80474C12.6655 5.8716 12.6879 5.94871 12.6885 6.02752V10.4009H11.9594Z" fill="white"/>
</g>
<defs>
<linearGradient id="paint0_linear_4891_160573" x1="8" y1="0" x2="8" y2="16" gradientUnits="userSpaceOnUse">
<stop stop-color="#4FA89B"/>
<stop offset="1" stop-color="#6ACEBB"/>
</linearGradient>
<clipPath id="clip0_4891_160573">
<rect width="16" height="16" fill="white"/>
</clipPath>
</defs>
</svg>
