<svg width="20" height="21" viewBox="0 0 20 21" fill="none" xmlns="http://www.w3.org/2000/svg">
<path d="M4.55493 15.0576L9.55329 10.0593L10.4372 10.9431L5.43882 15.9415L4.55493 15.0576Z" fill="#6DC275"/>
<path d="M10.6254 19.25C10.5462 19.2502 10.4677 19.2354 10.3941 19.2063C10.2917 19.1655 10.202 19.0983 10.1339 19.0116C10.0658 18.9249 10.0219 18.8217 10.0066 18.7125L9.38163 14.3375L10.6316 14.1625L11.1004 17.4563L13.1254 15.825V11.125C13.1249 11.0428 13.1407 10.9612 13.1718 10.8851C13.2029 10.8089 13.2487 10.7397 13.3066 10.6813L15.8504 8.13754C16.3745 7.61695 16.7902 6.99758 17.0735 6.31528C17.3567 5.63298 17.5018 4.90129 17.5004 4.16254V3.00004H16.3379C15.5991 2.99863 14.8674 3.14374 14.1851 3.42696C13.5028 3.71018 12.8835 4.12589 12.3629 4.65004L9.81913 7.19379C9.76073 7.25171 9.69147 7.29754 9.61532 7.32865C9.53917 7.35975 9.45763 7.37551 9.37538 7.37504H4.67538L3.04413 9.41254L6.33788 9.88129L6.16288 11.1313L1.78788 10.5063C1.67872 10.491 1.57555 10.4471 1.48883 10.379C1.40212 10.311 1.33494 10.2212 1.29413 10.1188C1.2528 10.0157 1.2397 9.90342 1.25618 9.79357C1.27266 9.68371 1.31812 9.58024 1.38788 9.49379L3.88788 6.36879C3.94545 6.29398 4.01922 6.23319 4.10366 6.19097C4.18809 6.14876 4.28099 6.12621 4.37538 6.12504H9.11913L11.4754 3.76254C12.1124 3.12198 12.8702 2.61425 13.7049 2.26878C14.5395 1.92332 15.4345 1.747 16.3379 1.75004H17.5004C17.8319 1.75004 18.1498 1.88173 18.3843 2.11616C18.6187 2.35058 18.7504 2.66852 18.7504 3.00004V4.16254C18.7534 5.06589 18.5771 5.96087 18.2316 6.79556C17.8862 7.63025 17.3784 8.38806 16.7379 9.02504L14.3754 11.3813V16.125C14.3749 16.2189 14.3534 16.3115 14.3123 16.3959C14.2711 16.4803 14.2115 16.5543 14.1379 16.6125L11.0129 19.1125C10.9029 19.2008 10.7664 19.2492 10.6254 19.25Z" fill="#6DC275"/>
</svg>
