<svg width="10" height="10" viewBox="0 0 10 10" fill="none" xmlns="http://www.w3.org/2000/svg">
<path d="M6.19416 5.61765H9.73349C9.87121 5.61765 9.91205 5.43009 9.78681 5.37281L6.19352 3.72939L6.19352 0.128422C6.19352 -0.00576997 6.0135 -0.0498007 5.95158 0.0692454L4.46004 2.93674L2.79457 2.17796C2.68398 2.12758 2.57189 2.24502 2.62735 2.35317L3.66797 4.38235L0.128503 4.38235C-0.00920611 4.38235 -0.0500559 4.56989 0.0751746 4.62718L3.66862 6.2711L3.66862 9.87158C3.66862 10.0058 3.84863 10.0498 3.91055 9.93075L5.40196 7.0635L7.06478 7.82364C7.1753 7.87416 7.28754 7.75688 7.23223 7.64866L6.19416 5.61765Z" fill="url(#paint0_linear_6022_1414)"/>
<defs>
<linearGradient id="paint0_linear_6022_1414" x1="10.5289" y1="4.40741" x2="-0.332136" y2="4.22359" gradientUnits="userSpaceOnUse">
<stop stop-color="#FFCD4D"/>
<stop offset="1" stop-color="#FA43BD"/>
</linearGradient>
</defs>
</svg>
