<svg width="18" height="18" viewBox="0 0 18 18" fill="none" xmlns="http://www.w3.org/2000/svg">
<path d="M12.0458 6.75H15.75V5.625H13.1708L15.7503 3.04571L14.9548 2.25L12.375 4.83013V2.25H11.25V5.95513L10.455 6.75H9.5625V4.5H8.4375V6.75H7.54498L6.75 5.95513V2.25H5.625V4.83013L3.04515 2.25L2.25 3.04571L4.82918 5.625H2.25V6.75H5.95418L6.75 7.54594V8.4375H4.5V9.5625H6.75V10.4551L5.95502 11.25H2.25V12.375H4.83002L2.25 14.9548L3.04543 15.7503L5.625 13.1709V15.75H6.75V12.0459L7.54583 11.25H8.4375V13.5H9.5625V11.25H10.4542L11.25 12.0459V15.75H12.375V13.1709L14.9543 15.7503L15.75 14.9548L13.17 12.375H15.75V11.25H12.045L11.25 10.4551V9.5625H13.5V8.4375H11.25V7.54594L12.0458 6.75ZM10.125 10.125H7.875V7.875H10.125V10.125Z" fill="#3F66EF"/>
</svg>
