<svg width="15" height="18" viewBox="-1.5 0 18 18" fill="none" xmlns="http://www.w3.org/2000/svg">
<path d="M6.3965 17.9441L0.0411792 10.8025C-0.0779831 10.6689 0.0836393 10.4757 0.243892 10.5604L4.5173 12.8003C4.71864 12.9061 4.87478 13.0794 4.95422 13.2871L6.67454 17.7853C6.73755 17.9507 6.51566 18.0777 6.3965 17.9441Z" fill="url(#paint0_linear_2723_56165)"/>
<path d="M7.31418 16.3022L5.56099 7.9303C5.53497 7.80594 5.56099 7.67496 5.63085 7.5678L8.69071 2.94259C8.75235 2.84998 8.90164 2.89893 8.89069 3.01006L7.52922 16.2917C7.5169 16.412 7.33884 16.42 7.31418 16.3022Z" fill="url(#paint1_linear_2723_56165)"/>
<path d="M8.83179 13.8362L12.1957 9.10909C12.3108 8.94769 12.5108 8.86434 12.7121 8.89344L14.8639 9.20832C15.0022 9.22816 15.0488 9.39883 14.9392 9.48218L9.00026 13.9896C8.89479 14.069 8.75646 13.9433 8.83179 13.8375V13.8362Z" fill="url(#paint2_linear_2723_56165)"/>
<path d="M9.33446 10.5948L11.0548 0.0888821C11.0726 -0.0196039 11.2287 -0.0328338 11.2657 0.0716831L12.7915 4.36349C12.8367 4.49182 12.8258 4.63206 12.76 4.75245L9.53854 10.661C9.48102 10.7655 9.31529 10.7126 9.33446 10.5961V10.5948Z" fill="url(#paint3_linear_2723_56165)"/>
<path d="M1.9601 8.52168L2.34498 5.8823C2.36142 5.77381 2.51482 5.75397 2.56002 5.85451L4.93368 11.1981C4.98162 11.3066 4.84191 11.4005 4.75288 11.3198L2.10392 8.91858C1.9916 8.81671 1.93682 8.66721 1.95873 8.52036L1.9601 8.52168Z" fill="url(#paint4_linear_2723_56165)"/>
<defs>
<linearGradient id="paint0_linear_2723_56165" x1="-3.01468" y1="-25.3857" x2="11.6324" y2="19.0931" gradientUnits="userSpaceOnUse">
<stop stop-color="#FF8E00"/>
<stop offset="1" stop-color="#F2A52B"/>
</linearGradient>
<linearGradient id="paint1_linear_2723_56165" x1="5.51387" y1="-5.67135" x2="5.96424" y2="19.2067" gradientUnits="userSpaceOnUse">
<stop stop-color="#FF8E00"/>
<stop offset="1" stop-color="#F2A52B"/>
</linearGradient>
<linearGradient id="paint2_linear_2723_56165" x1="4.53275" y1="-23.9372" x2="12.2574" y2="20.762" gradientUnits="userSpaceOnUse">
<stop stop-color="#FF8E00"/>
<stop offset="1" stop-color="#F2A52B"/>
</linearGradient>
<linearGradient id="paint3_linear_2723_56165" x1="4.02101" y1="-0.781771" x2="5.16277" y2="30.3273" gradientUnits="userSpaceOnUse">
<stop stop-color="#FF8E00"/>
<stop offset="1" stop-color="#F2A52B"/>
</linearGradient>
<linearGradient id="paint4_linear_2723_56165" x1="0.147755" y1="2.9855" x2="7.17481" y2="18.2447" gradientUnits="userSpaceOnUse">
<stop stop-color="#FF8E00"/>
<stop offset="1" stop-color="#F2A52B"/>
</linearGradient>
</defs>
</svg>
