<svg width="129" height="44" viewBox="0 0 129 44" fill="none" xmlns="http://www.w3.org/2000/svg">
<g id="website/logos">
<g id="Vector">
<path d="M40.8974 34.0985C39.6514 33.7244 38.6587 33.2151 37.922 32.5849L39.0356 30.0786C39.7464 30.6426 40.6183 31.0972 41.6628 31.4598C42.6958 31.8224 43.7404 31.995 44.7849 31.995C46.0712 31.995 47.038 31.7936 47.6797 31.3792C48.3214 30.9649 48.6322 30.4153 48.6322 29.7448C48.6322 29.2499 48.4566 28.8326 48.097 28.5103C47.7344 28.1881 47.2941 27.9348 46.7445 27.7478C46.1949 27.5608 45.4583 27.3593 44.5058 27.132C43.1793 26.8241 42.1059 26.5018 41.2887 26.1939C40.4715 25.886 39.7608 25.3911 39.1709 24.7206C38.581 24.0502 38.2875 23.138 38.2875 21.9985C38.2875 21.0345 38.5407 20.1626 39.0644 19.3713C39.5881 18.58 40.3766 17.9642 41.424 17.4952C42.4829 17.0261 43.7692 16.7988 45.2827 16.7988C46.3417 16.7988 47.3862 16.9341 48.4192 17.2017C49.4523 17.4693 50.3357 17.8462 51.0723 18.3412L50.0537 20.8475C49.2911 20.4044 48.4998 20.0562 47.6682 19.8288C46.8366 19.6015 46.0338 19.4807 45.2568 19.4807C43.985 19.4807 43.0325 19.6965 42.4167 20.1252C41.8009 20.554 41.4786 21.1295 41.4786 21.8402C41.4786 22.3352 41.6542 22.738 42.0139 23.0603C42.3736 23.3826 42.8167 23.6243 43.3663 23.8113C43.9159 23.9984 44.6526 24.1998 45.605 24.4271C46.8913 24.7206 47.9646 25.0314 48.7818 25.3652C49.6134 25.6875 50.3242 26.1824 50.914 26.8385C51.5039 27.4946 51.7974 28.3924 51.7974 29.5203C51.7974 30.4843 51.5442 31.3562 51.0205 32.1331C50.4968 32.9101 49.7084 33.5259 48.6494 33.9949C47.5905 34.4639 46.2899 34.6913 44.7763 34.6913C43.4498 34.6769 42.1635 34.4754 40.9031 34.1014L40.8974 34.0985Z" fill="black"/>
<path d="M66.6714 17.7599C67.785 18.2548 68.6425 18.9656 69.2439 19.9037C69.8482 20.8273 70.1417 21.9266 70.1417 23.2128C70.1417 24.4991 69.8482 25.5724 69.2439 26.5105C68.6396 27.4485 67.7965 28.1593 66.6714 28.6542C65.5578 29.1491 64.2456 29.4052 62.732 29.4052H58.8042V34.4323H55.5728V17.0204H62.7292C64.2312 17.0204 65.5434 17.2621 66.6685 17.757L66.6714 17.7599ZM65.788 25.7738C66.5131 25.1695 66.8872 24.3264 66.8872 23.2128C66.8872 22.0992 66.5246 21.2417 65.788 20.6518C65.0628 20.0475 63.9924 19.754 62.5853 19.754H58.8042V26.6572H62.5853C63.9924 26.6572 65.0657 26.3637 65.788 25.7738Z" fill="black"/>
<path d="M83.2517 30.398H74.5529L72.8379 34.4179H69.5L77.3268 17.0204H80.5036L88.3593 34.4179H84.981L83.2517 30.398ZM82.1783 27.8514L78.8951 20.2375L75.6377 27.8514H82.1783Z" fill="black"/>
<path d="M102.097 34.4179L98.5457 29.3247C98.3989 29.3391 98.1716 29.3506 97.8752 29.3506H93.9474V34.4179H90.716V17.0204H97.8724C99.3744 17.0204 100.701 17.2736 101.812 17.7714C102.925 18.2664 103.783 18.9771 104.384 19.9152C104.988 20.8389 105.282 21.9381 105.282 23.2243C105.282 24.5106 104.96 25.6645 104.33 26.6025C103.685 27.5406 102.776 28.2514 101.581 28.7204L105.59 34.4438H102.091V34.4179H102.097ZM100.931 20.6518C100.206 20.0475 99.1356 19.754 97.7285 19.754H93.9474V26.6831H97.7285C99.1356 26.6831 100.209 26.3752 100.931 25.7709C101.653 25.1667 102.03 24.3092 102.03 23.1984C102.03 22.0992 101.668 21.2417 100.931 20.6518Z" fill="black"/>
<path d="M115.149 27.1406L112.387 29.9692V34.4179H109.155V17.0204H112.387V25.9465L120.99 17.0204H124.622L117.316 24.7955L125.076 34.4179H121.295L115.143 27.1406H115.149Z" fill="black"/>
<path d="M13.4372 39.5284L0.0854745 23.9955C-0.16487 23.7049 0.174678 23.2848 0.511348 23.4689L9.48922 28.3406C9.91222 28.5708 10.2403 28.9477 10.4072 29.3995L14.0213 39.1831C14.1537 39.5428 13.6875 39.819 13.4372 39.5284Z" fill="url(#paint0_linear_9765_3525)"/>
<path d="M15.3651 35.9574L11.6819 17.7484C11.6272 17.4779 11.6819 17.193 11.8286 16.96L18.257 6.90014C18.3865 6.69871 18.7002 6.80518 18.6772 7.04689L15.8169 35.9343C15.791 36.1962 15.4169 36.2135 15.3651 35.9574Z" fill="url(#paint1_linear_9765_3525)"/>
<path d="M18.5534 30.5937L25.6206 20.3123C25.8623 19.9612 26.2824 19.7799 26.7054 19.8432L31.226 20.5281C31.5167 20.5712 31.6145 20.9424 31.3843 21.1237L18.9074 30.9275C18.6858 31.1001 18.3952 30.8267 18.5534 30.5965V30.5937Z" fill="url(#paint2_linear_9765_3525)"/>
<path d="M19.6095 23.5437L23.2236 0.693319C23.261 0.457362 23.5891 0.428586 23.6668 0.655911L26.8723 9.9906C26.9673 10.2697 26.9443 10.5747 26.8062 10.8366L20.0382 23.6876C19.9174 23.9149 19.5692 23.7998 19.6095 23.5466V23.5437Z" fill="url(#paint3_linear_9765_3525)"/>
<path d="M4.11689 19.0347L4.92547 13.294C4.96 13.058 5.28228 13.0149 5.37724 13.2336L10.364 24.8559C10.4647 25.0918 10.1712 25.2961 9.98416 25.1206L4.41902 19.8979C4.18307 19.6763 4.06797 19.3512 4.11401 19.0318L4.11689 19.0347Z" fill="url(#paint4_linear_9765_3525)"/>
</g>
</g>
<defs>
<linearGradient id="paint0_linear_9765_3525" x1="-25.139" y1="-54.7139" x2="-15.9957" y2="51.733" gradientUnits="userSpaceOnUse">
<stop stop-color="#FF8E00"/>
<stop offset="1" stop-color="#F2A52B"/>
</linearGradient>
<linearGradient id="paint1_linear_9765_3525" x1="45.9764" y1="-11.8352" x2="46.232" y2="42.2911" gradientUnits="userSpaceOnUse">
<stop stop-color="#FF8E00"/>
<stop offset="1" stop-color="#F2A52B"/>
</linearGradient>
<linearGradient id="paint2_linear_9765_3525" x1="37.7953" y1="-51.5633" x2="42.2994" y2="48.3579" gradientUnits="userSpaceOnUse">
<stop stop-color="#FF8E00"/>
<stop offset="1" stop-color="#F2A52B"/>
</linearGradient>
<linearGradient id="paint3_linear_9765_3525" x1="33.5282" y1="-1.20035" x2="34.1767" y2="66.5467" gradientUnits="userSpaceOnUse">
<stop stop-color="#FF8E00"/>
<stop offset="1" stop-color="#F2A52B"/>
</linearGradient>
<linearGradient id="paint4_linear_9765_3525" x1="0.309376" y1="6.99346" x2="15.9361" y2="39.7704" gradientUnits="userSpaceOnUse">
<stop stop-color="#FF8E00"/>
<stop offset="1" stop-color="#F2A52B"/>
</linearGradient>
</defs>
</svg>
