<svg width="100" height="101" viewBox="0 0 100 101" fill="none" xmlns="http://www.w3.org/2000/svg">
<path d="M50 6.75C41.3471 6.75 32.8885 9.31589 25.6938 14.1232C18.4992 18.9305 12.8916 25.7633 9.58029 33.7576C6.26896 41.7519 5.40256 50.5485 7.09066 59.0352C8.77877 67.5219 12.9455 75.3174 19.0641 81.4359C25.1826 87.5545 32.9782 91.7213 41.4648 93.4094C49.9515 95.0975 58.7482 94.2311 66.7424 90.9197C74.7367 87.6084 81.5695 82.0008 86.3768 74.8062C91.1841 67.6115 93.75 59.1529 93.75 50.5C93.75 38.8968 89.1407 27.7688 80.9359 19.5641C72.7312 11.3594 61.6032 6.75 50 6.75ZM43.75 67.9712L28.125 52.3462L33.0956 47.375L43.75 58.0288L66.9063 34.875L71.8928 39.8309L43.75 67.9712Z" fill="#6DC275"/>
</svg>
