<svg width="12" height="12" viewBox="0 0 12 12" fill="none" xmlns="http://www.w3.org/2000/svg">
<path d="M3.19115 2.98405C3.96099 2.36824 4.93749 2 6 2C7.0625 2 8.039 2.36824 8.80885 2.98405L9.53555 2.25736L10.2427 2.96446L9.51595 3.69115C10.1318 4.46099 10.5 5.4375 10.5 6.5C10.5 8.9853 8.4853 11 6 11C3.51472 11 1.5 8.9853 1.5 6.5C1.5 5.4375 1.86824 4.46099 2.48405 3.69115L1.75736 2.96446L2.46446 2.25736L3.19115 2.98405ZM6 10C7.933 10 9.5 8.433 9.5 6.5C9.5 4.56701 7.933 3 6 3C4.06701 3 2.5 4.56701 2.5 6.5C2.5 8.433 4.06701 10 6 10ZM6.5 6H8L5.5 9.25V7H4L6.5 3.7476V6ZM4 0.5H8V1.5H4V0.5Z" fill="rgba(255, 255, 255, 0.6)"/>
</svg>
