<svg width="1000" height="1000" viewBox="0 0 1000 1000" fill="none" xmlns="http://www.w3.org/2000/svg">
<circle cx="500" cy="500" r="500" fill="#5865F2"/>
<g clip-path="url(#clip0_0_1)">
<path d="M742.121 280.303C696.196 259.308 647.713 244.414 597.911 236C591.097 248.165 584.93 260.681 579.439 273.496C526.39 265.513 472.444 265.513 419.395 273.496C413.901 260.682 407.735 248.166 400.923 236C351.089 244.485 302.575 259.414 256.603 280.413C165.339 415.243 140.598 546.724 152.968 676.339C206.415 715.77 266.238 745.758 329.835 765C344.155 745.768 356.827 725.365 367.715 704.008C347.034 696.295 327.073 686.779 308.063 675.571C313.066 671.947 317.96 668.214 322.688 664.591C378.002 690.566 438.374 704.033 499.499 704.033C560.625 704.033 620.997 690.566 676.311 664.591C681.094 668.489 685.987 672.222 690.935 675.571C671.889 686.797 651.891 696.332 631.174 704.063C642.049 725.41 654.721 745.796 669.054 765C732.706 745.836 792.574 715.862 846.031 676.394C860.545 526.083 821.235 395.809 742.121 280.303ZM383.384 596.627C348.913 596.627 320.434 565.39 320.434 526.961C320.434 488.532 347.923 457.021 383.274 457.021C418.626 457.021 446.885 488.532 446.28 526.961C445.675 565.39 418.516 596.627 383.384 596.627ZM615.615 596.627C581.088 596.627 552.719 565.39 552.719 526.961C552.719 488.532 580.208 457.021 615.615 457.021C651.021 457.021 679.06 488.532 678.455 526.961C677.851 565.39 650.746 596.627 615.615 596.627Z" fill="white"/>
</g>
<defs>
<clipPath id="clip0_0_1">
<rect width="699" height="529" fill="white" transform="translate(150 236)"/>
</clipPath>
</defs>
</svg>
