<svg width="88" height="24" viewBox="0 0 88 24" fill="none" xmlns="http://www.w3.org/2000/svg">
<path d="M49.7562 13.1115C49.7562 15.4534 48.3875 17.2783 46.0456 17.2783C43.6428 17.2783 42.335 15.5143 42.335 13.1115C42.335 10.6783 43.734 8.91425 46.0456 8.91425C48.3875 8.91425 49.7562 10.7696 49.7562 13.1115ZM52.0981 13.1115C52.0981 9.58338 50.0299 6.87646 46.3801 6.87646C44.8594 6.87646 43.3082 7.54558 42.5175 8.85342V7.05895H40.2059V24H42.5175V17.4304C43.2474 18.7078 44.7377 19.3161 46.2585 19.3161C50.0603 19.3161 52.0981 16.518 52.0981 13.1115ZM80.1953 13.3548L84.5142 19.1336H87.4036L81.8681 11.7732L86.9474 7.05895H83.9363L78.6745 11.8949V2.01009H76.3326V19.1336H78.6745V14.7539L80.1953 13.3548ZM63.3434 13.1115C63.3434 15.3926 62.0964 17.2783 59.6328 17.2783C57.23 17.2783 55.9222 15.5143 55.9222 13.1115C55.9222 10.7391 57.2605 8.91425 59.6328 8.91425C61.8531 8.91425 63.3434 10.5567 63.3434 13.1115ZM63.1609 7.05895V8.67093C62.3093 7.54558 60.7886 6.87646 59.3591 6.87646C55.8005 6.87646 53.5803 9.40089 53.5803 13.1115C53.5803 16.7309 55.7093 19.3161 59.3895 19.3161C60.8494 19.3161 62.5526 18.7078 63.1609 17.4912V19.1336H65.4725V7.05895H63.1609ZM71.5575 7.60641C71.0404 8.00181 70.645 8.57969 70.3713 9.40089V7.05895H68.0598V19.1336H70.3713V13.6894C70.3713 12.2295 70.6146 11.1041 71.0404 10.3133C71.4966 9.49213 72.257 9.06632 73.2911 9.06632H75.0552V7.05895H73.5953C72.7437 7.05895 72.0745 7.24143 71.5575 7.60641ZM38.1985 14.5714C38.1985 11.1041 35.6133 10.3133 32.663 9.49213C31.0511 9.12715 28.6483 8.64052 28.6483 6.66355C28.6483 5.02115 30.3819 4.38244 32.0548 4.38244C33.9405 4.38244 35.4308 5.44696 35.6437 7.33268H38.0769C37.9248 4.19995 35.4612 2.19257 32.0852 2.19257C29.1045 2.19257 26.1847 3.65249 26.1239 6.63314C26.1239 9.94835 28.6787 10.8304 31.6289 11.6212C33.028 12.0166 35.7349 12.6553 35.7349 14.6018C35.7349 16.4267 33.7884 17.1263 31.9635 17.1263C29.7128 17.1263 28.1921 15.7576 28.04 13.5069H25.546C25.6676 16.8221 27.8879 19.3161 31.9331 19.3161C35.1266 19.3161 38.1985 18.0083 38.1985 14.5714Z" fill="white"/>
<path d="M13.6597 12.1831L21.4262 12.1831C21.7249 12.1831 21.7851 11.7764 21.5135 11.6522L13.6602 8.07534V0.278515C13.6602 -0.0125107 13.2709 -0.108006 13.1366 0.150173L9.90806 6.36656L6.33045 4.72341C5.9882 4.58517 5.77797 4.86385 5.89416 5.10338L8.02757 9.50413L0.261067 9.50413C-0.0376463 9.50413 -0.0978476 9.91088 0.173809 10.0351L8.02709 13.6119L8.02709 21.4088C8.02709 21.6998 8.41633 21.7953 8.55064 21.5371L11.7792 15.3207L15.3568 16.9639C15.6991 17.1021 15.9093 16.8234 15.7931 16.5839L13.6597 12.1831Z" fill="white"/>
</svg>
