<svg width="88" height="24" viewBox="0 0 88 24" fill="none" xmlns="http://www.w3.org/2000/svg">
<path d="M49.7562 13.1114C49.7562 15.4534 48.3875 17.2782 46.0456 17.2782C43.6428 17.2782 42.3349 15.5142 42.3349 13.1114C42.3349 10.6782 43.734 8.91417 46.0456 8.91417C48.3875 8.91417 49.7562 10.7695 49.7562 13.1114ZM52.0981 13.1114C52.0981 9.58329 50.0299 6.87637 46.3801 6.87637C44.8594 6.87637 43.3082 7.5455 42.5174 8.85334V7.05886H40.2059V23.9999H42.5174V17.4303C43.2474 18.7077 44.7377 19.316 46.2585 19.316C50.0603 19.316 52.0981 16.5179 52.0981 13.1114ZM80.1953 13.3547L84.5142 19.1335H87.4036L81.8681 11.7732L86.9474 7.05886H83.9363L78.6745 11.8948V2.01H76.3326V19.1335H78.6745V14.7538L80.1953 13.3547ZM63.3434 13.1114C63.3434 15.3925 62.0964 17.2782 59.6328 17.2782C57.23 17.2782 55.9222 15.5142 55.9222 13.1114C55.9222 10.7391 57.2604 8.91417 59.6328 8.91417C61.8531 8.91417 63.3434 10.5566 63.3434 13.1114ZM63.1609 7.05886V8.67085C62.3093 7.5455 60.7886 6.87637 59.3591 6.87637C55.8005 6.87637 53.5802 9.4008 53.5802 13.1114C53.5802 16.7308 55.7093 19.316 59.3895 19.316C60.8494 19.316 62.5526 18.7077 63.1609 17.4911V19.1335H65.4724V7.05886H63.1609ZM71.5574 7.60633C71.0404 8.00172 70.645 8.5796 70.3713 9.4008V7.05886H68.0597V19.1335H70.3713V13.6893C70.3713 12.2294 70.6146 11.104 71.0404 10.3132C71.4966 9.49205 72.257 9.06624 73.2911 9.06624H75.0552V7.05886H73.5952C72.7436 7.05886 72.0745 7.24135 71.5574 7.60633ZM38.1985 14.5713C38.1985 11.104 35.6133 10.3132 32.663 9.49205C31.051 9.12707 28.6483 8.64043 28.6483 6.66347C28.6483 5.02107 30.3819 4.38236 32.0547 4.38236C33.9405 4.38236 35.4308 5.44688 35.6437 7.3326H38.0769C37.9248 4.19987 35.4612 2.19249 32.0851 2.19249C29.1045 2.19249 26.1847 3.6524 26.1238 6.63306C26.1238 9.94827 28.6787 10.8303 31.6289 11.6211C33.028 12.0165 35.7349 12.6552 35.7349 14.6017C35.7349 16.4266 33.7884 17.1262 31.9635 17.1262C29.7128 17.1262 28.192 15.7575 28.04 13.5068H25.546C25.6676 16.822 27.8879 19.316 31.9331 19.316C35.1266 19.316 38.1985 18.0082 38.1985 14.5713Z" fill="#101014"/>
<path d="M13.6597 12.1831L21.4262 12.1831C21.7249 12.1831 21.7851 11.7764 21.5135 11.6522L13.6602 8.07534V0.278515C13.6602 -0.0125107 13.2709 -0.108006 13.1366 0.150173L9.90806 6.36656L6.33045 4.72341C5.9882 4.58517 5.77797 4.86385 5.89416 5.10338L8.02757 9.50413L0.261067 9.50413C-0.0376463 9.50413 -0.0978476 9.91088 0.173809 10.0351L8.02709 13.6119V21.4088C8.02709 21.6998 8.41633 21.7953 8.55064 21.5371L11.7792 15.3207L15.3568 16.9639C15.6991 17.1021 15.9093 16.8234 15.7931 16.5839L13.6597 12.1831Z" fill="url(#paint0_linear_6018_1592)"/>
<defs>
<linearGradient id="paint0_linear_6018_1592" x1="17.4301" y1="5.68917" x2="3.44618" y2="16.4151" gradientUnits="userSpaceOnUse">
<stop stop-color="#FA43BD"/>
<stop offset="1" stop-color="#FFA930"/>
</linearGradient>
</defs>
</svg>
