<svg width="25" height="25" viewBox="0 0 25 25" fill="none" xmlns="http://www.w3.org/2000/svg">
<path
 d="M16.0922 14.4582L24.6869 14.4582C25.0175 14.4582 25.0841 14.0081 24.7835 13.8706L16.0927 9.91235V1.28408C16.0927 0.962016 15.662 0.856337 15.5133 1.14205L11.9405 8.02135L7.98136 6.20298C7.60261 6.05 7.36996 6.35839 7.49854 6.62347L9.85945 11.4935L1.26474 11.4935C0.934169 11.4935 0.867548 11.9436 1.16817 12.0811L9.85893 16.0394V24.6676C9.85893 24.9897 10.2897 25.0954 10.4383 24.8097L14.0112 17.9304L17.9703 19.7487C18.3491 19.9017 18.5817 19.5933 18.4531 19.3283L16.0922 14.4582Z"
  fill="url(#paint0_linear_6018_2606)"/>
<defs>
<linearGradient id="paint0_linear_6018_2606" x1="20.2647" y1="7.27173" x2="4.78951" y2="19.1414" gradientUnits="userSpaceOnUse">
<stop stop-color="#FA43BD"/>
<stop offset="1" stop-color="#FFA930"/>
</linearGradient>
</defs>
</svg>
