<svg width="25" height="25" viewBox="0 0 25 25" fill="none" xmlns="http://www.w3.org/2000/svg">
<path d="M16.0923 14.4582L24.687 14.4582C25.0176 14.4582 25.0842 14.0081 24.7835 13.8706L16.0928 9.91235V1.28408C16.0928 0.962016 15.662 0.856337 15.5134 1.14205L11.9405 8.02135L7.98142 6.20298C7.60267 6.05 7.37002 6.35839 7.4986 6.62347L9.85951 11.4935L1.2648 11.4935C0.93423 11.4935 0.867609 11.9436 1.16823 12.0811L9.85899 16.0394V24.6676C9.85899 24.9897 10.2897 25.0954 10.4384 24.8097L14.0112 17.9304L17.9704 19.7487C18.3491 19.9017 18.5818 19.5933 18.4532 19.3283L16.0923 14.4582Z" fill="#101014"/>
</svg>
