<svg width="34" height="34" viewBox="0 0 34 34" fill="none" xmlns="http://www.w3.org/2000/svg">
<circle cx="17" cy="17" r="16.5" fill="white" stroke="#E4E7EA"/>
<g clip-path="url(#clip0_2304_33565)">
<path fill-rule="evenodd" clip-rule="evenodd" d="M9.99872 29H24.0003C26.7622 29 29 26.5923 29 23.6221V10.3779C29 7.40768 26.7622 5 24.0013 5H9.99872C7.23776 5 5 7.40768 5 10.3779V23.6221C5 26.5923 7.23776 29 9.99872 29Z" fill="#0052FF"/>
<path fill-rule="evenodd" clip-rule="evenodd" d="M16.9999 25.5238C21.7078 25.5238 25.5238 21.7078 25.5238 17C25.5238 12.2921 21.7078 8.47612 16.9999 8.47612C12.2921 8.47612 8.47607 12.2921 8.47607 17C8.47607 21.7078 12.2921 25.5238 16.9999 25.5238Z" fill="white"/>
<path fill-rule="evenodd" clip-rule="evenodd" d="M14.9006 19.7245H19.0987C19.4443 19.7245 19.7236 19.423 19.7236 19.0525V14.9485C19.7236 14.577 19.4433 14.2765 19.0987 14.2765H14.9006C14.555 14.2765 14.2756 14.5779 14.2756 14.9485V19.0525C14.2756 19.423 14.556 19.7245 14.9006 19.7245Z" fill="#0052FF"/>
</g>
<defs>
<clipPath id="clip0_2304_33565">
<rect width="24" height="24" rx="12" transform="matrix(1 0 0 -1 5 29)" fill="white"/>
</clipPath>
</defs>
</svg>
