<svg width="24" height="24" viewBox="0 0 24 24" fill="none" xmlns="http://www.w3.org/2000/svg">
<mask id="mask0_89_1259" style="mask-type:luminance" maskUnits="userSpaceOnUse" x="0" y="0" width="24" height="24">
<path d="M24 12C24 18.6274 18.6274 24 12 24C5.37258 24 0 18.6274 0 12C0 5.37258 5.37258 0 12 0C18.6274 0 24 5.37258 24 12Z" fill="white"/>
</mask>
<g mask="url(#mask0_89_1259)">
<path fill-rule="evenodd" clip-rule="evenodd" d="M4.99872 24H19.0003C21.7622 24 24 21.5923 24 18.6221V5.3779C24 2.40768 21.7622 0 19.0013 0H4.99872C2.23776 0 0 2.40768 0 5.3779V18.6221C0 21.5923 2.23776 24 4.99872 24Z" fill="#0052FF"/>
<path fill-rule="evenodd" clip-rule="evenodd" d="M11.9999 20.5238C16.7078 20.5238 20.5238 16.7078 20.5238 12C20.5238 7.29205 16.7078 3.47607 11.9999 3.47607C7.2921 3.47607 3.47607 7.29205 3.47607 12C3.47607 16.7078 7.2921 20.5238 11.9999 20.5238Z" fill="white"/>
<path fill-rule="evenodd" clip-rule="evenodd" d="M9.90063 14.7245H14.0987C14.4443 14.7245 14.7236 14.423 14.7236 14.0525V9.94849C14.7236 9.57699 14.4433 9.27649 14.0987 9.27649H9.90063C9.55503 9.27649 9.27563 9.57789 9.27563 9.94849V14.0525C9.27563 14.423 9.55603 14.7245 9.90063 14.7245Z" fill="#0052FF"/>
</g>
</svg>
