<svg width="32" height="32" viewBox="0 0 32 32" fill="none" xmlns="http://www.w3.org/2000/svg">
<rect width="32" height="32" rx="16" fill="black"/>
<path d="M19.1164 17.4823H27.7111C28.0417 17.4823 28.1083 17.0322 27.8077 16.8947L19.1169 12.9365V4.30822C19.1169 3.98615 18.6862 3.88048 18.5375 4.16619L14.9647 11.0455L11.0055 9.22712C10.6268 9.07414 10.3941 9.38253 10.5227 9.64761L12.8836 14.5176H4.28891C3.95834 14.5176 3.89172 14.9677 4.19234 15.1052L12.8831 19.0635V27.6917C12.8831 28.0138 13.3139 28.1195 13.4625 27.8338L17.0354 20.9545L20.9945 22.7728C21.3733 22.9258 21.6059 22.6174 21.4773 22.3524L19.1164 17.4823Z" fill="white"/>
</svg>
