<svg width="34" height="34" viewBox="0 0 34 34" fill="none" xmlns="http://www.w3.org/2000/svg">
<circle cx="17" cy="17" r="16.5" fill="white" stroke="#E4E7EA"/>
<g clip-path="url(#clip0_2304_33566)">
<path d="M5 17C5 10.3726 10.3726 5 17 5C23.6274 5 29 10.3726 29 17C29 23.6274 23.6274 29 17 29C10.3726 29 5 23.6274 5 17Z" fill="#7866D5"/>
<path d="M15.875 10.4375C11.375 10.4375 9.5 12.3602 9.5 14.9375V19.0625C9.5 21.6398 11.375 23.5625 15.875 23.5625H20.2344C24.3125 23.5625 24.5 23.0704 24.5 22.25C24.5 21.3125 24.125 20.9375 23.1875 20.9375H15.875C13.625 20.9375 12.5 19.8151 12.5 18.6875V18.3125H23.1875C23.9375 18.3125 24.5 17.8203 24.5 17C24.5 16.1797 23.9375 15.6875 23.1875 15.6875H12.5V15.3125C12.5 14.1849 13.625 13.0625 15.875 13.0625H23.1875C24.125 13.0625 24.5 12.6875 24.5 11.75C24.5 10.9296 24.3125 10.4375 20.2344 10.4375H15.875Z" fill="white"/>
</g>
<defs>
<clipPath id="clip0_2304_33566">
<rect width="24" height="24" fill="white" transform="translate(5 5)"/>
</clipPath>
</defs>
</svg>
