<svg width="24" height="24" viewBox="0 0 24 24" fill="none" xmlns="http://www.w3.org/2000/svg">
<mask id="mask0_89_1269" style="mask-type:luminance" maskUnits="userSpaceOnUse" x="0" y="0" width="24" height="24">
<path d="M24 0H0V24H24V0Z" fill="white"/>
</mask>
<g mask="url(#mask0_89_1269)">
<path d="M0 12C0 5.3726 5.3726 0 12 0C18.6274 0 24 5.3726 24 12C24 18.6274 18.6274 24 12 24C5.3726 24 0 18.6274 0 12Z" fill="#7866D5"/>
<path d="M10.875 5.4375C6.375 5.4375 4.5 7.3602 4.5 9.9375V14.0625C4.5 16.6398 6.375 18.5625 10.875 18.5625H15.2344C19.3125 18.5625 19.5 18.0704 19.5 17.25C19.5 16.3125 19.125 15.9375 18.1875 15.9375H10.875C8.625 15.9375 7.5 14.8151 7.5 13.6875V13.3125H18.1875C18.9375 13.3125 19.5 12.8203 19.5 12C19.5 11.1797 18.9375 10.6875 18.1875 10.6875H7.5V10.3125C7.5 9.1849 8.625 8.0625 10.875 8.0625H18.1875C19.125 8.0625 19.5 7.6875 19.5 6.75C19.5 5.9296 19.3125 5.4375 15.2344 5.4375H10.875Z" fill="white"/>
</g>
</svg>
