<svg width="34" height="34" viewBox="0 0 34 34" fill="none" xmlns="http://www.w3.org/2000/svg">
<circle cx="17" cy="17" r="16.5" fill="white" stroke="#E4E7EA"/>
<path d="M25.8333 8.09998L18.3281 13.6533L19.7238 10.3805L25.8333 8.09998Z" fill="#E17726" stroke="#E17726" stroke-width="0.142857" stroke-linecap="round" stroke-linejoin="round"/>
<path d="M8.52173 8.09998L15.9601 13.7051L14.6313 10.3805L8.52173 8.09998Z" fill="#E27625" stroke="#E27625" stroke-width="0.142857" stroke-linecap="round" stroke-linejoin="round"/>
<path d="M23.1309 20.9762L21.134 24.0268L25.41 25.2041L26.6349 21.0429L23.1309 20.9762Z" fill="#E27625" stroke="#E27625" stroke-width="0.142857" stroke-linecap="round" stroke-linejoin="round"/>
<path d="M7.72729 21.0429L8.94475 25.2041L13.2133 24.0268L11.2238 20.9762L7.72729 21.0429Z" fill="#E27625" stroke="#E27625" stroke-width="0.142857" stroke-linecap="round" stroke-linejoin="round"/>
<path d="M12.9832 15.8227L11.7954 17.6146L16.0268 17.8071L15.8858 13.2534L12.9832 15.8227Z" fill="#E27625" stroke="#E27625" stroke-width="0.142857" stroke-linecap="round" stroke-linejoin="round"/>
<path d="M21.3715 15.8229L18.4244 13.2018L18.3279 17.8073L22.5593 17.6148L21.3715 15.8229Z" fill="#E27625" stroke="#E27625" stroke-width="0.142857" stroke-linecap="round" stroke-linejoin="round"/>
<path d="M13.2134 24.0269L15.7745 22.7903L13.5697 21.0725L13.2134 24.0269Z" fill="#E27625" stroke="#E27625" stroke-width="0.142857" stroke-linecap="round" stroke-linejoin="round"/>
<path d="M18.5806 22.7903L21.1342 24.0269L20.7853 21.0725L18.5806 22.7903Z" fill="#E27625" stroke="#E27625" stroke-width="0.142857" stroke-linecap="round" stroke-linejoin="round"/>
<path d="M21.1342 24.0269L18.5806 22.7904L18.7884 24.449L18.7661 25.1524L21.1342 24.0269Z" fill="#D5BFB2" stroke="#D5BFB2" stroke-width="0.142857" stroke-linecap="round" stroke-linejoin="round"/>
<path d="M13.2134 24.0269L15.5889 25.1524L15.5741 24.449L15.7745 22.7904L13.2134 24.0269Z" fill="#D5BFB2" stroke="#D5BFB2" stroke-width="0.142857" stroke-linecap="round" stroke-linejoin="round"/>
<path d="M15.6334 19.9767L13.5103 19.3548L15.0098 18.6661L15.6334 19.9767Z" fill="#233447" stroke="#233447" stroke-width="0.142857" stroke-linecap="round" stroke-linejoin="round"/>
<path d="M18.7214 19.9767L19.345 18.6661L20.852 19.3548L18.7214 19.9767Z" fill="#233447" stroke="#233447" stroke-width="0.142857" stroke-linecap="round" stroke-linejoin="round"/>
<path d="M13.2134 24.0268L13.5846 20.9762L11.2239 21.0429L13.2134 24.0268Z" fill="#CC6228" stroke="#CC6228" stroke-width="0.142857" stroke-linecap="round" stroke-linejoin="round"/>
<path d="M20.7703 20.9762L21.134 24.0268L23.1309 21.0429L20.7703 20.9762Z" fill="#CC6228" stroke="#CC6228" stroke-width="0.142857" stroke-linecap="round" stroke-linejoin="round"/>
<path d="M22.5593 17.6146L18.3279 17.8071L18.7213 19.9767L19.3449 18.6661L20.8519 19.3547L22.5593 17.6146Z" fill="#CC6228" stroke="#CC6228" stroke-width="0.142857" stroke-linecap="round" stroke-linejoin="round"/>
<path d="M13.5102 19.3547L15.0098 18.6661L15.6334 19.9767L16.0268 17.8071L11.7954 17.6146L13.5102 19.3547Z" fill="#CC6228" stroke="#CC6228" stroke-width="0.142857" stroke-linecap="round" stroke-linejoin="round"/>
<path d="M11.7954 17.6146L13.5696 21.0725L13.5102 19.3547L11.7954 17.6146Z" fill="#E27525" stroke="#E27525" stroke-width="0.142857" stroke-linecap="round" stroke-linejoin="round"/>
<path d="M20.8522 19.3547L20.7854 21.0725L22.5596 17.6146L20.8522 19.3547Z" fill="#E27525" stroke="#E27525" stroke-width="0.142857" stroke-linecap="round" stroke-linejoin="round"/>
<path d="M16.027 17.8071L15.6335 19.9767L16.1309 22.5386L16.2423 19.1622L16.027 17.8071Z" fill="#E27525" stroke="#E27525" stroke-width="0.142857" stroke-linecap="round" stroke-linejoin="round"/>
<path d="M18.328 17.8071L18.1201 19.1548L18.2241 22.5386L18.7214 19.9767L18.328 17.8071Z" fill="#E27525" stroke="#E27525" stroke-width="0.142857" stroke-linecap="round" stroke-linejoin="round"/>
<path d="M18.7215 19.9767L18.2241 22.5386L18.5805 22.7904L20.7853 21.0726L20.8521 19.3547L18.7215 19.9767Z" fill="#F5841F" stroke="#F5841F" stroke-width="0.142857" stroke-linecap="round" stroke-linejoin="round"/>
<path d="M13.5103 19.3547L13.5697 21.0726L15.7744 22.7904L16.1308 22.5386L15.6334 19.9767L13.5103 19.3547Z" fill="#F5841F" stroke="#F5841F" stroke-width="0.142857" stroke-linecap="round" stroke-linejoin="round"/>
<path d="M18.7662 25.1525L18.7884 24.449L18.5954 24.2861H15.7597L15.5741 24.449L15.5889 25.1525L13.2134 24.027L14.0448 24.7082L15.73 25.8707H18.6177L20.3102 24.7082L21.1342 24.027L18.7662 25.1525Z" fill="#C0AC9D" stroke="#C0AC9D" stroke-width="0.142857" stroke-linecap="round" stroke-linejoin="round"/>
<path d="M18.5805 22.7903L18.2241 22.5386H16.1307L15.7744 22.7903L15.574 24.4489L15.7596 24.286H18.5953L18.7884 24.4489L18.5805 22.7903Z" fill="#161616" stroke="#161616" stroke-width="0.142857" stroke-linecap="round" stroke-linejoin="round"/>
<path d="M26.1525 14.0161L26.7835 10.9507L25.8333 8.09998L18.5806 13.4682L21.3718 15.8228L25.3137 16.9705L26.1822 15.9561L25.8037 15.6821L26.4049 15.1342L25.9447 14.7788L26.546 14.3197L26.1525 14.0161Z" fill="#763E1A" stroke="#763E1A" stroke-width="0.142857" stroke-linecap="round" stroke-linejoin="round"/>
<path d="M7.57153 10.9507L8.20996 14.0161L7.80166 14.3197L8.41039 14.7788L7.95013 15.1342L8.55144 15.6821L8.17284 15.9561L9.04139 16.9705L12.9833 15.8228L15.7745 13.4682L8.52174 8.09998L7.57153 10.9507Z" fill="#763E1A" stroke="#763E1A" stroke-width="0.142857" stroke-linecap="round" stroke-linejoin="round"/>
<path d="M25.3137 16.9704L21.3719 15.8228L22.5596 17.6146L20.7854 21.0725L23.1312 21.0429H26.6351L25.3137 16.9704Z" fill="#F5841F" stroke="#F5841F" stroke-width="0.142857" stroke-linecap="round" stroke-linejoin="round"/>
<path d="M12.9831 15.8228L9.04125 16.9704L7.72729 21.0429H11.2238L13.5696 21.0725L11.7954 17.6146L12.9831 15.8228Z" fill="#F5841F" stroke="#F5841F" stroke-width="0.142857" stroke-linecap="round" stroke-linejoin="round"/>
<path d="M18.328 17.8071L18.5804 13.4681L19.7236 10.3805H14.6311L15.7743 13.4681L16.0267 17.8071L16.1232 19.1695L16.1306 22.5386H18.2241L18.2315 19.1695L18.328 17.8071Z" fill="#F5841F" stroke="#F5841F" stroke-width="0.142857" stroke-linecap="round" stroke-linejoin="round"/>
</svg>
