<svg width="24" height="24" viewBox="0 0 24 24" fill="none" xmlns="http://www.w3.org/2000/svg">
<g clip-path="url(#clip0_2121_6734)">
<path d="M20.8331 2.606L13.3279 8.49588L14.7235 5.02479L20.8331 2.606Z" fill="#E17726" stroke="#E17726" stroke-width="0.3125" stroke-linecap="round" stroke-linejoin="round"/>
<path d="M3.52222 2.606L10.9606 8.55085L9.63179 5.02478L3.52222 2.606Z" fill="#E27625" stroke="#E27625" stroke-width="0.3125" stroke-linecap="round" stroke-linejoin="round"/>
<path d="M18.1309 16.2626L16.134 19.4981L20.41 20.7468L21.6349 16.3333L18.1309 16.2626Z" fill="#E27625" stroke="#E27625" stroke-width="0.3125" stroke-linecap="round" stroke-linejoin="round"/>
<path d="M2.72705 16.3333L3.9445 20.7468L8.21305 19.4981L6.22353 16.2626L2.72705 16.3333Z" fill="#E27625" stroke="#E27625" stroke-width="0.3125" stroke-linecap="round" stroke-linejoin="round"/>
<path d="M7.98364 10.797L6.7959 12.6974L11.0273 12.9016L10.8863 8.07193L7.98364 10.797Z" fill="#E27625" stroke="#E27625" stroke-width="0.3125" stroke-linecap="round" stroke-linejoin="round"/>
<path d="M16.3715 10.797L13.4244 8.017L13.3279 12.9017L17.5593 12.6975L16.3715 10.797Z" fill="#E27625" stroke="#E27625" stroke-width="0.3125" stroke-linecap="round" stroke-linejoin="round"/>
<path d="M8.21338 19.4981L10.7745 18.1866L8.56972 16.3647L8.21338 19.4981Z" fill="#E27625" stroke="#E27625" stroke-width="0.3125" stroke-linecap="round" stroke-linejoin="round"/>
<path d="M13.5806 18.1866L16.1342 19.4981L15.7853 16.3647L13.5806 18.1866Z" fill="#E27625" stroke="#E27625" stroke-width="0.3125" stroke-linecap="round" stroke-linejoin="round"/>
<path d="M16.1342 19.4983L13.5806 18.1868L13.7884 19.9459L13.7661 20.692L16.1342 19.4983Z" fill="#D5BFB2" stroke="#D5BFB2" stroke-width="0.3125" stroke-linecap="round" stroke-linejoin="round"/>
<path d="M8.21338 19.4983L10.5889 20.692L10.5741 19.9459L10.7745 18.1868L8.21338 19.4983Z" fill="#D5BFB2" stroke="#D5BFB2" stroke-width="0.3125" stroke-linecap="round" stroke-linejoin="round"/>
<path d="M10.6334 15.2025L8.51025 14.5429L10.0098 13.8125L10.6334 15.2025Z" fill="#233447" stroke="#233447" stroke-width="0.3125" stroke-linecap="round" stroke-linejoin="round"/>
<path d="M13.7217 15.2025L14.3453 13.8125L15.8523 14.5429L13.7217 15.2025Z" fill="#233447" stroke="#233447" stroke-width="0.3125" stroke-linecap="round" stroke-linejoin="round"/>
<path d="M8.21361 19.4981L8.58481 16.2626L6.22412 16.3333L8.21361 19.4981Z" fill="#CC6228" stroke="#CC6228" stroke-width="0.3125" stroke-linecap="round" stroke-linejoin="round"/>
<path d="M15.7708 16.2626L16.1345 19.4981L18.1314 16.3333L15.7708 16.2626Z" fill="#CC6228" stroke="#CC6228" stroke-width="0.3125" stroke-linecap="round" stroke-linejoin="round"/>
<path d="M17.5593 12.6973L13.3279 12.9015L13.7213 15.2025L14.3449 13.8125L15.8519 14.5428L17.5593 12.6973Z" fill="#CC6228" stroke="#CC6228" stroke-width="0.3125" stroke-linecap="round" stroke-linejoin="round"/>
<path d="M8.51073 14.5428L10.0103 13.8125L10.6339 15.2025L11.0273 12.9015L6.7959 12.6973L8.51073 14.5428Z" fill="#CC6228" stroke="#CC6228" stroke-width="0.3125" stroke-linecap="round" stroke-linejoin="round"/>
<path d="M6.7959 12.6973L8.57013 16.3648L8.5107 14.5428L6.7959 12.6973Z" fill="#E27525" stroke="#E27525" stroke-width="0.3125" stroke-linecap="round" stroke-linejoin="round"/>
<path d="M15.8527 14.5428L15.7859 16.3648L17.5601 12.6973L15.8527 14.5428Z" fill="#E27525" stroke="#E27525" stroke-width="0.3125" stroke-linecap="round" stroke-linejoin="round"/>
<path d="M11.0273 12.9015L10.6338 15.2026L11.1312 17.9197L11.2425 14.3387L11.0273 12.9015Z" fill="#E27525" stroke="#E27525" stroke-width="0.3125" stroke-linecap="round" stroke-linejoin="round"/>
<path d="M13.3285 12.9015L13.1206 14.3309L13.2245 17.9197L13.7219 15.2026L13.3285 12.9015Z" fill="#E27525" stroke="#E27525" stroke-width="0.3125" stroke-linecap="round" stroke-linejoin="round"/>
<path d="M13.7215 15.2026L13.2241 17.9197L13.5805 18.1868L15.7853 16.3648L15.8521 14.5429L13.7215 15.2026Z" fill="#F5841F" stroke="#F5841F" stroke-width="0.3125" stroke-linecap="round" stroke-linejoin="round"/>
<path d="M8.51025 14.5429L8.56968 16.3648L10.7744 18.1868L11.1308 17.9197L10.6334 15.2026L8.51025 14.5429Z" fill="#F5841F" stroke="#F5841F" stroke-width="0.3125" stroke-linecap="round" stroke-linejoin="round"/>
<path d="M13.7662 20.692L13.7884 19.9459L13.5954 19.7731H10.7597L10.5741 19.9459L10.5889 20.692L8.21338 19.4983L9.04481 20.2208L10.73 21.4537H13.6177L15.3102 20.2208L16.1342 19.4983L13.7662 20.692Z" fill="#C0AC9D" stroke="#C0AC9D" stroke-width="0.3125" stroke-linecap="round" stroke-linejoin="round"/>
<path d="M13.5812 18.1867L13.2249 17.9198H11.1314L10.7752 18.1867L10.5747 19.9459L10.7603 19.7731H13.5961L13.7891 19.9459L13.5812 18.1867Z" fill="#161616" stroke="#161616" stroke-width="0.3125" stroke-linecap="round" stroke-linejoin="round"/>
<path d="M21.1525 8.88067L21.7835 5.62947L20.8333 2.606L13.5806 8.29958L16.3718 10.7968L20.3137 12.0141L21.1822 10.9382L20.8037 10.6476L21.4049 10.0665L20.9447 9.68958L21.546 9.20267L21.1525 8.88067Z" fill="#763E1A" stroke="#763E1A" stroke-width="0.3125" stroke-linecap="round" stroke-linejoin="round"/>
<path d="M2.57129 5.62947L3.20971 8.88067L2.80142 9.20267L3.41015 9.68958L2.94989 10.0665L3.55119 10.6476L3.17259 10.9382L4.04115 12.0141L7.98306 10.7968L10.7743 8.29958L3.5215 2.606L2.57129 5.62947Z" fill="#763E1A" stroke="#763E1A" stroke-width="0.3125" stroke-linecap="round" stroke-linejoin="round"/>
<path d="M20.3142 12.0142L16.3723 10.797L17.5601 12.6975L15.7859 16.3648L18.1317 16.3335H21.6356L20.3142 12.0142Z" fill="#F5841F" stroke="#F5841F" stroke-width="0.3125" stroke-linecap="round" stroke-linejoin="round"/>
<path d="M7.98287 10.7968L4.04101 12.014L2.72705 16.3333H6.22352L8.56933 16.3647L6.79514 12.6973L7.98287 10.7968Z" fill="#F5841F" stroke="#F5841F" stroke-width="0.3125" stroke-linecap="round" stroke-linejoin="round"/>
<path d="M13.3288 12.9015L13.5812 8.2995L14.7243 5.02475H9.63184L10.775 8.2995L11.0274 12.9015L11.124 14.3465L11.1314 17.9197H13.2248L13.2322 14.3465L13.3288 12.9015Z" fill="#F5841F" stroke="#F5841F" stroke-width="0.3125" stroke-linecap="round" stroke-linejoin="round"/>
</g>
<defs>
<clipPath id="clip0_2121_6734">
<rect width="20" height="20" fill="white" transform="translate(2 2)"/>
</clipPath>
</defs>
</svg>
