<svg width="34" height="34" viewBox="0 0 34 34" fill="none" xmlns="http://www.w3.org/2000/svg">
<circle cx="17" cy="17" r="16.5" fill="white" stroke="#E4E7EA"/>
<g clip-path="url(#clip0_2304_33567)">
<path d="M17 29C23.6274 29 29 23.6274 29 17C29 10.3726 23.6274 5 17 5C10.3726 5 5 10.3726 5 17C5 23.6274 10.3726 29 17 29Z" fill="#0364FF"/>
<path fill-rule="evenodd" clip-rule="evenodd" d="M13.0387 12.1205C12.4652 12.1205 12.0002 12.5854 12.0002 13.159V14.3687C12.0002 14.9422 12.4652 15.4072 13.0387 15.4072H14.876V22.1745C14.876 22.7481 15.341 23.213 15.9145 23.213H17.1242C17.6977 23.213 18.1627 22.7481 18.1627 22.1745V14.3775C18.1627 14.3746 18.1627 14.3716 18.1627 14.3687V13.159C18.1627 12.5854 17.6978 12.1205 17.1243 12.1205H15.9145H13.0387Z" fill="white"/>
<path d="M20.6284 15.4072C21.536 15.4072 22.2718 14.6714 22.2718 13.7638C22.2718 12.8563 21.536 12.1205 20.6284 12.1205C19.7208 12.1205 18.9851 12.8563 18.9851 13.7638C18.9851 14.6714 19.7208 15.4072 20.6284 15.4072Z" fill="white"/>
</g>
<defs>
<clipPath id="clip0_2304_33567">
<rect width="24" height="24" fill="white" transform="translate(5 5)"/>
</clipPath>
</defs>
</svg>
