<svg width="24" height="24" viewBox="0 0 24 24" fill="none" xmlns="http://www.w3.org/2000/svg">
<mask id="mask0_89_1278" style="mask-type:luminance" maskUnits="userSpaceOnUse" x="0" y="0" width="24" height="24">
<path d="M24 0H0V24H24V0Z" fill="white"/>
</mask>
<g mask="url(#mask0_89_1278)">
<path d="M12 24C18.6274 24 24 18.6274 24 12C24 5.3726 18.6274 0 12 0C5.3726 0 0 5.3726 0 12C0 18.6274 5.3726 24 12 24Z" fill="#0364FF"/>
<path fill-rule="evenodd" clip-rule="evenodd" d="M8.03874 7.12048C7.46524 7.12048 7.00024 7.58538 7.00024 8.15898V9.36868C7.00024 9.94218 7.46524 10.4072 8.03874 10.4072H9.87604V17.1745C9.87604 17.7481 10.341 18.213 10.9145 18.213H12.1242C12.6977 18.213 13.1627 17.7481 13.1627 17.1745V9.37748C13.1627 9.37458 13.1627 9.37158 13.1627 9.36868V8.15898C13.1627 7.58538 12.6978 7.12048 12.1243 7.12048H10.9145H8.03874Z" fill="white"/>
<path d="M15.6284 10.4072C16.536 10.4072 17.2718 9.67138 17.2718 8.76378C17.2718 7.85628 16.536 7.12048 15.6284 7.12048C14.7208 7.12048 13.9851 7.85628 13.9851 8.76378C13.9851 9.67138 14.7208 10.4072 15.6284 10.4072Z" fill="white"/>
</g>
</svg>
