<svg width="34" height="34" viewBox="0 0 34 34" fill="none" xmlns="http://www.w3.org/2000/svg">
<circle cx="17" cy="17" r="16.5" fill="white" stroke="#E4E7EA"/>
<path d="M9.44082 12.2278C13.6156 8.16495 20.3843 8.16495 24.5592 12.2278L25.0616 12.7168C25.2703 12.9199 25.2703 13.2493 25.0616 13.4524L23.3428 15.1251C23.2384 15.2267 23.0692 15.2267 22.9648 15.1251L22.2734 14.4523C19.361 11.6179 14.639 11.6179 11.7265 14.4523L10.986 15.1728C10.8817 15.2744 10.7125 15.2744 10.6081 15.1728L8.88935 13.5002C8.68055 13.297 8.68055 12.9676 8.88935 12.7645L9.44082 12.2278ZM28.1137 15.6871L29.6434 17.1757C29.8522 17.3789 29.8522 17.7083 29.6434 17.9114L22.7459 24.6241C22.5372 24.8272 22.1987 24.8272 21.99 24.6241L17.0945 19.8599C17.0423 19.8091 16.9577 19.8091 16.9055 19.8599L12.0102 24.6241C11.8014 24.8272 11.463 24.8272 11.2542 24.6241L4.35651 17.9114C4.14777 17.7082 4.14777 17.3788 4.35651 17.1757L5.88621 15.687C6.09495 15.4839 6.43339 15.4839 6.64213 15.687L11.5377 20.4512C11.5898 20.5021 11.6744 20.5021 11.7266 20.4512L16.6219 15.687C16.8306 15.4839 17.1691 15.4839 17.3778 15.687L22.2734 20.4512C22.3256 20.5021 22.4102 20.5021 22.4624 20.4512L27.3578 15.6871C27.5666 15.4839 27.905 15.4839 28.1137 15.6871Z" fill="#3396FF"/>
</svg>
