<svg width="24" height="24" viewBox="0 0 24 24" fill="none" xmlns="http://www.w3.org/2000/svg">
<path d="M5.50697 7.62737C9.0936 4.12421 14.9074 4.12421 18.4986 7.62737L18.9301 8.04849C19.1111 8.22434 19.1111 8.50663 18.9301 8.68248L17.4547 10.1263C17.3665 10.2142 17.218 10.2142 17.1299 10.1263L16.536 9.54786C14.0351 7.10444 9.97518 7.10444 7.47428 9.54786L6.83862 10.168C6.75046 10.2559 6.60199 10.2559 6.51383 10.168L5.03371 8.72413C4.85275 8.54828 4.85275 8.26599 5.03371 8.09014L5.50697 7.62737ZM21.5517 10.6076L22.8648 11.8895C23.0457 12.0653 23.0457 12.3476 22.8648 12.5235L16.9396 18.3127C16.7587 18.4885 16.471 18.4885 16.2901 18.3127L12.0817 14.2033C12.0353 14.1617 11.9657 14.1617 11.9193 14.2033L7.71556 18.3127C7.5346 18.4885 7.24693 18.4885 7.06597 18.3127L1.1362 12.5281C0.955249 12.3522 0.955249 12.0699 1.1362 11.8941L2.44929 10.6122C2.63025 10.4364 2.91792 10.4364 3.09887 10.6122L7.30725 14.7216C7.35365 14.7633 7.42324 14.7633 7.46964 14.7216L11.6734 10.6122C11.8543 10.4364 12.142 10.4364 12.323 10.6122L16.5313 14.7216C16.5777 14.7633 16.6473 14.7633 16.6937 14.7216L20.9021 10.6122C21.0784 10.4317 21.3707 10.4317 21.5517 10.6076Z" fill="#3A99FB"/>
</svg>
