<svg xmlns="http://www.w3.org/2000/svg" fill="none" viewBox="156.78016726403823 200.912 410.57347670250897 232.08800000000002" style="max-height: 500px" width="410.57347670250897" height="232.08800000000002">
<g clip-path="url(#clip0_26_123)">
<path fill="url(#paint0_linear_26_123)" d="M361.988 300.561C361.988 287.673 372.437 277.226 385.324 277.226C372.435 277.226 361.988 266.779 361.988 253.89C361.988 266.779 351.541 277.226 338.652 277.226C351.541 277.226 361.988 287.673 361.988 300.561Z"/>
<path fill="url(#paint1_linear_26_123)" d="M361.977 300.553L373.87 307.419L391.176 317.41L394.551 319.361L413.359 308.494L380.785 289.689L361.977 300.553Z"/>
<path fill="url(#paint2_linear_26_123)" d="M361.984 338.166L329.41 319.361L332.788 317.41L337.093 314.925L361.984 300.553L343.179 289.689L310.605 308.494L329.399 319.354V319.367L310.605 330.225L329.338 341.041L329.304 352.891L361.984 371.699V371.881L394.558 353.076V341.082L413.366 330.225L394.558 319.361L361.984 338.166Z"/>
</g>
<path stroke-width="2.12176" stroke="url(#paint3_radial_26_123)" d="M1.05936 316.051L277.288 413.996C332.638 433.622 393.052 433.622 448.401 413.996L723.372 316.497"/>
<path stroke-width="2.12176" stroke="url(#paint4_radial_26_123)" d="M723.258 172.863L429.79 390.309C390.017 419.778 335.652 419.778 295.879 390.309L1.05341 171.857"/>
<path stroke-width="2.12176" stroke="url(#paint5_radial_26_123)" d="M1.00002 1.00003L292.493 363.558C328.627 408.501 397.061 408.501 433.195 363.557L723.376 2.63166"/>
<defs>
<linearGradient gradientUnits="userSpaceOnUse" y2="263.582" x2="321.804" y1="310.283" x1="328.929" id="paint0_linear_26_123">
<stop stop-color="#5823F3"/>
<stop stop-color="#61A8FF" offset="1"/>
</linearGradient>
<linearGradient gradientUnits="userSpaceOnUse" y2="295.393" x2="348.617" y1="325.541" x1="351.273" id="paint1_linear_26_123">
<stop stop-color="#5823F3"/>
<stop stop-color="#61A8FF" offset="1"/>
</linearGradient>
<linearGradient gradientUnits="userSpaceOnUse" y2="306.077" x2="279.077" y1="389.001" x1="289.197" id="paint2_linear_26_123">
<stop stop-color="#5823F3"/>
<stop stop-color="#61A8FF" offset="1"/>
</linearGradient>
<radialGradient gradientTransform="translate(362.215 440.256) rotate(-90) scale(81.0663 456.456)" gradientUnits="userSpaceOnUse" r="1" cy="0" cx="0" id="paint3_radial_26_123">
<stop stop-color="#61A8FF"/>
<stop stop-color="#5A3AF5" offset="0.515"/>
<stop stop-opacity="0" stop-color="#5A3AF5" offset="1"/>
</radialGradient>
<radialGradient gradientTransform="translate(362.156 431.399) rotate(-90) scale(169.398 456.388)" gradientUnits="userSpaceOnUse" r="1" cy="0" cx="0" id="paint4_radial_26_123">
<stop stop-color="#61A8FF"/>
<stop stop-color="#5A3AF5" offset="0.515"/>
<stop stop-opacity="0" stop-color="#5A3AF5" offset="1"/>
</radialGradient>
<radialGradient gradientTransform="translate(362.188 436.755) rotate(-90) scale(284.409 456.496)" gradientUnits="userSpaceOnUse" r="1" cy="0" cx="0" id="paint5_radial_26_123">
<stop stop-color="#61A8FF"/>
<stop stop-color="#5A3AF5" offset="0.515"/>
<stop stop-opacity="0" stop-color="#5A3AF5" offset="1"/>
</radialGradient>
<clipPath id="clip0_26_123">
<rect transform="translate(310.621 253.887)" fill="white" height="118" width="102.762"/>
</clipPath>
</defs>
</svg>
