<svg width="132" height="132" viewBox="0 0 132 132" fill="none" xmlns="http://www.w3.org/2000/svg">
<path opacity="0.5" d="M132 66C132 102.451 102.451 132 66 132C29.5492 132 0 102.451 0 66C0 29.5492 29.5492 0 66 0C102.451 0 132 29.5492 132 66Z" fill="url(#paint0_linear_32_210)" fill-opacity="0.2"/>
<circle opacity="0.5" cx="65.9994" cy="65.9975" r="51.7977" fill="url(#paint1_linear_32_210)" fill-opacity="0.2"/>
<g filter="url(#filter0_d_32_210)">
<circle cx="65.9972" cy="66.0009" r="37.752" fill="url(#paint2_radial_32_210)"/>
<path d="M51.5589 75.9259H46.1865C46.625 84.3134 53.642 91.6045 66.0863 91.6045C78.4757 91.6045 86.3699 84.8068 86.3699 76.0355C86.3699 59.3701 61.2073 60.3021 61.2073 50.6537C61.2073 47.9675 63.2356 44.7879 67.9502 44.7879C73.2129 44.7879 79.4077 48.8994 79.8462 54.1622H85.1638C84.6156 45.665 76.3377 39.7444 65.8122 39.7444C54.9029 39.7444 46.6798 46.1036 46.6798 55.0941C46.6798 72.2529 71.8424 70.0053 71.8424 80.5856C71.8424 83.8749 69.8141 86.6159 64.7158 86.6159C58.3566 86.6159 51.9426 82.1754 51.5589 75.9259ZM56.0541 51.9145C56.0541 64.9618 80.9975 62.3852 80.9975 76.3096C80.9975 80.476 78.2564 84.149 74.9672 85.0809C76.1184 83.9845 76.9956 81.5724 76.9956 79.2699C76.9956 66.3871 51.9974 68.1414 51.9974 54.9297C51.9974 50.4892 54.8481 46.9259 58.4114 45.8295C57.0409 47.4741 56.0541 49.6121 56.0541 51.9145Z" fill="white"/>
</g>
<defs>
<filter id="filter0_d_32_210" x="12.6562" y="20.0965" width="106.682" height="106.682" filterUnits="userSpaceOnUse" color-interpolation-filters="sRGB">
<feFlood flood-opacity="0" result="BackgroundImageFix"/>
<feColorMatrix in="SourceAlpha" type="matrix" values="0 0 0 0 0 0 0 0 0 0 0 0 0 0 0 0 0 0 127 0" result="hardAlpha"/>
<feOffset dy="7.43662"/>
<feGaussianBlur stdDeviation="7.79451"/>
<feComposite in2="hardAlpha" operator="out"/>
<feColorMatrix type="matrix" values="0 0 0 0 0.580392 0 0 0 0 0.862745 0 0 0 0 0.541176 0 0 0 0.6 0"/>
<feBlend mode="normal" in2="BackgroundImageFix" result="effect1_dropShadow_32_210"/>
<feBlend mode="normal" in="SourceGraphic" in2="effect1_dropShadow_32_210" result="shape"/>
</filter>
<linearGradient id="paint0_linear_32_210" x1="70.1684" y1="-14.9368" x2="70.1684" y2="123.663" gradientUnits="userSpaceOnUse">
<stop stop-color="#FFEF79"/>
<stop offset="0.51" stop-color="#00C2A1"/>
<stop offset="1" stop-color="#00C2A1" stop-opacity="0.3"/>
</linearGradient>
<linearGradient id="paint1_linear_32_210" x1="65.9994" y1="-19.8776" x2="65.9994" y2="112.684" gradientUnits="userSpaceOnUse">
<stop stop-color="#FFEF79"/>
<stop offset="0.51" stop-color="#00C2A1"/>
<stop offset="1" stop-color="#00C2A1" stop-opacity="0.3"/>
</linearGradient>
<radialGradient id="paint2_radial_32_210" cx="0" cy="0" r="1" gradientUnits="userSpaceOnUse" gradientTransform="translate(65.9972 145.847) rotate(-90) scale(117.598)">
<stop stop-color="#FFEF79"/>
<stop offset="1" stop-color="#00C2A1"/>
</radialGradient>
</defs>
</svg>
