<svg version="1.1" xmlns="http://www.w3.org/2000/svg" width="250" height="250">
<path d="M0 0 C0.83655121 0.00176239 1.67310242 0.00352478 2.53500366 0.00534058 C15.71729397 0.06720561 27.93002599 1.02566819 40.4375 5.5 C41.55342529 5.88551025 41.55342529 5.88551025 42.69189453 6.27880859 C57.9957181 11.69012368 71.23276063 19.83529083 83.4375 30.5 C84.19289062 31.11101563 84.94828125 31.72203125 85.7265625 32.3515625 C103.62420731 47.21356437 116.52147486 70.24047523 122.4375 92.5 C122.69789063 93.46800537 122.95828125 94.43601074 123.2265625 95.43334961 C125.63771336 105.35423077 125.99589461 114.89516745 125.9375 125.0625 C125.93540527 125.89971588 125.93331055 126.73693176 125.93115234 127.59951782 C125.86323464 140.77728077 124.97007088 153.01143411 120.4375 165.5 C120.14810547 166.31404297 119.85871094 167.12808594 119.56054688 167.96679688 C113.98411873 183.22797709 105.95638382 196.12979262 95.4375 208.5 C94.50164062 209.63695312 94.50164062 209.63695312 93.546875 210.796875 C78.47919224 228.55959044 55.77889013 241.5622171 33.4375 247.5 C32.46949463 247.76039063 31.50148926 248.02078125 30.50415039 248.2890625 C20.5828905 250.70030541 11.04259093 251.05727617 0.875 251 C0.03844879 250.99823761 -0.79810242 250.99647522 -1.66000366 250.99465942 C-14.84229397 250.93279439 -27.05502599 249.97433181 -39.5625 245.5 C-40.3064502 245.24299316 -41.05040039 244.98598633 -41.81689453 244.72119141 C-57.1207181 239.30987632 -70.35776063 231.16470917 -82.5625 220.5 C-83.69558594 219.58347656 -83.69558594 219.58347656 -84.8515625 218.6484375 C-102.74920731 203.78643563 -115.64647486 180.75952477 -121.5625 158.5 C-121.82289062 157.53199463 -122.08328125 156.56398926 -122.3515625 155.56665039 C-124.76271336 145.64576923 -125.12089461 136.10483255 -125.0625 125.9375 C-125.06040527 125.10028412 -125.05831055 124.26306824 -125.05615234 123.40048218 C-124.98823464 110.22271923 -124.09507088 97.98856589 -119.5625 85.5 C-119.27310547 84.68595703 -118.98371094 83.87191406 -118.68554688 83.03320312 C-113.10911873 67.77202291 -105.08138382 54.87020738 -94.5625 42.5 C-93.93859375 41.74203125 -93.3146875 40.9840625 -92.671875 40.203125 C-77.60419224 22.44040956 -54.90389013 9.4377829 -32.5625 3.5 C-31.11049194 3.10941406 -31.11049194 3.10941406 -29.62915039 2.7109375 C-19.7078905 0.29969459 -10.16759093 -0.05727617 0 0 Z " fill="#FDFDFF" transform="translate(124.5625,-0.5)"/>
<path d="M0 0 C4.62 0.99 9.24 1.98 14 3 C12.73439419 10.49628055 11.08857648 17.68998231 9 25 C12.63 25.66 16.26 26.32 20 27 C20.10957031 26.154375 20.21914062 25.30875 20.33203125 24.4375 C21.24752201 17.88764739 22.37843031 12.07727518 25 6 C29.29 6.99 33.58 7.98 38 9 C36.79903956 16.85243362 35.24936659 24.38214514 33 32 C33.53367187 32.14695313 34.06734375 32.29390625 34.6171875 32.4453125 C44.62665396 35.45854289 52.93872244 40.30660803 59 49 C61.20800058 55.62400175 61.00684071 63.54661943 58.3125 70 C55.18037171 76.00049841 51.16801484 79.2745981 45 82 C45.70125 82.680625 46.4025 83.36125 47.125 84.0625 C53.99029536 90.92779536 57.31847437 94.92021484 57.3894043 104.90209961 C57.22735828 112.87836489 54.43051675 119.93929072 49.8125 126.4375 C43.85555778 131.86493624 36.52304707 135.12111291 28.4453125 135.1328125 C27.15173828 135.13474609 27.15173828 135.13474609 25.83203125 135.13671875 C24.93871094 135.13285156 24.04539062 135.12898437 23.125 135.125 C21.79662109 135.13080078 21.79662109 135.13080078 20.44140625 135.13671875 C15.84724305 135.12987201 11.51951358 134.93970084 7 134 C6.58427734 135.89685547 6.58427734 135.89685547 6.16015625 137.83203125 C5.79435502 139.49220605 5.42846498 141.15236129 5.0625 142.8125 C4.88009766 143.64587891 4.69769531 144.47925781 4.50976562 145.33789062 C4.33251953 146.14033203 4.15527344 146.94277344 3.97265625 147.76953125 C3.81031494 148.50792236 3.64797363 149.24631348 3.48071289 150.00708008 C3 152 3 152 2 155 C0.58297487 154.85769192 -0.8336096 154.71099254 -2.25 154.5625 C-3.43335937 154.44068359 -3.43335937 154.44068359 -4.640625 154.31640625 C-6.82364639 154.02365007 -8.8773182 153.57935581 -11 153 C-10.32545897 145.1753241 -8.73123042 137.65443386 -7 130 C-10.3 129.34 -13.6 128.68 -17 128 C-17.41572266 129.89685547 -17.41572266 129.89685547 -17.83984375 131.83203125 C-18.20564498 133.49220605 -18.57153502 135.15236129 -18.9375 136.8125 C-19.11990234 137.64587891 -19.30230469 138.47925781 -19.49023438 139.33789062 C-19.66748047 140.14033203 -19.84472656 140.94277344 -20.02734375 141.76953125 C-20.18968506 142.50792236 -20.35202637 143.24631348 -20.51928711 144.00708008 C-21 146 -21 146 -22 149 C-23.41702513 148.85769192 -24.8336096 148.71099254 -26.25 148.5625 C-27.43335938 148.44068359 -27.43335938 148.44068359 -28.640625 148.31640625 C-30.82364639 148.02365007 -32.8773182 147.57935581 -35 147 C-34.4533512 138.81911794 -32.82876132 130.98214061 -31 123 C-31.54785156 122.97421875 -32.09570312 122.9484375 -32.66015625 122.921875 C-40.74009417 122.34379814 -48.24921981 120.22189032 -56 118 C-57.25348607 115.04893565 -57.01044806 114.02593537 -55.78515625 110.984375 C-54.19010417 107.98958333 -52.59505208 104.99479167 -51 102 C-44.07 102.495 -44.07 102.495 -37 103 C-33.94593182 96.62428667 -32.35006061 90.03986317 -30.6875 83.1875 C-30.3877124 81.96659668 -30.0879248 80.74569336 -29.77905273 79.48779297 C-28.84402952 75.66057237 -27.92054345 71.83072709 -27 68 C-26.70061523 66.76233887 -26.40123047 65.52467773 -26.09277344 64.24951172 C-25.23993103 60.71016852 -24.39862275 57.16832661 -23.5625 53.625 C-23.30364014 52.54500732 -23.04478027 51.46501465 -22.77807617 50.35229492 C-20.99124392 43.24776051 -20.99124392 43.24776051 -21 36 C-22.58089375 33.58154665 -23.66687286 33.09472305 -26.4453125 32.3046875 C-27.32960938 32.16289063 -28.21390625 32.02109375 -29.125 31.875 C-33.91666667 31.08333333 -33.91666667 31.08333333 -35 30 C-34.78633888 25.29945543 -34.03548394 20.58571459 -33 16 C-25.67110216 16.33773723 -19.0958918 17.98121331 -12.1015625 20.16015625 C-8.89205024 21.17424552 -8.89205024 21.17424552 -5 21 C-3.35 14.07 -1.7 7.14 0 0 Z " fill="#0454FF" transform="translate(120,47)"/>
<path d="M0 0 C0.83655121 0.00176239 1.67310242 0.00352478 2.53500366 0.00534058 C15.71729397 0.06720561 27.93002599 1.02566819 40.4375 5.5 C41.55342529 5.88551025 41.55342529 5.88551025 42.69189453 6.27880859 C57.9957181 11.69012368 71.23276063 19.83529083 83.4375 30.5 C84.19289062 31.11101563 84.94828125 31.72203125 85.7265625 32.3515625 C103.62420731 47.21356437 116.52147486 70.24047523 122.4375 92.5 C122.69789063 93.46800537 122.95828125 94.43601074 123.2265625 95.43334961 C125.63771336 105.35423077 125.99589461 114.89516745 125.9375 125.0625 C125.93540527 125.89971588 125.93331055 126.73693176 125.93115234 127.59951782 C125.86323464 140.77728077 124.97007088 153.01143411 120.4375 165.5 C120.14810547 166.31404297 119.85871094 167.12808594 119.56054688 167.96679688 C113.98411873 183.22797709 105.95638382 196.12979262 95.4375 208.5 C94.50164062 209.63695312 94.50164062 209.63695312 93.546875 210.796875 C78.47919224 228.55959044 55.77889013 241.5622171 33.4375 247.5 C32.46949463 247.76039063 31.50148926 248.02078125 30.50415039 248.2890625 C20.5828905 250.70030541 11.04259093 251.05727617 0.875 251 C0.03844879 250.99823761 -0.79810242 250.99647522 -1.66000366 250.99465942 C-14.84229397 250.93279439 -27.05502599 249.97433181 -39.5625 245.5 C-40.3064502 245.24299316 -41.05040039 244.98598633 -41.81689453 244.72119141 C-57.1207181 239.30987632 -70.35776063 231.16470917 -82.5625 220.5 C-83.69558594 219.58347656 -83.69558594 219.58347656 -84.8515625 218.6484375 C-102.74920731 203.78643563 -115.64647486 180.75952477 -121.5625 158.5 C-121.82289062 157.53199463 -122.08328125 156.56398926 -122.3515625 155.56665039 C-124.76271336 145.64576923 -125.12089461 136.10483255 -125.0625 125.9375 C-125.06040527 125.10028412 -125.05831055 124.26306824 -125.05615234 123.40048218 C-124.98823464 110.22271923 -124.09507088 97.98856589 -119.5625 85.5 C-119.27310547 84.68595703 -118.98371094 83.87191406 -118.68554688 83.03320312 C-113.10911873 67.77202291 -105.08138382 54.87020738 -94.5625 42.5 C-93.93859375 41.74203125 -93.3146875 40.9840625 -92.671875 40.203125 C-77.60419224 22.44040956 -54.90389013 9.4377829 -32.5625 3.5 C-31.11049194 3.10941406 -31.11049194 3.10941406 -29.62915039 2.7109375 C-19.7078905 0.29969459 -10.16759093 -0.05727617 0 0 Z M-11.16015625 12.515625 C-39.27892806 13.55294465 -65.61604704 29.56259769 -84.5625 49.5 C-101.3836842 68.15804807 -111.56945727 92.40679749 -112.5625 117.5 C-112.61349854 118.71260498 -112.61349854 118.71260498 -112.66552734 119.94970703 C-113.75305763 149.8871523 -104.80068959 176.3951682 -85.5625 199.5 C-84.37140625 200.94052734 -84.37140625 200.94052734 -83.15625 202.41015625 C-66.11693729 222.07728504 -40.85454487 235.61732192 -14.875 238.125 C18.41466028 240.18615887 47.01273375 233.93827454 73.4375 212.5 C74.29085937 211.81292969 75.14421875 211.12585938 76.0234375 210.41796875 C96.04838253 193.39360697 106.8912672 169.69980649 112.4375 144.5 C112.61547119 143.70352051 112.79344238 142.90704102 112.97680664 142.08642578 C113.42858901 139.55002812 113.56674151 137.22939997 113.5703125 134.65625 C113.57393799 133.29197876 113.57393799 133.29197876 113.57763672 131.90014648 C113.55258132 127.09961237 113.50595706 122.30010104 113.4375 117.5 C113.42976563 115.71916016 113.42976563 115.71916016 113.421875 113.90234375 C112.42823482 86.96759732 97.46559563 60.87941055 78.4375 42.5 C61.31682388 27.20157406 41.68602137 18.3966836 19.4375 13.5 C18.64102051 13.32202881 17.84454102 13.14405762 17.02392578 12.96069336 C14.48752812 12.50891099 12.16689997 12.37075849 9.59375 12.3671875 C8.68423584 12.36477051 7.77472168 12.36235352 6.83764648 12.35986328 C0.83806636 12.39117686 -5.16070276 12.48956874 -11.16015625 12.515625 Z " fill="#0354FF" transform="translate(124.5625,-0.5)"/>
<path d="M0 0 C11.74419313 1.41320166 23.92110587 3.87760421 33 12 C35.84539129 16.26808693 35.61625375 19.99196323 35 25 C33.20400108 28.95119763 31.70423028 30.55049131 28.0625 32.875 C17.25333126 36.79506334 4.56227568 33.21460564 -6 30 C-5.49623933 22.89764367 -4.25597479 16.25158534 -2.4375 9.375 C-2.20353516 8.46621094 -1.96957031 7.55742187 -1.72851562 6.62109375 C-1.15887311 4.41227583 -0.58265317 2.20541448 0 0 Z " fill="#F8FAFF" transform="translate(114,129)"/>
<path d="M0 0 C9.55272252 0.74024787 20.10185256 4.10185256 27 11 C29.28853994 14.26934278 29.47162218 17.0698152 29 21 C26.6590937 25.42171189 24.48265745 27.8281209 20 30 C11.75776604 30.93593133 1.59358131 30.79679065 -6 27 C-5.5523739 20.84514112 -4.40631261 14.99562955 -3 9 C-2.82178711 8.23373291 -2.64357422 7.46746582 -2.45996094 6.67797852 C-1.12880659 1.12880659 -1.12880659 1.12880659 0 0 Z " fill="#F8FAFF" transform="translate(125,88)"/>
</svg>
