<svg width="297" height="297" viewBox="0 0 297 297" fill="none" xmlns="http://www.w3.org/2000/svg">
<g clip-path="url(#clip0_2013_2)">
<mask id="mask0_2013_2" style="mask-type:luminance" maskUnits="userSpaceOnUse" x="0" y="0" width="297" height="297">
<path d="M297 0H0V297H297V0Z" fill="white"/>
</mask>
<g mask="url(#mask0_2013_2)">
<path d="M297 0H0V297H297V0Z" fill="#AE0822"/>
<path d="M148.5 297C230.514 297 297 230.514 297 148.5C297 66.4857 230.514 0 148.5 0C66.4857 0 0 66.4857 0 148.5C0 230.514 66.4857 297 148.5 297Z" fill="#AE0822"/>
<path d="M200.538 61.3117L200.353 61.0176H95.8647L43.3501 147.398L95.6803 233.483L95.8647 233.777H200.353L252.868 147.398L200.538 61.3117ZM111.517 99.1704L86.311 140.632H62.3838L99.4919 79.5976L111.505 99.1704H111.517ZM122.583 201.226H173.561L185.488 221.056H110.657L122.583 201.226ZM173.696 92.7605H122.534L110.853 73.7393H185.365L173.684 92.7605H173.696ZM122.596 188.504L97.3648 146.993L122.596 105.482H173.61L198.841 146.993L173.61 188.504H122.596ZM209.907 140.632L184.713 99.1826L196.726 79.6099L233.822 140.632H209.907ZM111.542 194.865L99.4059 215.05L61.9042 153.366H86.311L111.542 194.865ZM234.326 153.354L196.787 215.099L184.652 194.914L209.919 153.354H234.326Z" fill="#FBEBEB"/>
</g>
</g>
<defs>
<clipPath id="clip0_2013_2">
<rect width="297" height="297" rx="148.5" fill="white"/>
</clipPath>
</defs>
</svg>
