<svg width="24" height="24" viewBox="0 0 24 24" fill="none" xmlns="http://www.w3.org/2000/svg">
<path d="M12 24C18.65 24 24 18.65 24 12C24 5.34996 18.65 3.64002e-07 12 2.3421e-07C5.34996 1.04418e-07 -1.04418e-07 5.34996 -2.3421e-07 12C-3.64002e-07 18.65 5.34996 24 12 24Z" fill="url(#paint0_radial_2346_19454)"/>
<path d="M15.3001 13.8999C15.3001 12.1499 14.2501 11.5499 12.1501 11.2999C10.6501 11.0999 10.3501 10.6999 10.3501 9.99985C10.3501 9.29977 10.8501 8.84989 11.8501 8.84989C12.7501 8.84989 13.2501 9.14989 13.5001 9.89989C13.5501 10.0499 13.7001 10.1499 13.8501 10.1499L14.65 10.1499C14.8501 10.1499 15.0001 9.99985 15.0001 9.79993L15.0001 9.74989C14.8 8.64985 13.9 7.79989 12.7501 7.69993L12.7501 6.49993C12.7501 6.29989 12.6001 6.14989 12.3501 6.09985L11.6001 6.09985C11.4001 6.09985 11.2501 6.24985 11.2 6.49993L11.2 7.64989C9.70002 7.84993 8.7501 8.84989 8.7501 10.0999C8.7501 11.7499 9.75006 12.3999 11.8501 12.6499C13.2501 12.8999 13.7001 13.1999 13.7001 13.9999C13.7001 14.8 13 15.3499 12.0501 15.3499C10.75 15.3499 10.3 14.7999 10.15 14.0499C10.1001 13.8499 9.9501 13.7499 9.8001 13.7499L8.95002 13.7499C8.7501 13.7499 8.6001 13.8999 8.6001 14.0999L8.6001 14.1499C8.80002 15.3999 9.60006 16.2999 11.2501 16.5499L11.2501 17.7499C11.2501 17.9499 11.4001 18.0999 11.65 18.1499L12.4 18.1499C12.6001 18.1499 12.7501 17.9999 12.8001 17.7499L12.8001 16.5499C14.3001 16.2999 15.3001 15.2499 15.3001 13.8999Z" fill="white"/>
<path fill-rule="evenodd" clip-rule="evenodd" d="M5.00014 9.54992C3.55006 13.4 5.5501 17.75 9.4501 19.1499C9.6001 19.25 9.7501 19.4499 9.7501 19.5999L9.7501 20.3C9.7501 20.4 9.7501 20.45 9.70006 20.4999C9.65014 20.7 9.4501 20.7999 9.25006 20.7C6.4501 19.8 4.30006 17.6499 3.40006 14.85C1.90006 10.1 4.5001 5.04992 9.25006 3.54992C9.3001 3.5 9.40006 3.5 9.4501 3.5C9.65014 3.54992 9.7501 3.69992 9.7501 3.89996L9.7501 4.59992C9.7501 4.85 9.65014 5 9.4501 5.09996C7.40014 5.84996 5.75014 7.44992 5.00014 9.54992ZM14.3001 3.74998C14.3501 3.54994 14.5501 3.44998 14.7501 3.54994C17.5001 4.44994 19.7001 6.59998 20.6001 9.44998C22.1001 14.1999 19.5001 19.25 14.7501 20.75C14.7001 20.7999 14.6001 20.7999 14.5501 20.7999C14.3501 20.75 14.2501 20.6 14.2501 20.4L14.2501 19.7C14.2501 19.4499 14.3501 19.2999 14.5501 19.2C16.6001 18.45 18.2501 16.85 19.0001 14.75C20.4501 10.8999 18.4501 6.54994 14.5501 5.15002C14.4001 5.04994 14.2501 4.85002 14.2501 4.64998L14.2501 3.95002C14.2501 3.84994 14.2501 3.80002 14.3001 3.74998Z" fill="white"/>
<defs>
<radialGradient id="paint0_radial_2346_19454" cx="0" cy="0" r="1" gradientUnits="userSpaceOnUse" gradientTransform="translate(12 49) rotate(-90) scale(49)">
<stop stop-color="#2775CA"/>
<stop offset="1" stop-color="#00C2A1"/>
</radialGradient>
</defs>
</svg>
