<svg width="34" height="35" viewBox="0 0 34 35" fill="none" xmlns="http://www.w3.org/2000/svg">
<path d="M17 33.5C25.8667 33.5 33 26.3667 33 17.5C33 8.63328 25.8667 1.5 17 1.5C8.13328 1.5 1 8.63328 1 17.5C1 26.3667 8.13328 33.5 17 33.5Z" fill="white"/>
<path d="M17 34C26.1429 34 33.5 26.6429 33.5 17.5C33.5 8.35714 26.1429 1 17 1C7.85714 1 0.5 8.35714 0.5 17.5C0.5 26.6429 7.85714 34 17 34Z" stroke="#234254" stroke-opacity="0.1"/>
<path d="M25.3694 17.0794L17.9206 9.63062C17.6669 9.37687 17.3331 9.25 17 9.25C16.6669 9.25 16.3331 9.37687 16.0794 9.63062L8.63062 17.0794C8.37687 17.3331 8.25 17.6663 8.25 18C8.25 18.3337 8.37687 18.6669 8.63062 18.9206L16.0788 26.3687C16.3331 26.6231 16.6669 26.75 17 26.75C17.3331 26.75 17.6669 26.6231 17.9206 26.3694L25.3687 18.9213C25.6231 18.6669 25.75 18.3337 25.75 18C25.75 17.6663 25.6231 17.3331 25.3694 17.0794ZM17 25.5225L9.47812 18L17 10.4775L24.5225 18L17 25.5225Z" fill="#6A7692"/>
</svg>
