<svg width="26" height="26" viewBox="0 0 26 26" fill="none" xmlns="http://www.w3.org/2000/svg">
<path d="M13 0.5C6.09644 0.5 0.5 6.09644 0.5 13C0.5 19.9036 6.09644 25.5 13 25.5C19.9036 25.5 25.5 19.9036 25.5 13C25.5 6.09644 19.9036 0.5 13 0.5Z" fill="white"/>
<path d="M13 0.5C6.09644 0.5 0.5 6.09644 0.5 13C0.5 19.9036 6.09644 25.5 13 25.5C19.9036 25.5 25.5 19.9036 25.5 13C25.5 6.09644 19.9036 0.5 13 0.5Z" stroke="#D9D8E3"/>
<g clip-path="url(#clip0_7243_23192)">
<path d="M6.80002 11.8667C6.65065 12.0159 6.53216 12.1931 6.45132 12.3881C6.37047 12.5832 6.32886 12.7922 6.32886 13.0033C6.32886 13.2145 6.37047 13.4235 6.45132 13.6186C6.53216 13.8136 6.65065 13.9908 6.80002 14.14L11.86 19.2C12.0092 19.3494 12.1864 19.4679 12.3815 19.5487C12.5765 19.6296 12.7856 19.6712 12.9967 19.6712C13.2078 19.6712 13.4169 19.6296 13.6119 19.5487C13.8069 19.4679 13.9841 19.3494 14.1334 19.2L19.1934 14.14C19.3427 13.9908 19.4612 13.8136 19.5421 13.6186C19.6229 13.4235 19.6645 13.2145 19.6645 13.0033C19.6645 12.7922 19.6229 12.5832 19.5421 12.3881C19.4612 12.1931 19.3427 12.0159 19.1934 11.8667L14.1334 6.80667C13.9841 6.65731 13.8069 6.53881 13.6119 6.45797C13.4169 6.37712 13.2078 6.33551 12.9967 6.33551C12.7856 6.33551 12.5765 6.37712 12.3815 6.45797C12.1864 6.53881 12.0092 6.65731 11.86 6.80667L6.80002 11.8667Z" stroke="#5823F3" stroke-width="1.33" stroke-linecap="round" stroke-linejoin="round"/>
</g>
<defs>
<clipPath id="clip0_7243_23192">
<rect width="16" height="16" fill="white" transform="translate(5 5)"/>
</clipPath>
</defs>
</svg>
