<svg width="347" height="347" viewBox="0 0 347 347" fill="none" xmlns="http://www.w3.org/2000/svg">
<circle cx="173.375" cy="173.728" r="173" fill="url(#paint0_radial_677_83)"/>
<path d="M107.211 219.209H82.5919C84.6017 257.645 116.757 291.057 173.784 291.057C230.559 291.057 266.734 259.906 266.734 219.711C266.734 143.341 151.425 147.612 151.425 103.398C151.425 91.0883 160.72 76.5177 182.325 76.5177C206.442 76.5177 234.829 95.359 236.839 119.476H261.207C258.695 80.5372 220.761 53.4058 172.528 53.4058C122.535 53.4058 84.8529 82.5469 84.8529 123.747C84.8529 202.377 200.161 192.078 200.161 240.562C200.161 255.635 190.866 268.196 167.503 268.196C138.362 268.196 108.97 247.848 107.211 219.209ZM127.811 109.176C127.811 168.966 242.115 157.158 242.115 220.967C242.115 240.06 229.554 256.891 214.481 261.162C219.756 256.138 223.776 245.084 223.776 234.533C223.776 175.497 109.221 183.536 109.221 122.993C109.221 102.644 122.284 86.3152 138.613 81.2908C132.333 88.8274 127.811 98.6248 127.811 109.176Z" fill="white"/>
<defs>
<radialGradient id="paint0_radial_677_83" cx="0" cy="0" r="1" gradientUnits="userSpaceOnUse" gradientTransform="translate(173.664 401.767) rotate(-90) scale(554.524)">
<stop stop-color="#FFD232"/>
<stop offset="1" stop-color="#FF6D6D"/>
</radialGradient>
</defs>
</svg>
