<svg width="512" height="512" viewBox="0 0 512 512" fill="none" xmlns="http://www.w3.org/2000/svg">
<path d="M325 287.999L505.837 287.999C512.889 287.999 514.31 278.396 507.897 275.463L320 191.999V6.57526C320 -0.295358 310.819 -2.54983 307.648 3.54533L231.43 150.304L146.972 111.512C138.892 108.248 133.929 114.827 136.672 120.482L187 224H6.16311C-0.888731 224 -2.30992 233.614 4.10316 236.547L192 319.999V505.425C192 512.295 201.202 514.55 204.373 508.455L280.591 361.696L365.049 400.488C373.128 403.752 378.091 397.173 375.348 391.518L325 287.999Z" fill="url(#paint0_linear_1_5608)"/>
<defs>
<linearGradient id="paint0_linear_1_5608" x1="411.48" y1="134.312" x2="81.3454" y2="387.519" gradientUnits="userSpaceOnUse">
<stop stop-color="#FA43BD"/>
<stop offset="1" stop-color="#FFA930"/>
</linearGradient>
</defs>
</svg>
