<svg width="32" height="32" viewBox="0 0 32 32" fill="none" xmlns="http://www.w3.org/2000/svg">
<rect width="32" height="32" rx="16" fill="url(#paint0_linear_17_109)"/>
<path d="M15.9974 13.9108C15.9974 11.7263 18.031 9.95562 20.5391 9.95562C18.0306 9.95562 15.9974 8.18497 15.9974 6.00041C15.9974 8.18497 13.9642 9.95562 11.4557 9.95562C13.9642 9.95562 15.9974 11.7263 15.9974 13.9108Z" fill="white"/>
<path d="M15.9953 13.9094L18.3098 15.0731L21.6781 16.7666L22.335 17.0972L25.9955 15.2554L19.6558 12.068L15.9953 13.9094Z" fill="white"/>
<path d="M15.9965 20.2846L9.65676 17.0972L10.3142 16.7666L11.1519 16.3454L15.9965 13.9094L12.3364 12.068L5.9967 15.2554L9.65456 17.096V17.0983L5.9967 18.9385L9.64271 20.7718L9.63613 22.7802L15.9965 25.968V25.999L22.3362 22.8116V20.7787L25.9967 18.9385L22.3362 17.0972L15.9965 20.2846Z" fill="white"/>
<defs>
<linearGradient id="paint0_linear_17_109" x1="-6.66644" y1="38.6653" x2="-11.5521" y2="6.64501" gradientUnits="userSpaceOnUse">
<stop stop-color="#5823F3"/>
<stop offset="1" stop-color="#61A8FF"/>
</linearGradient>
</defs>
</svg>
