<svg width="20" height="20" viewBox="0 0 20 20" fill="none" xmlns="http://www.w3.org/2000/svg">
<path d="M10 20C15.5228 20 20 15.5228 20 10C20 4.47715 15.5228 0 10 0C4.47715 0 0 4.47715 0 10C0 15.5228 4.47715 20 10 20Z" fill="url(#paint0_linear_3262_17671)"/>
<g clip-path="url(#clip0_3262_17671)">
<path d="M7.27205 7.42578L5.552 8.41881V13.5488L7.27205 14.5418V9.41184L8.99178 8.41881L7.27205 7.42578Z" fill="white"/>
<path d="M12.6991 7.43555L10.9966 8.41843L12.7163 9.41146V14.5415L14.4364 13.5484L14.4508 8.44334L12.6991 7.43555Z" fill="white"/>
<path d="M13.1942 6.51862C11.4363 6.51862 10.0115 5.09381 10.0115 3.33594C10.0115 5.09381 8.58673 6.51862 6.82886 6.51862C8.35638 6.51862 9.63266 7.59499 9.9405 9.03057L8.27704 9.991V15.121L9.99708 16.114L11.7171 15.121V9.991L10.0795 9.04564C10.3818 7.60268 11.6615 6.51893 13.1945 6.51893L13.1942 6.51862Z" fill="white"/>
</g>
<defs>
<linearGradient id="paint0_linear_3262_17671" x1="-4.16652" y1="24.1658" x2="-7.22006" y2="4.15313" gradientUnits="userSpaceOnUse">
<stop stop-color="#5823F3"/>
<stop offset="1" stop-color="#61A8FF"/>
</linearGradient>
<clipPath id="clip0_3262_17671">
<rect width="8.89976" height="12.7778" fill="white" transform="translate(5.55371 3.33594)"/>
</clipPath>
</defs>
</svg>
