<svg width="16" height="16" viewBox="0 0 16 16" fill="none" xmlns="http://www.w3.org/2000/svg">
<path d="M11 13.59L9.705 12.295L9 13L11 15L15 11L14.295 10.295L11 13.59Z" fill="rgba(255,255,255,.5)"/>
<path d="M7.5 14H4V1.99999H8V4.99999C8.00077 5.26497 8.10637 5.51888 8.29374 5.70625C8.48111 5.89362 8.73502 5.99922 9 5.99999H12V8.99999H13V4.99999C13.0018 4.93427 12.9893 4.86895 12.9634 4.80853C12.9375 4.7481 12.8988 4.69401 12.85 4.64999L9.35 1.14999C9.30599 1.10115 9.2519 1.06245 9.19147 1.03655C9.13104 1.01066 9.06572 0.998181 9 0.999989H4C3.73502 1.00075 3.48111 1.10636 3.29374 1.29373C3.10637 1.4811 3.00077 1.73501 3 1.99999V14C3.00077 14.265 3.10637 14.5189 3.29374 14.7063C3.48111 14.8936 3.73502 14.9992 4 15H7.5V14ZM9 2.19999L11.8 4.99999H9V2.19999Z" fill="rgba(255,255,255,.5)"/>
</svg>
