<svg width="16" height="16" viewBox="0 0 16 16" fill="none" xmlns="http://www.w3.org/2000/svg">
<path d="M10.4999 12H5.49989C5.23468 12 4.98032 12.1054 4.79279 12.2929C4.60525 12.4804 4.49989 12.7348 4.49989 13V14C4.49989 14.2652 4.60525 14.5196 4.79279 14.7071C4.98032 14.8947 5.23468 15 5.49989 15H10.4999C10.7651 15 11.0195 14.8947 11.207 14.7071C11.3945 14.5196 11.4999 14.2652 11.4999 14V13C11.4999 12.7348 11.3945 12.4804 11.207 12.2929C11.0195 12.1054 10.7651 12 10.4999 12ZM10.4999 14H5.49989V13H10.4999V14ZM14.3534 7.14652L8.35339 1.14652C8.30699 1.10007 8.25188 1.06322 8.19122 1.03808C8.13057 1.01294 8.06555 1 7.99989 1C7.93423 1 7.86922 1.01294 7.80856 1.03808C7.74791 1.06322 7.6928 1.10007 7.64639 1.14652L1.64639 7.14652C1.57649 7.21644 1.52889 7.30553 1.5096 7.4025C1.49032 7.49948 1.50022 7.59999 1.53805 7.69134C1.57589 7.78269 1.63996 7.86078 1.72216 7.91572C1.80437 7.97066 1.90102 8 1.99989 8.00002H4.49989V10C4.5002 10.2651 4.60565 10.5193 4.79312 10.7068C4.98059 10.8943 5.23477 10.9997 5.49989 11H10.4999C10.765 10.9997 11.0191 10.8942 11.2066 10.7067C11.3941 10.5193 11.4995 10.2651 11.4999 10V8.00002H13.9999C14.0988 8 14.1954 7.97066 14.2776 7.91572C14.3598 7.86078 14.4239 7.78269 14.4617 7.69134C14.4996 7.59999 14.5095 7.49948 14.4902 7.4025C14.4709 7.30553 14.4233 7.21644 14.3534 7.14652ZM10.4999 7.00002V10H5.49989V7.00002H3.20694L7.99989 2.20707L12.7928 7.00002H10.4999Z" fill="rgba(255,255,255,.5)"/>
</svg>
