<svg width="404" height="24" viewBox="0 0 404 24" fill="none" xmlns="http://www.w3.org/2000/svg">
<path d="M1.15909 16V15.233L4.03977 12.0795C4.37784 11.7102 4.65625 11.3892 4.875 11.1165C5.09375 10.8409 5.25568 10.5824 5.3608 10.3409C5.46875 10.0966 5.52273 9.84091 5.52273 9.57386C5.52273 9.26705 5.44886 9.00142 5.30114 8.77699C5.15625 8.55256 4.95739 8.37926 4.70455 8.2571C4.4517 8.13494 4.16761 8.07386 3.85227 8.07386C3.51705 8.07386 3.22443 8.14347 2.97443 8.28267C2.72727 8.41903 2.53551 8.6108 2.39915 8.85795C2.26563 9.10511 2.19886 9.39489 2.19886 9.72727H1.19318C1.19318 9.21591 1.31108 8.76705 1.54688 8.38068C1.78267 7.99432 2.10369 7.69318 2.50994 7.47727C2.91903 7.26136 3.37784 7.15341 3.88636 7.15341C4.39773 7.15341 4.85085 7.26136 5.24574 7.47727C5.64063 7.69318 5.95028 7.98437 6.17472 8.35085C6.39915 8.71733 6.51136 9.125 6.51136 9.57386C6.51136 9.89489 6.45312 10.2088 6.33665 10.5156C6.22301 10.8196 6.02415 11.1591 5.74006 11.5341C5.45881 11.9062 5.06818 12.3608 4.56818 12.8977L2.60795 14.9943V15.0625H6.66477V16H1.15909ZM9.42294 16.0682C9.21271 16.0682 9.03232 15.9929 8.88175 15.8423C8.73118 15.6918 8.65589 15.5114 8.65589 15.3011C8.65589 15.0909 8.73118 14.9105 8.88175 14.7599C9.03232 14.6094 9.21271 14.5341 9.42294 14.5341C9.63317 14.5341 9.81357 14.6094 9.96413 14.7599C10.1147 14.9105 10.19 15.0909 10.19 15.3011C10.19 15.4403 10.1545 15.5682 10.0835 15.6847C10.0153 15.8011 9.92294 15.8949 9.80646 15.9659C9.69283 16.0341 9.56499 16.0682 9.42294 16.0682Z" fill="#6A7692"/>
<path d="M38.4999 16H33.4999C33.2347 16 32.9803 16.1054 32.7928 16.2929C32.6053 16.4804 32.4999 16.7348 32.4999 17V18C32.4999 18.2652 32.6053 18.5196 32.7928 18.7071C32.9803 18.8947 33.2347 19 33.4999 19H38.4999C38.7651 19 39.0195 18.8947 39.207 18.7071C39.3945 18.5196 39.4999 18.2652 39.4999 18V17C39.4999 16.7348 39.3945 16.4804 39.207 16.2929C39.0195 16.1054 38.7651 16 38.4999 16ZM38.4999 18H33.4999V17H38.4999V18ZM42.3534 11.1465L36.3534 5.14652C36.307 5.10007 36.2519 5.06322 36.1912 5.03808C36.1306 5.01294 36.0656 5 35.9999 5C35.9342 5 35.8692 5.01294 35.8086 5.03808C35.7479 5.06322 35.6928 5.10007 35.6464 5.14652L29.6464 11.1465C29.5765 11.2164 29.5289 11.3055 29.5096 11.4025C29.4903 11.4995 29.5002 11.6 29.5381 11.6913C29.5759 11.7827 29.64 11.8608 29.7222 11.9157C29.8044 11.9707 29.901 12 29.9999 12H32.4999V14C32.5002 14.2651 32.6057 14.5193 32.7931 14.7068C32.9806 14.8943 33.2348 14.9997 33.4999 15H38.4999C38.765 14.9997 39.0191 14.8942 39.2066 14.7067C39.3941 14.5193 39.4995 14.2651 39.4999 14V12H41.9999C42.0988 12 42.1954 11.9707 42.2776 11.9157C42.3598 11.8608 42.4239 11.7827 42.4617 11.6913C42.4996 11.6 42.5095 11.4995 42.4902 11.4025C42.4709 11.3055 42.4233 11.2164 42.3534 11.1465ZM38.4999 11V14H33.4999V11H31.2069L35.9999 6.20707L40.7928 11H38.4999Z" fill="#0B2140"/>
<g clip-path="url(#clip0_6063_546)">
<path d="M72 24C78.6274 24 84 18.6274 84 12C84 5.37258 78.6274 0 72 0C65.3726 0 60 5.37258 60 12C60 18.6274 65.3726 24 72 24Z" fill="#F4B731"/>
<path fill-rule="evenodd" clip-rule="evenodd" d="M66.9578 6H71.8718C74.8605 6 77.1262 7.587 77.9692 9.8955H79.5V11.2913H78.2917C78.315 11.5118 78.327 11.7368 78.327 11.9648V11.9992C78.327 12.2557 78.312 12.5093 78.282 12.7568H79.5V14.1517H77.94C77.0752 16.4288 74.8275 18 71.8725 18H66.9578V14.1517H65.25V12.7568H66.9578V11.2913H65.25V9.89625H66.9578V6ZM68.331 14.1517V16.7482H71.871C74.0565 16.7482 75.6795 15.708 76.4347 14.1517H68.331ZM76.8555 12.7568H68.331V11.2913H76.8585C76.8893 11.5215 76.9058 11.7577 76.9058 11.9992V12.033C76.9058 12.2798 76.8885 12.5205 76.8555 12.756V12.7568ZM71.8725 7.24875C74.067 7.24875 75.6952 8.31675 76.446 9.89475H68.331V7.2495H71.871L71.8725 7.24875Z" fill="white"/>
</g>
<g clip-path="url(#clip1_6063_546)">
<path d="M88 24C94.6274 24 100 18.6274 100 12C100 5.37258 94.6274 0 88 0C81.3726 0 76 5.37258 76 12C76 18.6274 81.3726 24 88 24Z" fill="url(#paint0_linear_6063_546)"/>
</g>
<path d="M117.045 6.36364H118.455V14.0682C118.455 14.8636 118.267 15.5739 117.892 16.1989C117.521 16.8201 116.996 17.3106 116.318 17.6705C115.64 18.0265 114.845 18.2045 113.932 18.2045C113.019 18.2045 112.223 18.0265 111.545 17.6705C110.867 17.3106 110.341 16.8201 109.966 16.1989C109.595 15.5739 109.409 14.8636 109.409 14.0682V6.36364H110.818V13.9545C110.818 14.5227 110.943 15.0284 111.193 15.4716C111.443 15.911 111.799 16.2576 112.261 16.5114C112.727 16.7614 113.284 16.8864 113.932 16.8864C114.58 16.8864 115.136 16.7614 115.602 16.5114C116.068 16.2576 116.424 15.911 116.67 15.4716C116.92 15.0284 117.045 14.5227 117.045 13.9545V6.36364ZM121.087 21.2727V9.27273H122.382V10.6591H122.541C122.64 10.5076 122.776 10.3144 122.95 10.0795C123.128 9.84091 123.382 9.62879 123.712 9.44318C124.045 9.25379 124.496 9.15909 125.064 9.15909C125.799 9.15909 126.446 9.3428 127.007 9.71023C127.568 10.0777 128.005 10.5985 128.32 11.2727C128.634 11.947 128.791 12.7424 128.791 13.6591C128.791 14.5833 128.634 15.3845 128.32 16.0625C128.005 16.7367 127.57 17.2595 127.013 17.6307C126.456 17.9981 125.814 18.1818 125.087 18.1818C124.526 18.1818 124.077 18.089 123.74 17.9034C123.403 17.714 123.143 17.5 122.962 17.2614C122.78 17.0189 122.64 16.8182 122.541 16.6591H122.428V21.2727H121.087ZM122.405 13.6364C122.405 14.2955 122.501 14.8769 122.695 15.3807C122.888 15.8807 123.17 16.2727 123.541 16.5568C123.912 16.8371 124.367 16.9773 124.905 16.9773C125.465 16.9773 125.933 16.8295 126.308 16.5341C126.687 16.2348 126.971 15.8333 127.161 15.3295C127.354 14.822 127.45 14.2576 127.45 13.6364C127.45 13.0227 127.356 12.4697 127.166 11.9773C126.981 11.4811 126.698 11.089 126.32 10.8011C125.945 10.5095 125.473 10.3636 124.905 10.3636C124.359 10.3636 123.901 10.5019 123.53 10.7784C123.159 11.0511 122.878 11.4337 122.689 11.9261C122.5 12.4148 122.405 12.9848 122.405 13.6364ZM134.359 21.4545C133.712 21.4545 133.155 21.3712 132.689 21.2045C132.223 21.0417 131.835 20.8258 131.524 20.5568C131.217 20.2917 130.973 20.0076 130.791 19.7045L131.859 18.9545C131.981 19.1136 132.134 19.2955 132.32 19.5C132.505 19.7083 132.759 19.8883 133.081 20.0398C133.407 20.1951 133.833 20.2727 134.359 20.2727C135.064 20.2727 135.645 20.1023 136.104 19.7614C136.562 19.4205 136.791 18.8864 136.791 18.1591V16.3864H136.678C136.579 16.5455 136.439 16.7424 136.257 16.9773C136.079 17.2083 135.821 17.4148 135.484 17.5966C135.151 17.7746 134.7 17.8636 134.132 17.8636C133.428 17.8636 132.795 17.697 132.234 17.3636C131.678 17.0303 131.236 16.5455 130.911 15.9091C130.589 15.2727 130.428 14.5 130.428 13.5909C130.428 12.697 130.585 11.9186 130.899 11.2557C131.214 10.589 131.651 10.0739 132.212 9.71023C132.772 9.3428 133.42 9.15909 134.155 9.15909C134.723 9.15909 135.174 9.25379 135.507 9.44318C135.844 9.62879 136.102 9.84091 136.28 10.0795C136.462 10.3144 136.602 10.5076 136.7 10.6591H136.837V9.27273H138.132V18.25C138.132 19 137.962 19.6098 137.621 20.0795C137.284 20.553 136.829 20.8996 136.257 21.1193C135.689 21.3428 135.056 21.4545 134.359 21.4545ZM134.314 16.6591C134.852 16.6591 135.306 16.536 135.678 16.2898C136.049 16.0436 136.331 15.6894 136.524 15.2273C136.717 14.7652 136.814 14.2121 136.814 13.5682C136.814 12.9394 136.719 12.3845 136.53 11.9034C136.34 11.4223 136.06 11.0455 135.689 10.7727C135.318 10.5 134.859 10.3636 134.314 10.3636C133.746 10.3636 133.272 10.5076 132.893 10.7955C132.518 11.0833 132.236 11.4697 132.047 11.9545C131.861 12.4394 131.768 12.9773 131.768 13.5682C131.768 14.1742 131.863 14.7102 132.053 15.1761C132.246 15.6383 132.53 16.0019 132.905 16.267C133.284 16.5284 133.753 16.6591 134.314 16.6591ZM140.587 18V9.27273H141.882V10.5909H141.973C142.132 10.1591 142.42 9.80871 142.837 9.53977C143.253 9.27083 143.723 9.13636 144.246 9.13636C144.344 9.13636 144.467 9.13826 144.615 9.14205C144.763 9.14583 144.875 9.15152 144.95 9.15909V10.5227C144.905 10.5114 144.801 10.4943 144.638 10.4716C144.479 10.4451 144.31 10.4318 144.132 10.4318C143.708 10.4318 143.329 10.5208 142.996 10.6989C142.666 10.8731 142.405 11.1155 142.212 11.4261C142.022 11.733 141.928 12.0833 141.928 12.4773V18H140.587ZM149.108 18.2045C148.555 18.2045 148.053 18.1004 147.602 17.892C147.152 17.6799 146.794 17.375 146.528 16.9773C146.263 16.5758 146.131 16.0909 146.131 15.5227C146.131 15.0227 146.229 14.6174 146.426 14.3068C146.623 13.9924 146.886 13.7462 147.216 13.5682C147.545 13.3902 147.909 13.2576 148.307 13.1705C148.708 13.0795 149.112 13.0076 149.517 12.9545C150.047 12.8864 150.477 12.8352 150.807 12.8011C151.14 12.7633 151.383 12.7008 151.534 12.6136C151.689 12.5265 151.767 12.375 151.767 12.1591V12.1136C151.767 11.553 151.614 11.1174 151.307 10.8068C151.004 10.4962 150.544 10.3409 149.926 10.3409C149.286 10.3409 148.784 10.4811 148.42 10.7614C148.057 11.0417 147.801 11.3409 147.653 11.6591L146.381 11.2045C146.608 10.6742 146.911 10.2614 147.29 9.96591C147.672 9.66667 148.089 9.45833 148.54 9.34091C148.994 9.2197 149.441 9.15909 149.881 9.15909C150.161 9.15909 150.483 9.19318 150.847 9.26136C151.214 9.32576 151.568 9.46023 151.909 9.66477C152.254 9.86932 152.54 10.178 152.767 10.5909C152.994 11.0038 153.108 11.5568 153.108 12.25V18H151.767V16.8182H151.699C151.608 17.0076 151.456 17.2102 151.244 17.4261C151.032 17.642 150.75 17.8258 150.398 17.9773C150.045 18.1288 149.616 18.2045 149.108 18.2045ZM149.312 17C149.843 17 150.29 16.8958 150.653 16.6875C151.021 16.4792 151.297 16.2102 151.483 15.8807C151.672 15.5511 151.767 15.2045 151.767 14.8409V13.6136C151.71 13.6818 151.585 13.7443 151.392 13.8011C151.203 13.8542 150.983 13.9015 150.733 13.9432C150.487 13.9811 150.246 14.0152 150.011 14.0455C149.78 14.072 149.593 14.0947 149.449 14.1136C149.1 14.1591 148.775 14.233 148.472 14.3352C148.172 14.4337 147.93 14.5833 147.744 14.7841C147.563 14.9811 147.472 15.25 147.472 15.5909C147.472 16.0568 147.644 16.4091 147.989 16.6477C148.337 16.8826 148.778 17 149.312 17ZM158.851 18.1818C158.124 18.1818 157.482 17.9981 156.925 17.6307C156.368 17.2595 155.932 16.7367 155.618 16.0625C155.304 15.3845 155.146 14.5833 155.146 13.6591C155.146 12.7424 155.304 11.947 155.618 11.2727C155.932 10.5985 156.37 10.0777 156.93 9.71023C157.491 9.3428 158.139 9.15909 158.874 9.15909C159.442 9.15909 159.891 9.25379 160.22 9.44318C160.554 9.62879 160.807 9.84091 160.982 10.0795C161.16 10.3144 161.298 10.5076 161.396 10.6591H161.51V6.36364H162.851V18H161.555V16.6591H161.396C161.298 16.8182 161.158 17.0189 160.976 17.2614C160.794 17.5 160.535 17.714 160.197 17.9034C159.86 18.089 159.411 18.1818 158.851 18.1818ZM159.033 16.9773C159.571 16.9773 160.025 16.8371 160.396 16.5568C160.768 16.2727 161.05 15.8807 161.243 15.3807C161.436 14.8769 161.533 14.2955 161.533 13.6364C161.533 12.9848 161.438 12.4148 161.249 11.9261C161.059 11.4337 160.779 11.0511 160.408 10.7784C160.036 10.5019 159.578 10.3636 159.033 10.3636C158.464 10.3636 157.991 10.5095 157.612 10.8011C157.237 11.089 156.955 11.4811 156.766 11.9773C156.58 12.4697 156.487 13.0227 156.487 13.6364C156.487 14.2576 156.582 14.822 156.771 15.3295C156.964 15.8333 157.249 16.2348 157.624 16.5341C158.002 16.8295 158.472 16.9773 159.033 16.9773ZM169.152 18.1818C168.311 18.1818 167.586 17.9962 166.976 17.625C166.37 17.25 165.902 16.7273 165.572 16.0568C165.247 15.3826 165.084 14.5985 165.084 13.7045C165.084 12.8106 165.247 12.0227 165.572 11.3409C165.902 10.6553 166.36 10.1212 166.947 9.73864C167.538 9.35227 168.228 9.15909 169.016 9.15909C169.47 9.15909 169.919 9.23485 170.362 9.38636C170.805 9.53788 171.209 9.78409 171.572 10.125C171.936 10.4621 172.226 10.9091 172.442 11.4659C172.658 12.0227 172.766 12.7083 172.766 13.5227V14.0909H166.038V12.9318H171.402C171.402 12.4394 171.304 12 171.107 11.6136C170.913 11.2273 170.637 10.9223 170.277 10.6989C169.921 10.4754 169.5 10.3636 169.016 10.3636C168.482 10.3636 168.019 10.4962 167.629 10.7614C167.243 11.0227 166.946 11.3636 166.737 11.7841C166.529 12.2045 166.425 12.6553 166.425 13.1364V13.9091C166.425 14.5682 166.538 15.1269 166.766 15.5852C166.997 16.0398 167.317 16.3864 167.726 16.625C168.135 16.8598 168.61 16.9773 169.152 16.9773C169.504 16.9773 169.822 16.928 170.107 16.8295C170.394 16.7273 170.643 16.5758 170.851 16.375C171.059 16.1705 171.22 15.9167 171.334 15.6136L172.629 15.9773C172.493 16.4167 172.264 16.803 171.942 17.1364C171.62 17.4659 171.222 17.7235 170.749 17.9091C170.275 18.0909 169.743 18.1818 169.152 18.1818ZM183.169 18H179.226V6.36364H183.249C184.404 6.36364 185.396 6.59659 186.226 7.0625C187.059 7.52462 187.699 8.18939 188.146 9.05682C188.593 9.92424 188.817 10.9621 188.817 12.1705C188.817 13.3826 188.591 14.4242 188.141 15.2955C187.694 16.1667 187.048 16.8352 186.203 17.3011C185.362 17.767 184.351 18 183.169 18ZM181.334 16.1761H183.067C183.877 16.1761 184.554 16.0284 185.095 15.733C185.637 15.4337 186.044 14.9886 186.317 14.3977C186.589 13.803 186.726 13.0606 186.726 12.1705C186.726 11.2803 186.589 10.5417 186.317 9.95455C186.044 9.36364 185.641 8.92235 185.107 8.63068C184.576 8.33523 183.917 8.1875 183.129 8.1875H181.334V16.1761ZM191.689 18H189.439L193.536 6.36364H196.138L200.24 18H197.99L194.882 8.75H194.791L191.689 18ZM191.763 13.4375H197.899V15.1307H191.763V13.4375ZM203.881 6.36364V18H201.773V6.36364H203.881ZM214.538 9.27273V10.4091H210.016V9.27273H214.538ZM211.334 7.18182H212.675V15.5C212.675 15.8788 212.73 16.1629 212.839 16.3523C212.953 16.5379 213.097 16.6629 213.271 16.7273C213.449 16.7879 213.637 16.8182 213.834 16.8182C213.982 16.8182 214.103 16.8106 214.197 16.7955C214.292 16.7765 214.368 16.7614 214.425 16.75L214.697 17.9545C214.607 17.9886 214.48 18.0227 214.317 18.0568C214.154 18.0947 213.947 18.1136 213.697 18.1136C213.319 18.1136 212.947 18.0322 212.584 17.8693C212.224 17.7064 211.925 17.4583 211.686 17.125C211.451 16.7917 211.334 16.3712 211.334 15.8636V7.18182ZM220.007 18.1818C219.219 18.1818 218.528 17.9943 217.933 17.6193C217.342 17.2443 216.88 16.7197 216.547 16.0455C216.217 15.3712 216.053 14.5833 216.053 13.6818C216.053 12.7727 216.217 11.9792 216.547 11.3011C216.88 10.6231 217.342 10.0966 217.933 9.72159C218.528 9.34659 219.219 9.15909 220.007 9.15909C220.795 9.15909 221.484 9.34659 222.075 9.72159C222.67 10.0966 223.132 10.6231 223.462 11.3011C223.795 11.9792 223.962 12.7727 223.962 13.6818C223.962 14.5833 223.795 15.3712 223.462 16.0455C223.132 16.7197 222.67 17.2443 222.075 17.6193C221.484 17.9943 220.795 18.1818 220.007 18.1818ZM220.007 16.9773C220.606 16.9773 221.098 16.8239 221.484 16.517C221.871 16.2102 222.157 15.8068 222.342 15.3068C222.528 14.8068 222.621 14.2652 222.621 13.6818C222.621 13.0985 222.528 12.5549 222.342 12.0511C222.157 11.5473 221.871 11.1402 221.484 10.8295C221.098 10.5189 220.606 10.3636 220.007 10.3636C219.409 10.3636 218.916 10.5189 218.53 10.8295C218.143 11.1402 217.857 11.5473 217.672 12.0511C217.486 12.5549 217.393 13.0985 217.393 13.6818C217.393 14.2652 217.486 14.8068 217.672 15.3068C217.857 15.8068 218.143 16.2102 218.53 16.517C218.916 16.8239 219.409 16.9773 220.007 16.9773ZM239.991 6.36364V18H238.116L232.634 10.0739H232.537V18H230.429V6.36364H232.315L237.793 14.2955H237.895V6.36364H239.991ZM248.612 9.5625C248.559 9.06629 248.336 8.67992 247.942 8.40341C247.552 8.12689 247.044 7.98864 246.419 7.98864C245.98 7.98864 245.603 8.05492 245.288 8.1875C244.974 8.32008 244.733 8.5 244.567 8.72727C244.4 8.95455 244.315 9.21402 244.311 9.50568C244.311 9.74811 244.366 9.95833 244.476 10.1364C244.589 10.3144 244.743 10.4659 244.936 10.5909C245.129 10.7121 245.343 10.8144 245.578 10.8977C245.813 10.9811 246.05 11.0511 246.288 11.108L247.379 11.3807C247.819 11.483 248.241 11.6212 248.646 11.7955C249.055 11.9697 249.421 12.1894 249.743 12.4545C250.069 12.7197 250.326 13.0398 250.516 13.4148C250.705 13.7898 250.8 14.2292 250.8 14.733C250.8 15.4148 250.625 16.0152 250.277 16.5341C249.929 17.0492 249.425 17.4527 248.766 17.7443C248.11 18.0322 247.317 18.1761 246.385 18.1761C245.48 18.1761 244.694 18.036 244.027 17.7557C243.364 17.4754 242.845 17.0663 242.47 16.5284C242.099 15.9905 241.898 15.3352 241.868 14.5625H243.942C243.972 14.9678 244.097 15.3049 244.317 15.5739C244.536 15.8428 244.822 16.0436 245.175 16.1761C245.531 16.3087 245.929 16.375 246.368 16.375C246.826 16.375 247.228 16.3068 247.572 16.1705C247.921 16.0303 248.194 15.8371 248.391 15.5909C248.588 15.3409 248.688 15.0492 248.692 14.7159C248.688 14.4129 248.599 14.1629 248.425 13.9659C248.25 13.7652 248.006 13.5985 247.692 13.4659C247.381 13.3295 247.018 13.2083 246.601 13.1023L245.277 12.7614C244.319 12.5152 243.561 12.142 243.004 11.642C242.451 11.1383 242.175 10.4697 242.175 9.63636C242.175 8.95076 242.36 8.35038 242.732 7.83523C243.107 7.32008 243.616 6.92045 244.26 6.63636C244.904 6.34848 245.633 6.20455 246.447 6.20455C247.273 6.20455 247.997 6.34848 248.618 6.63636C249.243 6.92045 249.733 7.31629 250.089 7.82386C250.446 8.32765 250.629 8.9072 250.641 9.5625H248.612ZM252.168 8.13068V6.36364H261.452V8.13068H257.855V18H255.764V8.13068H252.168Z" fill="#0B2140"/>
<defs>
<linearGradient id="paint0_linear_6063_546" x1="88" y1="0" x2="88" y2="24" gradientUnits="userSpaceOnUse">
<stop stop-color="#3F66EF"/>
<stop offset="1" stop-color="#243A89"/>
</linearGradient>
<clipPath id="clip0_6063_546">
<rect width="24" height="24" fill="white" transform="translate(60)"/>
</clipPath>
<clipPath id="clip1_6063_546">
<rect width="24" height="24" fill="white" transform="translate(76)"/>
</clipPath>
</defs>
</svg>
