<svg width="64" height="24" viewBox="0 0 64 24" fill="none" xmlns="http://www.w3.org/2000/svg">
<g filter="url(#filter0_b_1_2)">
<path d="M0 12C0 5.37258 5.37258 0 12 0H52C58.6274 0 64 5.37258 64 12V12C64 18.6274 58.6274 24 52 24H12C5.37258 24 0 18.6274 0 12V12Z" fill="url(#paint0_linear_1_2)" fill-opacity="0.4"/>
<path d="M12 0.75H52C58.2132 0.75 63.25 5.7868 63.25 12C63.25 18.2132 58.2132 23.25 52 23.25H12C5.7868 23.25 0.75 18.2132 0.75 12C0.75 5.7868 5.7868 0.75 12 0.75Z" stroke="url(#paint1_linear_1_2)" stroke-opacity="0.3" stroke-width="1.5"/>
<path d="M12 0.75H52C58.2132 0.75 63.25 5.7868 63.25 12C63.25 18.2132 58.2132 23.25 52 23.25H12C5.7868 23.25 0.75 18.2132 0.75 12C0.75 5.7868 5.7868 0.75 12 0.75Z" stroke="url(#paint2_radial_1_2)" stroke-opacity="0.2" stroke-width="1.5"/>
<path d="M12 22C17.5228 22 22 17.5228 22 12C22 6.47715 17.5228 2 12 2C6.47715 2 2 6.47715 2 12C2 17.5228 6.47715 22 12 22Z" fill="url(#paint3_linear_1_2)"/>
<path d="M7.07799 15V10.2933L10.6473 12.9797V15H11.5583V12.79C11.5582 12.7079 11.539 12.6269 11.5022 12.5535C11.4655 12.48 11.4123 12.4161 11.3467 12.3667L7.01799 9.10767C6.93882 9.04886 6.84489 9.01316 6.74664 9.00453C6.6484 8.9959 6.54968 9.01469 6.46147 9.05879C6.37326 9.1029 6.299 9.1706 6.24696 9.25437C6.19491 9.33815 6.16712 9.43471 6.16666 9.53333V15H7.07799ZM16.9493 15V10.2933L13.38 12.9797V15H12.469V12.79C12.4692 12.7079 12.4884 12.6269 12.5251 12.5535C12.5618 12.48 12.6151 12.4161 12.6807 12.3667L17.0093 9.109C17.0884 9.05026 17.1822 9.01457 17.2803 9.00589C17.3785 8.99721 17.4771 9.01588 17.5653 9.05982C17.6534 9.10377 17.7277 9.17127 17.7798 9.25485C17.832 9.33843 17.86 9.43482 17.8607 9.53333V15H16.9493Z" fill="white"/>
<path fill-rule="evenodd" clip-rule="evenodd" d="M27.25 5.75L33.5 12L27.25 18.25L26.375 17.375L31.75 12L26.375 6.625L27.25 5.75ZM31.375 5.75L37.625 12L31.375 18.25L30.5 17.375L35.875 12L30.5 6.625L31.375 5.75Z" fill="url(#paint4_linear_1_2)"/>
<g clip-path="url(#clip0_1_2)">
<rect x="42" y="2" width="20" height="20" rx="10" fill="white"/>
<path d="M42.4903 15.0925C42.1654 14.0938 42 13.05 42 11.9998L42.0741 11.9441L51.7189 11.9634L52 11.9999L42.4903 15.0925Z" fill="url(#paint5_radial_1_2)"/>
<path d="M55.0902 21.5105C53.5893 21.9981 51.9943 22.1237 50.4356 21.8768L50.361 21.7636L51.967 12.1275L52 11.9999L55.0902 21.5105Z" fill="url(#paint6_radial_1_2)"/>
<path d="M62 11.9999C62 13.0493 61.8349 14.0921 61.5106 15.0901H61.2946L52.0511 12.0366L52 11.9999H62Z" fill="url(#paint7_radial_1_2)"/>
<path d="M43.9098 6.1221C44.2177 5.69829 44.5585 5.29932 44.9289 4.92889L45.0125 4.95457L51.9521 11.9214L52 12L43.9098 6.1221Z" fill="url(#paint8_radial_1_2)"/>
<path d="M44.9289 4.92882C46.4222 3.43555 48.3498 2.45336 50.4356 2.123L50.4806 2.19658L52 11.8394V11.9999L44.9289 4.92882Z" fill="url(#paint9_radial_1_2)"/>
<path d="M50.435 2.1231C51.994 1.8761 53.5892 2.00161 55.0903 2.48938L52 11.9999L50.435 2.1231Z" fill="url(#paint10_radial_1_2)"/>
<path d="M42 11.9999C42 10.9505 42.1652 9.90772 42.4894 8.90972L52 11.9999L42 11.9999Z" fill="url(#paint11_radial_1_2)"/>
<path d="M57.8779 3.90976C59.5862 5.15097 60.8578 6.90112 61.5104 8.90941L52 11.9999L57.8779 3.90976Z" fill="url(#paint12_radial_1_2)"/>
<path d="M46.1221 20.0901C45.2732 19.4733 44.5266 18.7267 43.9098 17.8777L52 11.9999L46.1221 20.0901Z" fill="url(#paint13_radial_1_2)"/>
<path d="M50.4356 21.8768C49.9182 21.7948 49.408 21.6723 48.9098 21.5105L52 11.9999L50.4356 21.8768Z" fill="url(#paint14_radial_1_2)"/>
<path d="M61.5106 15.0898C60.8581 17.0983 59.5865 18.8486 57.878 20.0899L52 11.9999L61.5106 15.0898Z" fill="url(#paint15_radial_1_2)"/>
</g>
</g>
<defs>
<filter id="filter0_b_1_2" x="-120" y="-120" width="304" height="264" filterUnits="userSpaceOnUse" color-interpolation-filters="sRGB">
<feFlood flood-opacity="0" result="BackgroundImageFix"/>
<feGaussianBlur in="BackgroundImageFix" stdDeviation="60"/>
<feComposite in2="SourceAlpha" operator="in" result="effect1_backgroundBlur_1_2"/>
<feBlend mode="normal" in="SourceGraphic" in2="effect1_backgroundBlur_1_2" result="shape"/>
</filter>
<linearGradient id="paint0_linear_1_2" x1="-4.75112e-10" y1="-19.7143" x2="66.4809" y2="-16.5773" gradientUnits="userSpaceOnUse">
<stop stop-color="#EBEAFF" stop-opacity="0.1"/>
<stop offset="1" stop-color="#EBEAFF" stop-opacity="0.6"/>
</linearGradient>
<linearGradient id="paint1_linear_1_2" x1="32" y1="1.15772e-07" x2="-1.86162" y2="-0.0243298" gradientUnits="userSpaceOnUse">
<stop stop-color="#EBEAFF" stop-opacity="0.1"/>
<stop offset="1" stop-color="#EBEAFF" stop-opacity="0.4"/>
</linearGradient>
<radialGradient id="paint2_radial_1_2" cx="0" cy="0" r="1" gradientUnits="userSpaceOnUse" gradientTransform="translate(32 12) rotate(-78.2754) scale(174.206 33.7425)">
<stop stop-color="#2A197D" stop-opacity="0.1"/>
<stop offset="1" stop-color="#2A197D" stop-opacity="0.05"/>
</radialGradient>
<linearGradient id="paint3_linear_1_2" x1="12" y1="2" x2="12" y2="22" gradientUnits="userSpaceOnUse">
<stop stop-color="#4FA89B"/>
<stop offset="1" stop-color="#6ACEBB"/>
</linearGradient>
<linearGradient id="paint4_linear_1_2" x1="37" y1="13" x2="18.9266" y2="16.3393" gradientUnits="userSpaceOnUse">
<stop stop-color="#F7A7F9"/>
<stop offset="1" stop-color="#6D28FF"/>
</linearGradient>
<radialGradient id="paint5_radial_1_2" cx="0" cy="0" r="1" gradientUnits="userSpaceOnUse" gradientTransform="translate(52 11.9999) rotate(-180) scale(13.3201 13.3201)">
<stop stop-color="#6D28FF"/>
<stop offset="1" stop-color="#F7A7F9"/>
</radialGradient>
<radialGradient id="paint6_radial_1_2" cx="0" cy="0" r="1" gradientUnits="userSpaceOnUse" gradientTransform="translate(52 11.9999) rotate(90) scale(10.238 10.238)">
<stop stop-color="#FFCD6B"/>
<stop offset="1" stop-color="#EB5EDF"/>
</radialGradient>
<radialGradient id="paint7_radial_1_2" cx="0" cy="0" r="1" gradientUnits="userSpaceOnUse" gradientTransform="translate(52 11.9999) rotate(-90) scale(10.2297 10.2297)">
<stop stop-color="#A273FF"/>
<stop offset="0.5" stop-color="#9FAEFF"/>
<stop offset="1" stop-color="#AAF2E1"/>
</radialGradient>
<radialGradient id="paint8_radial_1_2" cx="0" cy="0" r="1" gradientUnits="userSpaceOnUse" gradientTransform="translate(52 12) rotate(114.172) scale(10.961 10.961)">
<stop stop-color="#FFD2B9"/>
<stop offset="0.289583" stop-color="#C99BED"/>
<stop offset="1" stop-color="#0075FF"/>
</radialGradient>
<radialGradient id="paint9_radial_1_2" cx="0" cy="0" r="1" gradientUnits="userSpaceOnUse" gradientTransform="translate(52 11.9999) rotate(-98.9946) scale(10.24 10.24)">
<stop stop-color="#F7A7F9"/>
<stop offset="1" stop-color="#00DDFB"/>
</radialGradient>
<radialGradient id="paint10_radial_1_2" cx="0" cy="0" r="1" gradientUnits="userSpaceOnUse" gradientTransform="translate(52 11.9999) rotate(-90) scale(10.2297 10.2297)">
<stop stop-color="#A273FF"/>
<stop offset="0.5" stop-color="#9FAEFF"/>
<stop offset="1" stop-color="#AAF2E1"/>
</radialGradient>
<radialGradient id="paint11_radial_1_2" cx="0" cy="0" r="1" gradientUnits="userSpaceOnUse" gradientTransform="translate(52 11.9999) rotate(-180) scale(10.2471)">
<stop stop-color="#FFF3D0"/>
<stop offset="1" stop-color="#FFC044"/>
</radialGradient>
<radialGradient id="paint12_radial_1_2" cx="0" cy="0" r="1" gradientUnits="userSpaceOnUse" gradientTransform="translate(52 11.9999) rotate(90) scale(10.238 10.238)">
<stop stop-color="#FFCD6B"/>
<stop offset="1" stop-color="#EB5EDF"/>
</radialGradient>
<radialGradient id="paint13_radial_1_2" cx="0" cy="0" r="1" gradientUnits="userSpaceOnUse" gradientTransform="translate(52 11.9999) rotate(114.172) scale(10.961 10.961)">
<stop stop-color="#FFD2B9"/>
<stop offset="0.289583" stop-color="#C99BED"/>
<stop offset="1" stop-color="#0075FF"/>
</radialGradient>
<radialGradient id="paint14_radial_1_2" cx="0" cy="0" r="1" gradientUnits="userSpaceOnUse" gradientTransform="translate(52 11.9999) rotate(90) scale(10.2592)">
<stop stop-color="#D5FAFF"/>
<stop offset="1" stop-color="#00DDFB"/>
</radialGradient>
<radialGradient id="paint15_radial_1_2" cx="0" cy="0" r="1" gradientUnits="userSpaceOnUse" gradientTransform="translate(52 11.9999) rotate(35.9904) scale(10.2005 10.2005)">
<stop stop-color="#0075FF"/>
<stop offset="1" stop-color="#00DDFB"/>
</radialGradient>
<clipPath id="clip0_1_2">
<rect width="20" height="20" fill="white" transform="translate(42 2)"/>
</clipPath>
</defs>
</svg>
