<svg width="32" height="32" viewBox="0 0 32 32" fill="none" xmlns="http://www.w3.org/2000/svg">
<path d="M16 2C13.2311 2 10.5243 2.82109 8.22202 4.35943C5.91973 5.89777 4.12532 8.08427 3.06569 10.6424C2.00607 13.2006 1.72882 16.0155 2.26901 18.7313C2.80921 21.447 4.14258 23.9416 6.10051 25.8995C8.05845 27.8574 10.553 29.1908 13.2687 29.731C15.9845 30.2712 18.7994 29.9939 21.3576 28.9343C23.9157 27.8747 26.1022 26.0803 27.6406 23.778C29.1789 21.4757 30 18.7689 30 16C29.9958 12.2883 28.5195 8.72973 25.8949 6.10512C23.2703 3.48052 19.7118 2.00418 16 2ZM27.9493 15.001H21.91C21.7434 13.999 21.3243 13.0559 20.6923 12.2606C20.0604 11.4653 19.2363 10.844 18.2978 10.4553C17.3594 10.0666 16.3373 9.92329 15.3281 10.0388C14.3189 10.1544 13.3558 10.525 12.5294 11.1157L8.25941 6.8457C9.93876 5.42018 11.9787 4.48536 14.1549 4.14401C16.3311 3.80267 18.5592 4.06803 20.5944 4.91091C22.6296 5.75379 24.3929 7.14155 25.6905 8.9216C26.9881 10.7016 27.7697 12.805 27.9494 15.0005L27.9493 15.001ZM16 20C15.2089 20 14.4355 19.7654 13.7777 19.3259C13.1199 18.8864 12.6072 18.2616 12.3045 17.5307C12.0017 16.7998 11.9225 15.9956 12.0769 15.2196C12.2312 14.4437 12.6122 13.731 13.1716 13.1716C13.731 12.6122 14.4437 12.2312 15.2196 12.0769C15.9956 11.9225 16.7998 12.0017 17.5307 12.3045C18.2616 12.6072 18.8864 13.1199 19.3259 13.7777C19.7654 14.4355 20 15.2089 20 16C19.9988 17.0605 19.577 18.0772 18.8271 18.8271C18.0772 19.577 17.0605 19.9988 16 20ZM4.00001 16C3.99892 13.1639 5.00765 10.42 6.84551 8.26L11.1155 12.5295C10.525 13.3559 10.1545 14.319 10.039 15.3281C9.92354 16.3373 10.0668 17.3592 10.4554 18.2976C10.844 19.2361 11.4651 20.0601 12.2602 20.6922C13.0552 21.3243 13.9981 21.7436 15 21.9106V27.9506C12.0032 27.6976 9.21037 26.3294 7.1736 24.1167C5.13683 21.9039 4.00434 19.0075 4.00001 16ZM17 27.95V21.91C18.226 21.7006 19.3569 21.1158 20.2363 20.2363C21.1158 19.3568 21.7006 18.226 21.91 17H27.95C27.7104 19.8238 26.4798 22.4719 24.4759 24.4759C22.4719 26.4798 19.8238 27.7104 17 27.95Z" fill="hsl(251.6 80.6% 75.3%)"/>
</svg>
