<svg width="32" height="32" viewBox="0 0 32 32" fill="none" xmlns="http://www.w3.org/2000/svg">
<path d="M28 24V28H4V24H2V28L2.0076 27.9951C2.00665 28.2576 2.05745 28.5177 2.15709 28.7606C2.25673 29.0034 2.40325 29.2243 2.58829 29.4105C2.77333 29.5967 2.99325 29.7446 3.23548 29.8457C3.47771 29.9469 3.7375 29.9993 4 30H28C28.5304 30 29.0391 29.7893 29.4142 29.4142C29.7893 29.0391 30 28.5304 30 28V24H28ZM27.6 14.6L24 18.2V4H22V18.2L18.4 14.6L17 16L23 22L29 16L27.6 14.6ZM9 4L3 10L4.4 11.4L8 7.8V22H10V7.8L13.6 11.4L15 10L9 4Z" fill="hsl(251.6 80.6% 75.3%)"/>
</svg>
