<svg width="25" height="25" viewBox="0 0 25 25" fill="none" xmlns="http://www.w3.org/2000/svg">
<circle cx="12.5" cy="12.5" r="12" fill="#2C374B"/>
<mask id="mask0_5_24" style="mask-type:luminance" maskUnits="userSpaceOnUse" x="4" y="3" width="16" height="18">
<path d="M20 3.95197H4.9223V20.9704H20V3.95197Z" fill="white"/>
</mask>
<g mask="url(#mask0_5_24)">
<path d="M5.49469 9.12523V15.7971C5.49469 16.2231 5.72225 16.6169 6.09082 16.8292L11.8664 20.1659C12.2349 20.3781 12.6887 20.3781 13.0573 20.1659L18.8328 16.8292C19.2014 16.6169 19.429 16.2231 19.429 15.7971V9.12523C19.429 8.69924 19.2014 8.30538 18.8328 8.09309L13.0573 4.75645C12.6887 4.54415 12.2349 4.54415 11.8664 4.75645L6.08942 8.09309C5.72086 8.30538 5.49469 8.69924 5.49469 9.12523Z" fill="#213147"/>
<path d="M13.7218 13.7552L12.898 16.015C12.8757 16.0778 12.8757 16.1463 12.898 16.2091L14.3151 20.0975L15.9541 19.1505L13.987 13.7552C13.9423 13.6309 13.7664 13.6309 13.7218 13.7552Z" fill="#12AAFF"/>
<path d="M15.3733 9.95486C15.3286 9.83056 15.1527 9.83056 15.108 9.95486L14.2844 12.2146C14.262 12.2775 14.262 12.3459 14.2844 12.4088L16.606 18.7748L18.245 17.8279L15.3733 9.95486Z" fill="#12AAFF"/>
<path d="M12.4611 5.00645C12.5016 5.00645 12.5421 5.01762 12.5784 5.03718L18.8287 8.64756C18.9013 8.68946 18.946 8.76768 18.946 8.85007V16.0694C18.946 16.1533 18.9013 16.2301 18.8287 16.2719L12.5784 19.8824C12.5436 19.9033 12.5016 19.913 12.4611 19.913C12.4207 19.913 12.3802 19.9019 12.3439 19.8824L6.09362 16.2748C6.02102 16.2328 5.97634 16.1547 5.97634 16.0723V8.85147C5.97634 8.76768 6.02102 8.69085 6.09362 8.64896L12.3439 5.03857C12.3802 5.01762 12.4207 5.00645 12.4611 5.00645ZM12.4611 3.95197C12.2392 3.95197 12.0158 4.00923 11.8162 4.12515L5.56729 7.73414C5.16802 7.96459 4.9223 8.39057 4.9223 8.85147V16.0708C4.9223 16.5318 5.16802 16.9577 5.56729 17.1882L11.8176 20.7985C12.0172 20.9131 12.2392 20.9718 12.4626 20.9718C12.6846 20.9718 12.9079 20.9145 13.1075 20.7985L19.3578 17.1882C19.7571 16.9577 20.0028 16.5318 20.0028 16.0708V8.85147C20.0028 8.39057 19.7571 7.96459 19.3578 7.73414L13.1061 4.12515C12.9065 4.00923 12.6831 3.95197 12.4611 3.95197Z" fill="#9DCCED"/>
<path d="M8.32745 18.7832L8.90265 17.2078L10.06 18.17L8.97803 19.1589L8.32745 18.7832Z" fill="#213147"/>
<path d="M11.9348 8.33472H10.3502C10.2315 8.33472 10.1254 8.40874 10.085 8.52047L6.68829 17.8362L8.32729 18.7832L12.0674 8.52467C12.1023 8.43248 12.0339 8.33472 11.9348 8.33472Z" fill="white"/>
<path d="M14.7075 8.33472H13.1229C13.0043 8.33472 12.8982 8.40874 12.8577 8.52047L8.97937 19.1575L10.6184 20.1044L14.8402 8.52467C14.8737 8.43248 14.8052 8.33472 14.7075 8.33472Z" fill="white"/>
</g>
</svg>
