<svg width="349" height="268" viewBox="0 0 349 268" fill="none" xmlns="http://www.w3.org/2000/svg">
<circle cx="288" cy="134" r="288" fill="#3FCE98" fill-opacity="0.1"/>
<circle cx="288" cy="134" r="218.074" fill="#3FCE98" fill-opacity="0.1"/>
<g clip-path="url(#clip0_6552_4392)">
<circle cx="287.999" cy="134" r="143.407" fill="url(#paint0_radial_6552_4392)"/>
<path d="M233.156 171.702H212.748C214.414 203.564 241.069 231.26 288.341 231.26C335.404 231.26 365.392 205.438 365.392 172.119C365.392 108.812 269.807 112.353 269.807 75.7015C269.807 65.4975 277.512 53.4193 295.421 53.4193C315.413 53.4193 338.944 69.0376 340.61 89.0292H360.81C358.728 56.7512 327.283 34.2607 287.3 34.2607C245.859 34.2607 214.622 58.4172 214.622 92.5693C214.622 157.75 310.207 149.212 310.207 189.403C310.207 201.898 302.502 212.31 283.135 212.31C258.978 212.31 234.614 195.442 233.156 171.702ZM250.232 80.4911C250.232 130.053 344.984 120.266 344.984 173.16C344.984 188.987 334.571 202.939 322.077 206.479C326.45 202.314 329.782 193.152 329.782 184.405C329.782 135.468 234.822 142.132 234.822 91.9446C234.822 75.0767 245.651 61.5408 259.187 57.3759C253.981 63.6233 250.232 71.7448 250.232 80.4911Z" fill="white"/>
</g>
<defs>
<radialGradient id="paint0_radial_6552_4392" cx="0" cy="0" r="1" gradientUnits="userSpaceOnUse" gradientTransform="translate(287.999 437.308) rotate(-90) scale(446.716)">
<stop stop-color="#FFEF79"/>
<stop offset="1" stop-color="#00C2A1"/>
</radialGradient>
<clipPath id="clip0_6552_4392">
<rect width="286.815" height="286.815" fill="white" transform="translate(144.592 -9.40723)"/>
</clipPath>
</defs>
</svg>
